G04 Layer_Physical_Order=2*
G04 Layer_Color=16711680*
%FSLAX25Y25*%
%MOIN*%
G70*
G01*
G75*
%ADD15C,0.01500*%
%ADD16C,0.01000*%
%ADD17C,0.02000*%
%ADD18C,0.06000*%
%ADD19R,0.06000X0.06000*%
%ADD20R,0.05906X0.05906*%
%ADD21C,0.05906*%
%ADD22C,0.15748*%
%ADD23C,0.05118*%
%ADD24C,0.05000*%
G36*
X585209Y5342D02*
X5342D01*
Y585209D01*
X585209D01*
Y5342D01*
D02*
G37*
%LPC*%
G36*
X438500Y150969D02*
X437956Y150897D01*
X436983Y150494D01*
X436147Y149853D01*
X435506Y149017D01*
X435103Y148044D01*
X435031Y147500D01*
X438500D01*
Y150969D01*
D02*
G37*
G36*
X439500D02*
Y147500D01*
X442969D01*
X442897Y148044D01*
X442494Y149017D01*
X441853Y149853D01*
X441017Y150494D01*
X440044Y150897D01*
X439500Y150969D01*
D02*
G37*
G36*
X569000Y150820D02*
X568011Y150690D01*
X567090Y150308D01*
X566299Y149701D01*
X565692Y148910D01*
X565310Y147989D01*
X565180Y147000D01*
X565310Y146011D01*
X565692Y145090D01*
X566299Y144299D01*
X567090Y143692D01*
X568011Y143310D01*
X569000Y143180D01*
X569989Y143310D01*
X570910Y143692D01*
X571701Y144299D01*
X572308Y145090D01*
X572690Y146011D01*
X572820Y147000D01*
X572690Y147989D01*
X572308Y148910D01*
X571701Y149701D01*
X570910Y150308D01*
X569989Y150690D01*
X569000Y150820D01*
D02*
G37*
G36*
X549000D02*
X548011Y150690D01*
X547090Y150308D01*
X546299Y149701D01*
X545692Y148910D01*
X545310Y147989D01*
X545180Y147000D01*
X545310Y146011D01*
X545692Y145090D01*
X546299Y144299D01*
X547090Y143692D01*
X548011Y143310D01*
X549000Y143180D01*
X549989Y143310D01*
X550910Y143692D01*
X551701Y144299D01*
X552308Y145090D01*
X552690Y146011D01*
X552820Y147000D01*
X552690Y147989D01*
X552308Y148910D01*
X551701Y149701D01*
X550910Y150308D01*
X549989Y150690D01*
X549000Y150820D01*
D02*
G37*
G36*
X559000D02*
X558011Y150690D01*
X557090Y150308D01*
X556299Y149701D01*
X555692Y148910D01*
X555310Y147989D01*
X555180Y147000D01*
X555310Y146011D01*
X555692Y145090D01*
X556299Y144299D01*
X557090Y143692D01*
X558011Y143310D01*
X559000Y143180D01*
X559989Y143310D01*
X560910Y143692D01*
X561701Y144299D01*
X562308Y145090D01*
X562690Y146011D01*
X562820Y147000D01*
X562690Y147989D01*
X562308Y148910D01*
X561701Y149701D01*
X560910Y150308D01*
X559989Y150690D01*
X559000Y150820D01*
D02*
G37*
G36*
X499000Y169272D02*
X498024Y169144D01*
X497114Y168767D01*
X496333Y168167D01*
X495733Y167386D01*
X495356Y166476D01*
X495228Y165500D01*
X495356Y164524D01*
X495733Y163614D01*
X496333Y162832D01*
X497114Y162233D01*
X497614Y162026D01*
Y161484D01*
X497342Y161372D01*
X496655Y160845D01*
X496129Y160158D01*
X495986Y159813D01*
X457015D01*
X456872Y160158D01*
X456345Y160845D01*
X455658Y161372D01*
X454858Y161703D01*
X454000Y161816D01*
X453142Y161703D01*
X452342Y161372D01*
X451655Y160845D01*
X451128Y160158D01*
X450797Y159358D01*
X450684Y158500D01*
X450797Y157642D01*
X451128Y156842D01*
X451372Y156525D01*
X451125Y156025D01*
X447134D01*
X446872Y156658D01*
X446345Y157345D01*
X445658Y157871D01*
X444858Y158203D01*
X444000Y158316D01*
X443142Y158203D01*
X442342Y157871D01*
X441655Y157345D01*
X441128Y156658D01*
X440797Y155858D01*
X440684Y155000D01*
X440797Y154142D01*
X441128Y153342D01*
X441655Y152655D01*
X442342Y152129D01*
X443142Y151797D01*
X444000Y151684D01*
X444858Y151797D01*
X445658Y152129D01*
X446345Y152655D01*
X446872Y153342D01*
X446896Y153400D01*
X485897D01*
X486129Y152842D01*
X486655Y152155D01*
X487342Y151628D01*
X488142Y151297D01*
X488468Y151254D01*
Y150750D01*
X488011Y150690D01*
X487090Y150308D01*
X486299Y149701D01*
X485692Y148910D01*
X485310Y147989D01*
X485180Y147000D01*
X485310Y146011D01*
X485692Y145090D01*
X486299Y144299D01*
X487090Y143692D01*
X488011Y143310D01*
X489000Y143180D01*
X489989Y143310D01*
X490910Y143692D01*
X491701Y144299D01*
X492308Y145090D01*
X492690Y146011D01*
X492820Y147000D01*
X492690Y147989D01*
X492308Y148910D01*
X491701Y149701D01*
X490910Y150308D01*
X489989Y150690D01*
X489532Y150750D01*
Y151254D01*
X489858Y151297D01*
X490658Y151628D01*
X491345Y152155D01*
X491872Y152842D01*
X492203Y153642D01*
X492316Y154500D01*
X492203Y155358D01*
X491872Y156158D01*
X491465Y156687D01*
X491675Y157187D01*
X495986D01*
X496129Y156842D01*
X496655Y156155D01*
X497342Y155629D01*
X498142Y155297D01*
X499000Y155184D01*
X499858Y155297D01*
X500658Y155629D01*
X501345Y156155D01*
X501871Y156842D01*
X502203Y157642D01*
X502316Y158500D01*
X502203Y159358D01*
X501871Y160158D01*
X501345Y160845D01*
X500658Y161372D01*
X500386Y161484D01*
Y162026D01*
X500886Y162233D01*
X501667Y162832D01*
X502267Y163614D01*
X502644Y164524D01*
X502772Y165500D01*
X502644Y166476D01*
X502267Y167386D01*
X501667Y168167D01*
X500886Y168767D01*
X499976Y169144D01*
X499000Y169272D01*
D02*
G37*
G36*
X459000D02*
X458024Y169144D01*
X457114Y168767D01*
X456332Y168167D01*
X455733Y167386D01*
X455356Y166476D01*
X455228Y165500D01*
X455356Y164524D01*
X455733Y163614D01*
X456332Y162832D01*
X457114Y162233D01*
X458024Y161856D01*
X459000Y161728D01*
X459976Y161856D01*
X460886Y162233D01*
X461667Y162832D01*
X462267Y163614D01*
X462644Y164524D01*
X462772Y165500D01*
X462644Y166476D01*
X462267Y167386D01*
X461667Y168167D01*
X460886Y168767D01*
X459976Y169144D01*
X459000Y169272D01*
D02*
G37*
G36*
X469000D02*
X468024Y169144D01*
X467114Y168767D01*
X466332Y168167D01*
X465733Y167386D01*
X465356Y166476D01*
X465228Y165500D01*
X465356Y164524D01*
X465733Y163614D01*
X466332Y162832D01*
X467114Y162233D01*
X468024Y161856D01*
X469000Y161728D01*
X469976Y161856D01*
X470886Y162233D01*
X471667Y162832D01*
X472267Y163614D01*
X472644Y164524D01*
X472772Y165500D01*
X472644Y166476D01*
X472267Y167386D01*
X471667Y168167D01*
X470886Y168767D01*
X469976Y169144D01*
X469000Y169272D01*
D02*
G37*
G36*
X449000D02*
X448024Y169144D01*
X447114Y168767D01*
X446333Y168167D01*
X445733Y167386D01*
X445356Y166476D01*
X445228Y165500D01*
X445356Y164524D01*
X445733Y163614D01*
X446333Y162832D01*
X447114Y162233D01*
X448024Y161856D01*
X449000Y161728D01*
X449976Y161856D01*
X450886Y162233D01*
X451667Y162832D01*
X452267Y163614D01*
X452644Y164524D01*
X452772Y165500D01*
X452644Y166476D01*
X452267Y167386D01*
X451667Y168167D01*
X450886Y168767D01*
X449976Y169144D01*
X449000Y169272D01*
D02*
G37*
G36*
X438500Y165000D02*
X435079D01*
X435149Y164468D01*
X435547Y163507D01*
X436181Y162681D01*
X437007Y162047D01*
X437968Y161649D01*
X438500Y161579D01*
Y165000D01*
D02*
G37*
G36*
X442921D02*
X439500D01*
Y161579D01*
X440032Y161649D01*
X440993Y162047D01*
X441819Y162681D01*
X442453Y163507D01*
X442851Y164468D01*
X442921Y165000D01*
D02*
G37*
G36*
X539000Y150820D02*
X538011Y150690D01*
X537090Y150308D01*
X536299Y149701D01*
X535692Y148910D01*
X535310Y147989D01*
X535180Y147000D01*
X535310Y146011D01*
X535692Y145090D01*
X536299Y144299D01*
X537090Y143692D01*
X538011Y143310D01*
X539000Y143180D01*
X539989Y143310D01*
X540910Y143692D01*
X541701Y144299D01*
X542308Y145090D01*
X542690Y146011D01*
X542820Y147000D01*
X542690Y147989D01*
X542308Y148910D01*
X541701Y149701D01*
X540910Y150308D01*
X539989Y150690D01*
X539000Y150820D01*
D02*
G37*
G36*
X387500Y142964D02*
Y140000D01*
X390464D01*
X390410Y140414D01*
X390057Y141265D01*
X389496Y141996D01*
X388765Y142557D01*
X387914Y142910D01*
X387500Y142964D01*
D02*
G37*
G36*
X449000Y150820D02*
X448011Y150690D01*
X447090Y150308D01*
X446299Y149701D01*
X445692Y148910D01*
X445310Y147989D01*
X445180Y147000D01*
X445310Y146011D01*
X445692Y145090D01*
X446299Y144299D01*
X447090Y143692D01*
X448011Y143310D01*
X449000Y143180D01*
X449989Y143310D01*
X450910Y143692D01*
X451701Y144299D01*
X452308Y145090D01*
X452690Y146011D01*
X452820Y147000D01*
X452690Y147989D01*
X452308Y148910D01*
X451701Y149701D01*
X450910Y150308D01*
X449989Y150690D01*
X449000Y150820D01*
D02*
G37*
G36*
X386500Y142964D02*
X386086Y142910D01*
X385235Y142557D01*
X384504Y141996D01*
X383943Y141265D01*
X383590Y140414D01*
X383536Y140000D01*
X386500D01*
Y142964D01*
D02*
G37*
G36*
X429000Y150820D02*
X428011Y150690D01*
X427090Y150308D01*
X426299Y149701D01*
X425692Y148910D01*
X425310Y147989D01*
X425180Y147000D01*
X425310Y146011D01*
X425692Y145090D01*
X426299Y144299D01*
X427090Y143692D01*
X427178Y143655D01*
Y139245D01*
X426655Y138845D01*
X426128Y138158D01*
X425797Y137358D01*
X425684Y136500D01*
X425797Y135642D01*
X426128Y134842D01*
X426655Y134155D01*
X427342Y133628D01*
X428142Y133297D01*
X429000Y133184D01*
X429858Y133297D01*
X430658Y133628D01*
X431345Y134155D01*
X431872Y134842D01*
X432203Y135642D01*
X432316Y136500D01*
X432203Y137358D01*
X431872Y138158D01*
X431345Y138845D01*
X430822Y139245D01*
Y143655D01*
X430910Y143692D01*
X431701Y144299D01*
X432308Y145090D01*
X432690Y146011D01*
X432820Y147000D01*
X432690Y147989D01*
X432308Y148910D01*
X431701Y149701D01*
X430910Y150308D01*
X429989Y150690D01*
X429000Y150820D01*
D02*
G37*
G36*
X442969Y146500D02*
X435031D01*
X435103Y145956D01*
X435506Y144983D01*
X436147Y144147D01*
X436678Y143740D01*
Y139513D01*
X436004Y138996D01*
X435443Y138265D01*
X435090Y137414D01*
X435036Y137000D01*
X441964D01*
X441910Y137414D01*
X441557Y138265D01*
X440996Y138996D01*
X440322Y139513D01*
Y143218D01*
X441017Y143506D01*
X441853Y144147D01*
X442494Y144983D01*
X442897Y145956D01*
X442969Y146500D01*
D02*
G37*
G36*
X469000Y150820D02*
X468011Y150690D01*
X467090Y150308D01*
X466299Y149701D01*
X465692Y148910D01*
X465310Y147989D01*
X465180Y147000D01*
X465310Y146011D01*
X465692Y145090D01*
X466299Y144299D01*
X467090Y143692D01*
X468011Y143310D01*
X469000Y143180D01*
X469989Y143310D01*
X470910Y143692D01*
X471701Y144299D01*
X472308Y145090D01*
X472690Y146011D01*
X472820Y147000D01*
X472690Y147989D01*
X472308Y148910D01*
X471701Y149701D01*
X470910Y150308D01*
X469989Y150690D01*
X469000Y150820D01*
D02*
G37*
G36*
X519000D02*
X518011Y150690D01*
X517090Y150308D01*
X516299Y149701D01*
X515692Y148910D01*
X515310Y147989D01*
X515180Y147000D01*
X515310Y146011D01*
X515692Y145090D01*
X516299Y144299D01*
X517090Y143692D01*
X518011Y143310D01*
X519000Y143180D01*
X519989Y143310D01*
X520910Y143692D01*
X521701Y144299D01*
X522308Y145090D01*
X522690Y146011D01*
X522820Y147000D01*
X522690Y147989D01*
X522308Y148910D01*
X521701Y149701D01*
X520910Y150308D01*
X519989Y150690D01*
X519000Y150820D01*
D02*
G37*
G36*
X529000D02*
X528011Y150690D01*
X527090Y150308D01*
X526299Y149701D01*
X525692Y148910D01*
X525310Y147989D01*
X525180Y147000D01*
X525310Y146011D01*
X525692Y145090D01*
X526299Y144299D01*
X527090Y143692D01*
X528011Y143310D01*
X529000Y143180D01*
X529989Y143310D01*
X530910Y143692D01*
X531701Y144299D01*
X532308Y145090D01*
X532690Y146011D01*
X532820Y147000D01*
X532690Y147989D01*
X532308Y148910D01*
X531701Y149701D01*
X530910Y150308D01*
X529989Y150690D01*
X529000Y150820D01*
D02*
G37*
G36*
X509000D02*
X508011Y150690D01*
X507090Y150308D01*
X506299Y149701D01*
X505692Y148910D01*
X505310Y147989D01*
X505180Y147000D01*
X505310Y146011D01*
X505692Y145090D01*
X506299Y144299D01*
X507090Y143692D01*
X508011Y143310D01*
X509000Y143180D01*
X509989Y143310D01*
X510910Y143692D01*
X511701Y144299D01*
X512308Y145090D01*
X512690Y146011D01*
X512820Y147000D01*
X512690Y147989D01*
X512308Y148910D01*
X511701Y149701D01*
X510910Y150308D01*
X509989Y150690D01*
X509000Y150820D01*
D02*
G37*
G36*
X479000D02*
X478011Y150690D01*
X477090Y150308D01*
X476299Y149701D01*
X475692Y148910D01*
X475310Y147989D01*
X475180Y147000D01*
X475310Y146011D01*
X475692Y145090D01*
X476299Y144299D01*
X477090Y143692D01*
X478011Y143310D01*
X479000Y143180D01*
X479989Y143310D01*
X480910Y143692D01*
X481701Y144299D01*
X482308Y145090D01*
X482690Y146011D01*
X482820Y147000D01*
X482690Y147989D01*
X482308Y148910D01*
X481701Y149701D01*
X480910Y150308D01*
X479989Y150690D01*
X479000Y150820D01*
D02*
G37*
G36*
X499000D02*
X498011Y150690D01*
X497090Y150308D01*
X496299Y149701D01*
X495692Y148910D01*
X495310Y147989D01*
X495180Y147000D01*
X495310Y146011D01*
X495692Y145090D01*
X496299Y144299D01*
X497090Y143692D01*
X498011Y143310D01*
X499000Y143180D01*
X499989Y143310D01*
X500910Y143692D01*
X501701Y144299D01*
X502308Y145090D01*
X502690Y146011D01*
X502820Y147000D01*
X502690Y147989D01*
X502308Y148910D01*
X501701Y149701D01*
X500910Y150308D01*
X499989Y150690D01*
X499000Y150820D01*
D02*
G37*
G36*
X479000Y169272D02*
X478024Y169144D01*
X477114Y168767D01*
X476333Y168167D01*
X475733Y167386D01*
X475356Y166476D01*
X475228Y165500D01*
X475356Y164524D01*
X475733Y163614D01*
X476333Y162832D01*
X477114Y162233D01*
X478024Y161856D01*
X479000Y161728D01*
X479976Y161856D01*
X480886Y162233D01*
X481668Y162832D01*
X482267Y163614D01*
X482644Y164524D01*
X482772Y165500D01*
X482644Y166476D01*
X482267Y167386D01*
X481668Y168167D01*
X480886Y168767D01*
X479976Y169144D01*
X479000Y169272D01*
D02*
G37*
G36*
X519000Y229772D02*
X518024Y229644D01*
X517114Y229267D01*
X516332Y228667D01*
X515733Y227886D01*
X515356Y226976D01*
X515228Y226000D01*
X515356Y225024D01*
X515733Y224114D01*
X516332Y223333D01*
X517114Y222733D01*
X518024Y222356D01*
X519000Y222228D01*
X519976Y222356D01*
X520886Y222733D01*
X521667Y223333D01*
X522267Y224114D01*
X522644Y225024D01*
X522772Y226000D01*
X522644Y226976D01*
X522267Y227886D01*
X521667Y228667D01*
X520886Y229267D01*
X519976Y229644D01*
X519000Y229772D01*
D02*
G37*
G36*
X529000D02*
X528024Y229644D01*
X527114Y229267D01*
X526333Y228667D01*
X525733Y227886D01*
X525356Y226976D01*
X525228Y226000D01*
X525356Y225024D01*
X525733Y224114D01*
X526333Y223333D01*
X527114Y222733D01*
X528024Y222356D01*
X529000Y222228D01*
X529976Y222356D01*
X530886Y222733D01*
X531668Y223333D01*
X532267Y224114D01*
X532644Y225024D01*
X532772Y226000D01*
X532644Y226976D01*
X532267Y227886D01*
X531668Y228667D01*
X530886Y229267D01*
X529976Y229644D01*
X529000Y229772D01*
D02*
G37*
G36*
X509000D02*
X508024Y229644D01*
X507114Y229267D01*
X506332Y228667D01*
X505733Y227886D01*
X505356Y226976D01*
X505228Y226000D01*
X505356Y225024D01*
X505733Y224114D01*
X506332Y223333D01*
X507114Y222733D01*
X508024Y222356D01*
X509000Y222228D01*
X509976Y222356D01*
X510886Y222733D01*
X511667Y223333D01*
X512267Y224114D01*
X512644Y225024D01*
X512772Y226000D01*
X512644Y226976D01*
X512267Y227886D01*
X511667Y228667D01*
X510886Y229267D01*
X509976Y229644D01*
X509000Y229772D01*
D02*
G37*
G36*
X570500Y208375D02*
X569626Y208260D01*
X568812Y207923D01*
X568113Y207387D01*
X567577Y206688D01*
X567240Y205874D01*
X567125Y205000D01*
X567240Y204126D01*
X567577Y203312D01*
X568113Y202613D01*
X568812Y202077D01*
X569626Y201740D01*
X570500Y201625D01*
X571374Y201740D01*
X572188Y202077D01*
X572887Y202613D01*
X573423Y203312D01*
X573760Y204126D01*
X573875Y205000D01*
X573760Y205874D01*
X573423Y206688D01*
X572887Y207387D01*
X572188Y207923D01*
X571374Y208260D01*
X570500Y208375D01*
D02*
G37*
G36*
X19685Y259726D02*
X18696Y259595D01*
X17775Y259214D01*
X16984Y258607D01*
X16377Y257816D01*
X15995Y256894D01*
X15865Y255906D01*
X15995Y254917D01*
X16377Y253995D01*
X16984Y253204D01*
X17775Y252597D01*
X18696Y252216D01*
X19685Y252085D01*
X20674Y252216D01*
X21595Y252597D01*
X22386Y253204D01*
X22993Y253995D01*
X23135Y254338D01*
X89445D01*
X90433Y253351D01*
Y207000D01*
X90552Y206400D01*
X90892Y205892D01*
X91955Y204829D01*
X92463Y204489D01*
X93063Y204369D01*
X107154D01*
X107191Y204279D01*
X107718Y203592D01*
X108405Y203065D01*
X109205Y202734D01*
X110063Y202621D01*
X110921Y202734D01*
X111721Y203065D01*
X112408Y203592D01*
X112935Y204279D01*
X113266Y205079D01*
X113379Y205937D01*
X113266Y206795D01*
X112935Y207595D01*
X112408Y208282D01*
X111721Y208809D01*
X110921Y209140D01*
X110063Y209253D01*
X109205Y209140D01*
X108405Y208809D01*
X107718Y208282D01*
X107191Y207595D01*
X107154Y207505D01*
X93712D01*
X93568Y207649D01*
Y254000D01*
X93448Y254600D01*
X93108Y255108D01*
X91203Y257014D01*
X90694Y257354D01*
X90095Y257473D01*
X23135D01*
X22993Y257816D01*
X22386Y258607D01*
X21595Y259214D01*
X20674Y259595D01*
X19685Y259726D01*
D02*
G37*
G36*
X539000Y229772D02*
X538024Y229644D01*
X537114Y229267D01*
X536333Y228667D01*
X535733Y227886D01*
X535356Y226976D01*
X535228Y226000D01*
X535356Y225024D01*
X535733Y224114D01*
X536333Y223333D01*
X537114Y222733D01*
X538024Y222356D01*
X539000Y222228D01*
X539976Y222356D01*
X540886Y222733D01*
X541668Y223333D01*
X542267Y224114D01*
X542644Y225024D01*
X542772Y226000D01*
X542644Y226976D01*
X542267Y227886D01*
X541668Y228667D01*
X540886Y229267D01*
X539976Y229644D01*
X539000Y229772D01*
D02*
G37*
G36*
X154500Y230964D02*
Y228000D01*
X157464D01*
X157410Y228414D01*
X157057Y229265D01*
X156496Y229996D01*
X155765Y230557D01*
X154914Y230910D01*
X154500Y230964D01*
D02*
G37*
G36*
X458500Y244000D02*
X455031D01*
X455103Y243456D01*
X455506Y242483D01*
X456147Y241647D01*
X456983Y241006D01*
X457956Y240603D01*
X458500Y240531D01*
Y244000D01*
D02*
G37*
G36*
X569000Y229772D02*
X568024Y229644D01*
X567114Y229267D01*
X566332Y228667D01*
X565733Y227886D01*
X565356Y226976D01*
X565228Y226000D01*
X565356Y225024D01*
X565733Y224114D01*
X566332Y223333D01*
X567114Y222733D01*
X568024Y222356D01*
X569000Y222228D01*
X569976Y222356D01*
X570886Y222733D01*
X571667Y223333D01*
X572267Y224114D01*
X572644Y225024D01*
X572772Y226000D01*
X572644Y226976D01*
X572267Y227886D01*
X571667Y228667D01*
X570886Y229267D01*
X569976Y229644D01*
X569000Y229772D01*
D02*
G37*
G36*
X549000D02*
X548024Y229644D01*
X547114Y229267D01*
X546333Y228667D01*
X545733Y227886D01*
X545356Y226976D01*
X545228Y226000D01*
X545356Y225024D01*
X545733Y224114D01*
X546333Y223333D01*
X547114Y222733D01*
X548024Y222356D01*
X549000Y222228D01*
X549976Y222356D01*
X550886Y222733D01*
X551667Y223333D01*
X552267Y224114D01*
X552644Y225024D01*
X552772Y226000D01*
X552644Y226976D01*
X552267Y227886D01*
X551667Y228667D01*
X550886Y229267D01*
X549976Y229644D01*
X549000Y229772D01*
D02*
G37*
G36*
X559000D02*
X558024Y229644D01*
X557114Y229267D01*
X556332Y228667D01*
X555733Y227886D01*
X555356Y226976D01*
X555228Y226000D01*
X555356Y225024D01*
X555733Y224114D01*
X556332Y223333D01*
X557114Y222733D01*
X558024Y222356D01*
X559000Y222228D01*
X559976Y222356D01*
X560886Y222733D01*
X561667Y223333D01*
X562267Y224114D01*
X562644Y225024D01*
X562772Y226000D01*
X562644Y226976D01*
X562267Y227886D01*
X561667Y228667D01*
X560886Y229267D01*
X559976Y229644D01*
X559000Y229772D01*
D02*
G37*
G36*
X520500Y208375D02*
X519626Y208260D01*
X518812Y207923D01*
X518113Y207387D01*
X517577Y206688D01*
X517240Y205874D01*
X517125Y205000D01*
X517240Y204126D01*
X517577Y203312D01*
X518113Y202613D01*
X518812Y202077D01*
X519626Y201740D01*
X520500Y201625D01*
X521374Y201740D01*
X522188Y202077D01*
X522887Y202613D01*
X523423Y203312D01*
X523760Y204126D01*
X523875Y205000D01*
X523760Y205874D01*
X523423Y206688D01*
X522887Y207387D01*
X522188Y207923D01*
X521374Y208260D01*
X520500Y208375D01*
D02*
G37*
G36*
X529000Y169272D02*
X528024Y169144D01*
X527114Y168767D01*
X526333Y168167D01*
X525733Y167386D01*
X525356Y166476D01*
X525228Y165500D01*
X525356Y164524D01*
X525733Y163614D01*
X526333Y162832D01*
X527114Y162233D01*
X528024Y161856D01*
X529000Y161728D01*
X529976Y161856D01*
X530886Y162233D01*
X531668Y162832D01*
X532267Y163614D01*
X532644Y164524D01*
X532772Y165500D01*
X532644Y166476D01*
X532267Y167386D01*
X531668Y168167D01*
X530886Y168767D01*
X529976Y169144D01*
X529000Y169272D01*
D02*
G37*
G36*
X539000D02*
X538024Y169144D01*
X537114Y168767D01*
X536333Y168167D01*
X535733Y167386D01*
X535356Y166476D01*
X535228Y165500D01*
X535356Y164524D01*
X535733Y163614D01*
X536333Y162832D01*
X537114Y162233D01*
X538024Y161856D01*
X539000Y161728D01*
X539976Y161856D01*
X540886Y162233D01*
X541668Y162832D01*
X542267Y163614D01*
X542644Y164524D01*
X542772Y165500D01*
X542644Y166476D01*
X542267Y167386D01*
X541668Y168167D01*
X540886Y168767D01*
X539976Y169144D01*
X539000Y169272D01*
D02*
G37*
G36*
X519000D02*
X518024Y169144D01*
X517114Y168767D01*
X516332Y168167D01*
X515733Y167386D01*
X515356Y166476D01*
X515228Y165500D01*
X515356Y164524D01*
X515733Y163614D01*
X516332Y162832D01*
X517114Y162233D01*
X518024Y161856D01*
X519000Y161728D01*
X519976Y161856D01*
X520886Y162233D01*
X521667Y162832D01*
X522267Y163614D01*
X522644Y164524D01*
X522772Y165500D01*
X522644Y166476D01*
X522267Y167386D01*
X521667Y168167D01*
X520886Y168767D01*
X519976Y169144D01*
X519000Y169272D01*
D02*
G37*
G36*
X489000D02*
X488024Y169144D01*
X487114Y168767D01*
X486333Y168167D01*
X485733Y167386D01*
X485356Y166476D01*
X485228Y165500D01*
X485356Y164524D01*
X485733Y163614D01*
X486333Y162832D01*
X487114Y162233D01*
X488024Y161856D01*
X489000Y161728D01*
X489976Y161856D01*
X490886Y162233D01*
X491668Y162832D01*
X492267Y163614D01*
X492644Y164524D01*
X492772Y165500D01*
X492644Y166476D01*
X492267Y167386D01*
X491668Y168167D01*
X490886Y168767D01*
X489976Y169144D01*
X489000Y169272D01*
D02*
G37*
G36*
X509000D02*
X508024Y169144D01*
X507114Y168767D01*
X506332Y168167D01*
X505733Y167386D01*
X505356Y166476D01*
X505228Y165500D01*
X505356Y164524D01*
X505733Y163614D01*
X506332Y162832D01*
X507114Y162233D01*
X508024Y161856D01*
X509000Y161728D01*
X509976Y161856D01*
X510886Y162233D01*
X511667Y162832D01*
X512267Y163614D01*
X512644Y164524D01*
X512772Y165500D01*
X512644Y166476D01*
X512267Y167386D01*
X511667Y168167D01*
X510886Y168767D01*
X509976Y169144D01*
X509000Y169272D01*
D02*
G37*
G36*
X549000D02*
X548024Y169144D01*
X547114Y168767D01*
X546333Y168167D01*
X545733Y167386D01*
X545356Y166476D01*
X545228Y165500D01*
X545356Y164524D01*
X545733Y163614D01*
X546333Y162832D01*
X547114Y162233D01*
X548024Y161856D01*
X549000Y161728D01*
X549976Y161856D01*
X550886Y162233D01*
X551667Y162832D01*
X552267Y163614D01*
X552644Y164524D01*
X552772Y165500D01*
X552644Y166476D01*
X552267Y167386D01*
X551667Y168167D01*
X550886Y168767D01*
X549976Y169144D01*
X549000Y169272D01*
D02*
G37*
G36*
X438500Y169421D02*
X437968Y169351D01*
X437007Y168953D01*
X436181Y168319D01*
X435547Y167493D01*
X435149Y166532D01*
X435079Y166000D01*
X438500D01*
Y169421D01*
D02*
G37*
G36*
X270000Y250753D02*
X269142Y250640D01*
X268342Y250309D01*
X267655Y249782D01*
X267128Y249095D01*
X266797Y248295D01*
X266684Y247437D01*
X266797Y246579D01*
X267128Y245779D01*
X267655Y245092D01*
X268342Y244566D01*
X269142Y244234D01*
X269484Y244189D01*
Y243685D01*
X269142Y243640D01*
X268342Y243309D01*
X267655Y242782D01*
X267128Y242095D01*
X266797Y241295D01*
X266684Y240437D01*
X266797Y239579D01*
X267128Y238779D01*
X267655Y238092D01*
X268342Y237565D01*
X269142Y237234D01*
X269245Y237221D01*
Y236716D01*
X269142Y236703D01*
X268342Y236371D01*
X267655Y235845D01*
X267128Y235158D01*
X266797Y234358D01*
X266684Y233500D01*
X266797Y232642D01*
X267128Y231842D01*
X267655Y231155D01*
X268342Y230628D01*
X269142Y230297D01*
X269723Y230221D01*
Y229716D01*
X269142Y229640D01*
X268342Y229309D01*
X267655Y228782D01*
X267128Y228095D01*
X266797Y227295D01*
X266684Y226437D01*
X266797Y225579D01*
X267128Y224779D01*
X267655Y224092D01*
X268342Y223566D01*
X269142Y223234D01*
X269484Y223189D01*
Y222685D01*
X269142Y222640D01*
X268342Y222309D01*
X267655Y221782D01*
X267128Y221095D01*
X266797Y220295D01*
X266684Y219437D01*
X266797Y218579D01*
X267128Y217779D01*
X267655Y217092D01*
X268342Y216565D01*
X269142Y216234D01*
X269484Y216189D01*
Y215685D01*
X269142Y215640D01*
X268342Y215309D01*
X267655Y214782D01*
X267128Y214095D01*
X266797Y213295D01*
X266684Y212437D01*
X266797Y211579D01*
X267128Y210779D01*
X267655Y210092D01*
X268342Y209565D01*
X269142Y209234D01*
X269484Y209189D01*
Y208685D01*
X269142Y208640D01*
X268342Y208309D01*
X267655Y207782D01*
X267128Y207095D01*
X267091Y207004D01*
X193937D01*
X193337Y206885D01*
X192829Y206545D01*
X179351Y193068D01*
X34020D01*
X33420Y192948D01*
X32911Y192608D01*
X21016Y180713D01*
X20674Y180855D01*
X19685Y180985D01*
X18696Y180855D01*
X17775Y180474D01*
X16984Y179867D01*
X16377Y179075D01*
X15995Y178154D01*
X15865Y177165D01*
X15995Y176177D01*
X16377Y175255D01*
X16984Y174464D01*
X17775Y173857D01*
X18696Y173475D01*
X19685Y173345D01*
X20674Y173475D01*
X21595Y173857D01*
X22386Y174464D01*
X22993Y175255D01*
X23375Y176177D01*
X23505Y177165D01*
X23375Y178154D01*
X23233Y178497D01*
X34669Y189933D01*
X108268D01*
X108475Y189433D01*
X99756Y180713D01*
X99414Y180855D01*
X98425Y180985D01*
X97436Y180855D01*
X96515Y180474D01*
X95724Y179867D01*
X95117Y179075D01*
X94735Y178154D01*
X94605Y177165D01*
X94735Y176177D01*
X95117Y175255D01*
X95724Y174464D01*
X96515Y173857D01*
X97436Y173475D01*
X98425Y173345D01*
X99414Y173475D01*
X100335Y173857D01*
X101126Y174464D01*
X101734Y175255D01*
X102115Y176177D01*
X102245Y177165D01*
X102115Y178154D01*
X101973Y178497D01*
X110409Y186933D01*
X184205D01*
X184383Y186470D01*
X184377Y186433D01*
X183892Y186108D01*
X178497Y180713D01*
X178154Y180855D01*
X177165Y180985D01*
X176177Y180855D01*
X175255Y180474D01*
X174464Y179867D01*
X173857Y179075D01*
X173475Y178154D01*
X173345Y177165D01*
X173475Y176177D01*
X173857Y175255D01*
X174464Y174464D01*
X175255Y173857D01*
X176177Y173475D01*
X177165Y173345D01*
X178154Y173475D01*
X179075Y173857D01*
X179867Y174464D01*
X180474Y175255D01*
X180855Y176177D01*
X180985Y177165D01*
X180855Y178154D01*
X180713Y178497D01*
X185649Y183432D01*
X304500D01*
X305100Y183552D01*
X305608Y183892D01*
X312608Y190892D01*
X312948Y191400D01*
X313068Y192000D01*
Y199000D01*
X312948Y199600D01*
X312608Y200108D01*
X292171Y220545D01*
X291663Y220885D01*
X291063Y221005D01*
X272909D01*
X272871Y221095D01*
X272345Y221782D01*
X271658Y222309D01*
X270858Y222640D01*
X270516Y222685D01*
Y223189D01*
X270858Y223234D01*
X271658Y223566D01*
X272345Y224092D01*
X272871Y224779D01*
X272909Y224869D01*
X288914D01*
X315932Y197851D01*
Y190149D01*
X304516Y178733D01*
X259356D01*
X259214Y179075D01*
X258607Y179867D01*
X257816Y180474D01*
X256894Y180855D01*
X255906Y180985D01*
X254917Y180855D01*
X253995Y180474D01*
X253204Y179867D01*
X252597Y179075D01*
X252216Y178154D01*
X252085Y177165D01*
X252216Y176177D01*
X252597Y175255D01*
X253204Y174464D01*
X253995Y173857D01*
X254917Y173475D01*
X255906Y173345D01*
X256894Y173475D01*
X257816Y173857D01*
X258607Y174464D01*
X259214Y175255D01*
X259356Y175598D01*
X305165D01*
X305765Y175717D01*
X306274Y176057D01*
X318608Y188392D01*
X318948Y188900D01*
X319068Y189500D01*
Y198500D01*
X318948Y199100D01*
X318608Y199608D01*
X290671Y227545D01*
X290163Y227885D01*
X289563Y228005D01*
X272909D01*
X272871Y228095D01*
X272345Y228782D01*
X271658Y229309D01*
X270858Y229640D01*
X270277Y229716D01*
Y230221D01*
X270858Y230297D01*
X271658Y230628D01*
X272345Y231155D01*
X272871Y231842D01*
X272909Y231932D01*
X288351D01*
X320933Y199351D01*
Y189311D01*
X321052Y188711D01*
X321392Y188203D01*
X331098Y178497D01*
X330956Y178154D01*
X330826Y177165D01*
X330956Y176177D01*
X331337Y175255D01*
X331944Y174464D01*
X332736Y173857D01*
X333657Y173475D01*
X334646Y173345D01*
X335634Y173475D01*
X336556Y173857D01*
X337347Y174464D01*
X337954Y175255D01*
X338336Y176177D01*
X338466Y177165D01*
X338336Y178154D01*
X337954Y179075D01*
X337347Y179867D01*
X336556Y180474D01*
X335634Y180855D01*
X334646Y180985D01*
X333657Y180855D01*
X333314Y180713D01*
X324067Y189960D01*
Y200000D01*
X323948Y200600D01*
X323608Y201108D01*
X304746Y219970D01*
X304938Y220432D01*
X319790D01*
X320390Y220552D01*
X320899Y220892D01*
X325718Y225711D01*
X326246Y225532D01*
X326297Y225142D01*
X326628Y224342D01*
X327155Y223655D01*
X327842Y223129D01*
X328187Y222985D01*
Y209015D01*
X327842Y208872D01*
X327155Y208345D01*
X326628Y207658D01*
X326297Y206858D01*
X326184Y206000D01*
X326297Y205142D01*
X326628Y204342D01*
X327155Y203655D01*
X327842Y203129D01*
X328642Y202797D01*
X329500Y202684D01*
X330358Y202797D01*
X331158Y203129D01*
X331845Y203655D01*
X332371Y204342D01*
X332703Y205142D01*
X332762Y205593D01*
X333262Y205560D01*
Y202219D01*
X333142Y202203D01*
X332342Y201871D01*
X331655Y201345D01*
X331129Y200658D01*
X330797Y199858D01*
X330684Y199000D01*
X330797Y198142D01*
X331129Y197342D01*
X331655Y196655D01*
X332342Y196128D01*
X333142Y195797D01*
X334000Y195684D01*
X334858Y195797D01*
X335658Y196128D01*
X336345Y196655D01*
X336872Y197342D01*
X337203Y198142D01*
X337316Y199000D01*
X337203Y199858D01*
X336872Y200658D01*
X336345Y201345D01*
X335887Y201695D01*
Y218016D01*
X336158Y218128D01*
X336845Y218655D01*
X337371Y219342D01*
X337703Y220142D01*
X337816Y221000D01*
X337703Y221858D01*
X337371Y222658D01*
X336845Y223345D01*
X336158Y223871D01*
X335358Y224203D01*
X334500Y224316D01*
X333642Y224203D01*
X332842Y223871D01*
X332358Y223500D01*
X332352Y223496D01*
X331996Y223852D01*
X332000Y223858D01*
X332371Y224342D01*
X332703Y225142D01*
X332816Y226000D01*
X332703Y226858D01*
X332371Y227658D01*
X331845Y228345D01*
X331158Y228871D01*
X330358Y229203D01*
X329968Y229254D01*
X329789Y229782D01*
X330940Y230932D01*
X404351D01*
X411818Y223465D01*
Y180615D01*
X411476Y180474D01*
X410685Y179867D01*
X410077Y179075D01*
X409696Y178154D01*
X409566Y177165D01*
X409696Y176177D01*
X410077Y175255D01*
X410685Y174464D01*
X411476Y173857D01*
X412397Y173475D01*
X413386Y173345D01*
X414374Y173475D01*
X415296Y173857D01*
X416087Y174464D01*
X416694Y175255D01*
X417076Y176177D01*
X417206Y177165D01*
X417076Y178154D01*
X416694Y179075D01*
X416087Y179867D01*
X415296Y180474D01*
X414953Y180615D01*
Y224114D01*
X414834Y224714D01*
X414494Y225223D01*
X406746Y232970D01*
X406938Y233433D01*
X408351D01*
X411892Y229892D01*
X412400Y229552D01*
X413000Y229433D01*
X425260D01*
Y222260D01*
X432740D01*
Y229433D01*
X436508D01*
X436678Y228932D01*
X436333Y228667D01*
X435733Y227886D01*
X435356Y226976D01*
X435228Y226000D01*
X435356Y225024D01*
X435733Y224114D01*
X436333Y223333D01*
X437114Y222733D01*
X438024Y222356D01*
X439000Y222228D01*
X439976Y222356D01*
X440886Y222733D01*
X441668Y223333D01*
X442267Y224114D01*
X442644Y225024D01*
X442772Y226000D01*
X442644Y226976D01*
X442267Y227886D01*
X441668Y228667D01*
X441322Y228932D01*
X441492Y229433D01*
X446508D01*
X446678Y228932D01*
X446333Y228667D01*
X445733Y227886D01*
X445356Y226976D01*
X445228Y226000D01*
X445356Y225024D01*
X445733Y224114D01*
X446333Y223333D01*
X447114Y222733D01*
X448024Y222356D01*
X449000Y222228D01*
X449976Y222356D01*
X450886Y222733D01*
X451667Y223333D01*
X452267Y224114D01*
X452644Y225024D01*
X452772Y226000D01*
X452644Y226976D01*
X452267Y227886D01*
X451667Y228667D01*
X451322Y228932D01*
X451492Y229433D01*
X456202D01*
X456363Y228959D01*
X456181Y228819D01*
X455547Y227993D01*
X455149Y227032D01*
X455079Y226500D01*
X462921D01*
X462851Y227032D01*
X462453Y227993D01*
X461819Y228819D01*
X461637Y228959D01*
X461798Y229433D01*
X466508D01*
X466678Y228932D01*
X466332Y228667D01*
X465733Y227886D01*
X465356Y226976D01*
X465228Y226000D01*
X465356Y225024D01*
X465733Y224114D01*
X466332Y223333D01*
X467114Y222733D01*
X468024Y222356D01*
X469000Y222228D01*
X469976Y222356D01*
X470886Y222733D01*
X471667Y223333D01*
X472267Y224114D01*
X472644Y225024D01*
X472772Y226000D01*
X472644Y226976D01*
X472267Y227886D01*
X471667Y228667D01*
X471322Y228932D01*
X471492Y229433D01*
X476508D01*
X476678Y228932D01*
X476333Y228667D01*
X475733Y227886D01*
X475356Y226976D01*
X475228Y226000D01*
X475356Y225024D01*
X475733Y224114D01*
X476333Y223333D01*
X477114Y222733D01*
X478024Y222356D01*
X479000Y222228D01*
X479976Y222356D01*
X480886Y222733D01*
X481668Y223333D01*
X482267Y224114D01*
X482644Y225024D01*
X482772Y226000D01*
X482644Y226976D01*
X482267Y227886D01*
X481668Y228667D01*
X481322Y228932D01*
X481492Y229433D01*
X486508D01*
X486678Y228932D01*
X486333Y228667D01*
X485733Y227886D01*
X485356Y226976D01*
X485228Y226000D01*
X485356Y225024D01*
X485733Y224114D01*
X486333Y223333D01*
X487114Y222733D01*
X488024Y222356D01*
X489000Y222228D01*
X489976Y222356D01*
X490886Y222733D01*
X491668Y223333D01*
X491932Y223678D01*
X492432Y223508D01*
Y221649D01*
X490392Y219608D01*
X490052Y219100D01*
X489932Y218500D01*
Y180256D01*
X489425Y179867D01*
X488818Y179075D01*
X488436Y178154D01*
X488306Y177165D01*
X488436Y176177D01*
X488818Y175255D01*
X489425Y174464D01*
X490216Y173857D01*
X490323Y173813D01*
X490224Y173313D01*
X450043D01*
X449852Y173775D01*
X460289Y184211D01*
X460289Y184211D01*
X460684Y184803D01*
X460822Y185500D01*
Y222476D01*
X460993Y222547D01*
X461819Y223181D01*
X462453Y224007D01*
X462851Y224968D01*
X462921Y225500D01*
X455079D01*
X455149Y224968D01*
X455547Y224007D01*
X456181Y223181D01*
X457007Y222547D01*
X457178Y222476D01*
Y186255D01*
X444211Y173289D01*
X444011Y172989D01*
X443711Y172789D01*
X440203Y169280D01*
X440032Y169351D01*
X439500Y169421D01*
Y166000D01*
X442921D01*
X442851Y166532D01*
X442780Y166703D01*
X446289Y170211D01*
X446489Y170511D01*
X446753Y170687D01*
X501500D01*
X502002Y170787D01*
X502428Y171072D01*
X515044Y183687D01*
X517191D01*
X517391Y183205D01*
X517962Y182462D01*
X518705Y181891D01*
X519571Y181533D01*
X520000Y181476D01*
Y185000D01*
Y188524D01*
X519571Y188467D01*
X518705Y188109D01*
X517962Y187538D01*
X517391Y186795D01*
X517191Y186313D01*
X514500D01*
X513998Y186213D01*
X513572Y185928D01*
X500956Y173313D01*
X494028D01*
X493929Y173813D01*
X494036Y173857D01*
X494827Y174464D01*
X495434Y175255D01*
X495816Y176177D01*
X495946Y177165D01*
X495816Y178154D01*
X495434Y179075D01*
X494827Y179867D01*
X494036Y180474D01*
X493115Y180855D01*
X493068Y180861D01*
Y217851D01*
X495108Y219892D01*
X495448Y220400D01*
X495568Y221000D01*
Y223508D01*
X496067Y223678D01*
X496333Y223333D01*
X497114Y222733D01*
X498024Y222356D01*
X499000Y222228D01*
X499976Y222356D01*
X500886Y222733D01*
X501667Y223333D01*
X502267Y224114D01*
X502644Y225024D01*
X502772Y226000D01*
X502644Y226976D01*
X502267Y227886D01*
X501667Y228667D01*
X500886Y229267D01*
X499976Y229644D01*
X499000Y229772D01*
X498024Y229644D01*
X497114Y229267D01*
X496333Y228667D01*
X495900Y228104D01*
X495869Y228094D01*
X495322Y228138D01*
X495108Y228458D01*
X491458Y232108D01*
X490950Y232448D01*
X490350Y232568D01*
X413649D01*
X410108Y236108D01*
X409600Y236448D01*
X409000Y236567D01*
X349468D01*
X349299Y237068D01*
X349657Y237343D01*
X350184Y238030D01*
X350222Y238120D01*
X409163D01*
X413392Y233892D01*
X413900Y233552D01*
X414500Y233433D01*
X570851D01*
X574433Y229851D01*
Y186047D01*
X573967Y185929D01*
X573609Y186795D01*
X573038Y187538D01*
X572295Y188109D01*
X571429Y188467D01*
X571000Y188524D01*
Y185000D01*
X570000D01*
Y188524D01*
X569571Y188467D01*
X568705Y188109D01*
X567962Y187538D01*
X567391Y186795D01*
X567191Y186313D01*
X523809D01*
X523609Y186795D01*
X523038Y187538D01*
X522295Y188109D01*
X521429Y188467D01*
X521000Y188524D01*
Y185000D01*
Y181476D01*
X521429Y181533D01*
X522295Y181891D01*
X523038Y182462D01*
X523609Y183205D01*
X523809Y183687D01*
X567191D01*
X567391Y183205D01*
X567962Y182462D01*
X568705Y181891D01*
X569571Y181533D01*
X570381Y181426D01*
Y180922D01*
X569877Y180855D01*
X568956Y180474D01*
X568165Y179867D01*
X567558Y179075D01*
X567176Y178154D01*
X567046Y177165D01*
X567176Y176177D01*
X567558Y175255D01*
X568165Y174464D01*
X568956Y173857D01*
X569877Y173475D01*
X570866Y173345D01*
X571855Y173475D01*
X572776Y173857D01*
X573567Y174464D01*
X574174Y175255D01*
X574556Y176177D01*
X574686Y177165D01*
X574556Y178154D01*
X574414Y178497D01*
X577108Y181191D01*
X577448Y181699D01*
X577567Y182299D01*
Y230500D01*
X577448Y231100D01*
X577108Y231608D01*
X572608Y236108D01*
X572100Y236448D01*
X571500Y236567D01*
X415149D01*
X410921Y240796D01*
X410413Y241136D01*
X409813Y241255D01*
X350222D01*
X350184Y241345D01*
X349657Y242032D01*
X348971Y242559D01*
X348171Y242890D01*
X347313Y243003D01*
X346454Y242890D01*
X345655Y242559D01*
X344968Y242032D01*
X344441Y241345D01*
X344110Y240546D01*
X343997Y239687D01*
X344110Y238829D01*
X344441Y238030D01*
X344968Y237343D01*
X345327Y237068D01*
X345157Y236567D01*
X329555D01*
X328956Y236448D01*
X328447Y236108D01*
X318869Y226530D01*
X314582D01*
X314361Y226979D01*
X314557Y227235D01*
X314910Y228086D01*
X314964Y228500D01*
X308036D01*
X308090Y228086D01*
X308443Y227235D01*
X308639Y226979D01*
X308418Y226530D01*
X304656D01*
X292003Y239183D01*
X291495Y239523D01*
X290895Y239642D01*
X280012D01*
X273165Y246488D01*
X273203Y246579D01*
X273316Y247437D01*
X273203Y248295D01*
X272871Y249095D01*
X272345Y249782D01*
X271658Y250309D01*
X270858Y250640D01*
X270000Y250753D01*
D02*
G37*
G36*
X432740Y169240D02*
X425260D01*
Y161760D01*
X432740D01*
Y169240D01*
D02*
G37*
G36*
X559000Y169272D02*
X558024Y169144D01*
X557114Y168767D01*
X556332Y168167D01*
X555733Y167386D01*
X555356Y166476D01*
X555228Y165500D01*
X555356Y164524D01*
X555733Y163614D01*
X556332Y162832D01*
X557114Y162233D01*
X558024Y161856D01*
X559000Y161728D01*
X559976Y161856D01*
X560886Y162233D01*
X561667Y162832D01*
X562267Y163614D01*
X562644Y164524D01*
X562772Y165500D01*
X562644Y166476D01*
X562267Y167386D01*
X561667Y168167D01*
X560886Y168767D01*
X559976Y169144D01*
X559000Y169272D01*
D02*
G37*
G36*
X569000D02*
X568024Y169144D01*
X567114Y168767D01*
X566332Y168167D01*
X565733Y167386D01*
X565356Y166476D01*
X565228Y165500D01*
X565356Y164524D01*
X565733Y163614D01*
X566332Y162832D01*
X567114Y162233D01*
X568024Y161856D01*
X569000Y161728D01*
X569976Y161856D01*
X570886Y162233D01*
X571667Y162832D01*
X572267Y163614D01*
X572644Y164524D01*
X572772Y165500D01*
X572644Y166476D01*
X572267Y167386D01*
X571667Y168167D01*
X570886Y168767D01*
X569976Y169144D01*
X569000Y169272D01*
D02*
G37*
G36*
X539000Y71772D02*
X538024Y71644D01*
X537114Y71267D01*
X536333Y70667D01*
X535733Y69886D01*
X535356Y68976D01*
X535228Y68000D01*
X535356Y67024D01*
X535733Y66114D01*
X536333Y65333D01*
X537114Y64733D01*
X538024Y64356D01*
X539000Y64228D01*
X539976Y64356D01*
X540886Y64733D01*
X541668Y65333D01*
X542267Y66114D01*
X542644Y67024D01*
X542772Y68000D01*
X542644Y68976D01*
X542267Y69886D01*
X541668Y70667D01*
X540886Y71267D01*
X539976Y71644D01*
X539000Y71772D01*
D02*
G37*
G36*
X549000D02*
X548024Y71644D01*
X547114Y71267D01*
X546333Y70667D01*
X545733Y69886D01*
X545356Y68976D01*
X545228Y68000D01*
X545356Y67024D01*
X545733Y66114D01*
X546333Y65333D01*
X547114Y64733D01*
X548024Y64356D01*
X549000Y64228D01*
X549976Y64356D01*
X550886Y64733D01*
X551667Y65333D01*
X552267Y66114D01*
X552644Y67024D01*
X552772Y68000D01*
X552644Y68976D01*
X552267Y69886D01*
X551667Y70667D01*
X550886Y71267D01*
X549976Y71644D01*
X549000Y71772D01*
D02*
G37*
G36*
X529000D02*
X528024Y71644D01*
X527114Y71267D01*
X526333Y70667D01*
X525733Y69886D01*
X525356Y68976D01*
X525228Y68000D01*
X525356Y67024D01*
X525733Y66114D01*
X526333Y65333D01*
X527114Y64733D01*
X528024Y64356D01*
X529000Y64228D01*
X529976Y64356D01*
X530886Y64733D01*
X531668Y65333D01*
X532267Y66114D01*
X532644Y67024D01*
X532772Y68000D01*
X532644Y68976D01*
X532267Y69886D01*
X531668Y70667D01*
X530886Y71267D01*
X529976Y71644D01*
X529000Y71772D01*
D02*
G37*
G36*
X509000D02*
X508024Y71644D01*
X507114Y71267D01*
X506332Y70667D01*
X505733Y69886D01*
X505356Y68976D01*
X505228Y68000D01*
X505356Y67024D01*
X505733Y66114D01*
X506332Y65333D01*
X507114Y64733D01*
X508024Y64356D01*
X509000Y64228D01*
X509976Y64356D01*
X510886Y64733D01*
X511667Y65333D01*
X512267Y66114D01*
X512644Y67024D01*
X512772Y68000D01*
X512644Y68976D01*
X512267Y69886D01*
X511667Y70667D01*
X510886Y71267D01*
X509976Y71644D01*
X509000Y71772D01*
D02*
G37*
G36*
X519000D02*
X518024Y71644D01*
X517114Y71267D01*
X516332Y70667D01*
X515733Y69886D01*
X515356Y68976D01*
X515228Y68000D01*
X515356Y67024D01*
X515733Y66114D01*
X516332Y65333D01*
X517114Y64733D01*
X518024Y64356D01*
X519000Y64228D01*
X519976Y64356D01*
X520886Y64733D01*
X521667Y65333D01*
X522267Y66114D01*
X522644Y67024D01*
X522772Y68000D01*
X522644Y68976D01*
X522267Y69886D01*
X521667Y70667D01*
X520886Y71267D01*
X519976Y71644D01*
X519000Y71772D01*
D02*
G37*
G36*
X559000D02*
X558024Y71644D01*
X557114Y71267D01*
X556332Y70667D01*
X555733Y69886D01*
X555356Y68976D01*
X555228Y68000D01*
X555356Y67024D01*
X555733Y66114D01*
X556332Y65333D01*
X557114Y64733D01*
X558024Y64356D01*
X559000Y64228D01*
X559976Y64356D01*
X560886Y64733D01*
X561667Y65333D01*
X562267Y66114D01*
X562644Y67024D01*
X562772Y68000D01*
X562644Y68976D01*
X562267Y69886D01*
X561667Y70667D01*
X560886Y71267D01*
X559976Y71644D01*
X559000Y71772D01*
D02*
G37*
G36*
X314964Y71000D02*
X312000D01*
Y68036D01*
X312414Y68090D01*
X313265Y68443D01*
X313996Y69004D01*
X314557Y69735D01*
X314910Y70586D01*
X314964Y71000D01*
D02*
G37*
G36*
X458500Y71921D02*
X457968Y71851D01*
X457007Y71453D01*
X456181Y70819D01*
X455547Y69993D01*
X455149Y69032D01*
X455079Y68500D01*
X458500D01*
Y71921D01*
D02*
G37*
G36*
X311000Y71000D02*
X308036D01*
X308090Y70586D01*
X308443Y69735D01*
X309004Y69004D01*
X309735Y68443D01*
X310586Y68090D01*
X311000Y68036D01*
Y71000D01*
D02*
G37*
G36*
X569000Y71772D02*
X568024Y71644D01*
X567114Y71267D01*
X566332Y70667D01*
X565733Y69886D01*
X565356Y68976D01*
X565228Y68000D01*
X565356Y67024D01*
X565733Y66114D01*
X566332Y65333D01*
X567114Y64733D01*
X568024Y64356D01*
X569000Y64228D01*
X569976Y64356D01*
X570886Y64733D01*
X571667Y65333D01*
X572267Y66114D01*
X572644Y67024D01*
X572772Y68000D01*
X572644Y68976D01*
X572267Y69886D01*
X571667Y70667D01*
X570886Y71267D01*
X569976Y71644D01*
X569000Y71772D01*
D02*
G37*
G36*
X432740Y71740D02*
X425260D01*
Y64260D01*
X432740D01*
Y71740D01*
D02*
G37*
G36*
X499000Y71772D02*
X498024Y71644D01*
X497114Y71267D01*
X496333Y70667D01*
X495733Y69886D01*
X495356Y68976D01*
X495228Y68000D01*
X495356Y67024D01*
X495733Y66114D01*
X496333Y65333D01*
X497114Y64733D01*
X498024Y64356D01*
X499000Y64228D01*
X499976Y64356D01*
X500886Y64733D01*
X501667Y65333D01*
X502267Y66114D01*
X502644Y67024D01*
X502772Y68000D01*
X502644Y68976D01*
X502267Y69886D01*
X501667Y70667D01*
X500886Y71267D01*
X499976Y71644D01*
X499000Y71772D01*
D02*
G37*
G36*
X19685Y102245D02*
X18696Y102115D01*
X17775Y101734D01*
X16984Y101126D01*
X16377Y100335D01*
X15995Y99414D01*
X15865Y98425D01*
X15995Y97436D01*
X16377Y96515D01*
X16984Y95724D01*
X17775Y95117D01*
X18696Y94735D01*
X19685Y94605D01*
X20674Y94735D01*
X21595Y95117D01*
X22386Y95724D01*
X22993Y96515D01*
X23135Y96858D01*
X87925D01*
X91932Y92851D01*
Y57000D01*
X92052Y56400D01*
X92392Y55892D01*
X101392Y46892D01*
X101900Y46552D01*
X102500Y46433D01*
X109591D01*
X109628Y46342D01*
X110155Y45655D01*
X110842Y45129D01*
X111642Y44797D01*
X112500Y44684D01*
X113358Y44797D01*
X114158Y45129D01*
X114845Y45655D01*
X115372Y46342D01*
X115703Y47142D01*
X115816Y48000D01*
X115703Y48858D01*
X115372Y49658D01*
X114845Y50345D01*
X114158Y50871D01*
X113358Y51203D01*
X112500Y51316D01*
X111642Y51203D01*
X110842Y50871D01*
X110155Y50345D01*
X109628Y49658D01*
X109591Y49567D01*
X103149D01*
X95068Y57649D01*
Y93500D01*
X94948Y94100D01*
X94608Y94608D01*
X89683Y99534D01*
X89175Y99873D01*
X88575Y99993D01*
X23135D01*
X22993Y100335D01*
X22386Y101126D01*
X21595Y101734D01*
X20674Y102115D01*
X19685Y102245D01*
D02*
G37*
G36*
X458500Y67500D02*
X455079D01*
X455149Y66968D01*
X455547Y66007D01*
X456181Y65181D01*
X457007Y64547D01*
X457968Y64149D01*
X458500Y64079D01*
Y67500D01*
D02*
G37*
G36*
X374016Y35316D02*
X373027Y35186D01*
X372106Y34804D01*
X371315Y34197D01*
X370707Y33406D01*
X370326Y32485D01*
X370196Y31496D01*
X370326Y30507D01*
X370707Y29586D01*
X371315Y28795D01*
X372106Y28188D01*
X373027Y27806D01*
X374016Y27676D01*
X375004Y27806D01*
X375926Y28188D01*
X376717Y28795D01*
X377324Y29586D01*
X377706Y30507D01*
X377836Y31496D01*
X377706Y32485D01*
X377324Y33406D01*
X376717Y34197D01*
X375926Y34804D01*
X375004Y35186D01*
X374016Y35316D01*
D02*
G37*
G36*
X560049Y15248D02*
X551681D01*
Y6880D01*
X552921Y7002D01*
X554594Y7510D01*
X556135Y8334D01*
X557486Y9443D01*
X558595Y10794D01*
X559419Y12336D01*
X559927Y14008D01*
X560049Y15248D01*
D02*
G37*
G36*
X551681Y24616D02*
Y16248D01*
X560049D01*
X559927Y17488D01*
X559419Y19160D01*
X558595Y20702D01*
X557486Y22053D01*
X556135Y23162D01*
X554594Y23986D01*
X552921Y24494D01*
X551681Y24616D01*
D02*
G37*
G36*
X462921Y67500D02*
X459500D01*
Y64079D01*
X460032Y64149D01*
X460993Y64547D01*
X461819Y65181D01*
X462453Y66007D01*
X462851Y66968D01*
X462921Y67500D01*
D02*
G37*
G36*
X479000Y71772D02*
X478024Y71644D01*
X477114Y71267D01*
X476333Y70667D01*
X475733Y69886D01*
X475356Y68976D01*
X475228Y68000D01*
X475356Y67024D01*
X475733Y66114D01*
X476333Y65333D01*
X477114Y64733D01*
X478024Y64356D01*
X479000Y64228D01*
X479976Y64356D01*
X480886Y64733D01*
X481668Y65333D01*
X482267Y66114D01*
X482644Y67024D01*
X482772Y68000D01*
X482644Y68976D01*
X482267Y69886D01*
X481668Y70667D01*
X480886Y71267D01*
X479976Y71644D01*
X479000Y71772D01*
D02*
G37*
G36*
X489000D02*
X488024Y71644D01*
X487114Y71267D01*
X486333Y70667D01*
X485733Y69886D01*
X485356Y68976D01*
X485228Y68000D01*
X485356Y67024D01*
X485733Y66114D01*
X486333Y65333D01*
X487114Y64733D01*
X488024Y64356D01*
X489000Y64228D01*
X489976Y64356D01*
X490886Y64733D01*
X491668Y65333D01*
X492267Y66114D01*
X492644Y67024D01*
X492772Y68000D01*
X492644Y68976D01*
X492267Y69886D01*
X491668Y70667D01*
X490886Y71267D01*
X489976Y71644D01*
X489000Y71772D01*
D02*
G37*
G36*
X469000D02*
X468024Y71644D01*
X467114Y71267D01*
X466332Y70667D01*
X465733Y69886D01*
X465356Y68976D01*
X465228Y68000D01*
X465356Y67024D01*
X465733Y66114D01*
X466332Y65333D01*
X467114Y64733D01*
X468024Y64356D01*
X469000Y64228D01*
X469976Y64356D01*
X470886Y64733D01*
X471667Y65333D01*
X472267Y66114D01*
X472644Y67024D01*
X472772Y68000D01*
X472644Y68976D01*
X472267Y69886D01*
X471667Y70667D01*
X470886Y71267D01*
X469976Y71644D01*
X469000Y71772D01*
D02*
G37*
G36*
X439000D02*
X438024Y71644D01*
X437114Y71267D01*
X436333Y70667D01*
X435733Y69886D01*
X435356Y68976D01*
X435228Y68000D01*
X435356Y67024D01*
X435733Y66114D01*
X436333Y65333D01*
X437114Y64733D01*
X438024Y64356D01*
X439000Y64228D01*
X439976Y64356D01*
X440886Y64733D01*
X441668Y65333D01*
X442267Y66114D01*
X442644Y67024D01*
X442772Y68000D01*
X442644Y68976D01*
X442267Y69886D01*
X441668Y70667D01*
X440886Y71267D01*
X439976Y71644D01*
X439000Y71772D01*
D02*
G37*
G36*
X449000D02*
X448024Y71644D01*
X447114Y71267D01*
X446333Y70667D01*
X445733Y69886D01*
X445356Y68976D01*
X445228Y68000D01*
X445356Y67024D01*
X445733Y66114D01*
X446333Y65333D01*
X447114Y64733D01*
X448024Y64356D01*
X449000Y64228D01*
X449976Y64356D01*
X450886Y64733D01*
X451667Y65333D01*
X452267Y66114D01*
X452644Y67024D01*
X452772Y68000D01*
X452644Y68976D01*
X452267Y69886D01*
X451667Y70667D01*
X450886Y71267D01*
X449976Y71644D01*
X449000Y71772D01*
D02*
G37*
G36*
X459500Y71921D02*
Y68500D01*
X462921D01*
X462851Y69032D01*
X462453Y69993D01*
X461819Y70819D01*
X460993Y71453D01*
X460032Y71851D01*
X459500Y71921D01*
D02*
G37*
G36*
X432787Y90787D02*
X425213D01*
Y83213D01*
X432787D01*
Y90787D01*
D02*
G37*
G36*
X442964Y111000D02*
X436036D01*
X436090Y110586D01*
X436443Y109735D01*
X437004Y109004D01*
X437735Y108443D01*
X438180Y108258D01*
X438211Y108211D01*
X456173Y90250D01*
X456147Y89853D01*
X455506Y89017D01*
X455103Y88044D01*
X455031Y87500D01*
X462969D01*
X462897Y88044D01*
X462494Y89017D01*
X461853Y89853D01*
X461017Y90494D01*
X460698Y90626D01*
X460684Y90697D01*
X460289Y91289D01*
X460289Y91289D01*
X442247Y109330D01*
X442557Y109735D01*
X442910Y110586D01*
X442964Y111000D01*
D02*
G37*
G36*
X569000Y90820D02*
X568011Y90690D01*
X567090Y90308D01*
X566299Y89701D01*
X565692Y88910D01*
X565310Y87989D01*
X565180Y87000D01*
X565310Y86011D01*
X565692Y85090D01*
X566299Y84299D01*
X567090Y83692D01*
X568011Y83310D01*
X569000Y83180D01*
X569989Y83310D01*
X570910Y83692D01*
X571701Y84299D01*
X572308Y85090D01*
X572690Y86011D01*
X572820Y87000D01*
X572690Y87989D01*
X572308Y88910D01*
X571701Y89701D01*
X570910Y90308D01*
X569989Y90690D01*
X569000Y90820D01*
D02*
G37*
G36*
X549000Y106316D02*
X548142Y106203D01*
X547342Y105871D01*
X546655Y105345D01*
X546129Y104658D01*
X545797Y103858D01*
X545684Y103000D01*
X545797Y102142D01*
X546129Y101342D01*
X546655Y100655D01*
X547342Y100128D01*
X547687Y99985D01*
Y90556D01*
X547090Y90308D01*
X546299Y89701D01*
X545692Y88910D01*
X545310Y87989D01*
X545180Y87000D01*
X545310Y86011D01*
X545692Y85090D01*
X546299Y84299D01*
X547090Y83692D01*
X548011Y83310D01*
X549000Y83180D01*
X549989Y83310D01*
X550910Y83692D01*
X551701Y84299D01*
X552308Y85090D01*
X552690Y86011D01*
X552820Y87000D01*
X552690Y87989D01*
X552308Y88910D01*
X551701Y89701D01*
X550910Y90308D01*
X550313Y90556D01*
Y99985D01*
X550658Y100128D01*
X551345Y100655D01*
X551871Y101342D01*
X552203Y102142D01*
X552316Y103000D01*
X552203Y103858D01*
X551871Y104658D01*
X551345Y105345D01*
X550658Y105871D01*
X549858Y106203D01*
X549000Y106316D01*
D02*
G37*
G36*
X559000Y90820D02*
X558011Y90690D01*
X557090Y90308D01*
X556299Y89701D01*
X555692Y88910D01*
X555310Y87989D01*
X555180Y87000D01*
X555310Y86011D01*
X555692Y85090D01*
X556299Y84299D01*
X557090Y83692D01*
X558011Y83310D01*
X559000Y83180D01*
X559989Y83310D01*
X560910Y83692D01*
X561701Y84299D01*
X562308Y85090D01*
X562690Y86011D01*
X562820Y87000D01*
X562690Y87989D01*
X562308Y88910D01*
X561701Y89701D01*
X560910Y90308D01*
X559989Y90690D01*
X559000Y90820D01*
D02*
G37*
G36*
X459000Y150820D02*
X458011Y150690D01*
X457090Y150308D01*
X456299Y149701D01*
X455692Y148910D01*
X455310Y147989D01*
X455180Y147000D01*
X455310Y146011D01*
X455692Y145090D01*
X456299Y144299D01*
X457090Y143692D01*
X457687Y143444D01*
Y129000D01*
X457787Y128498D01*
X458072Y128072D01*
X464572Y121572D01*
X464998Y121287D01*
X465500Y121187D01*
X555456D01*
X575687Y100956D01*
Y97044D01*
X573660Y95016D01*
X573508Y95048D01*
X573387Y95586D01*
X573567Y95724D01*
X574174Y96515D01*
X574556Y97436D01*
X574686Y98425D01*
X574556Y99414D01*
X574174Y100335D01*
X573567Y101126D01*
X572776Y101734D01*
X571855Y102115D01*
X570866Y102245D01*
X569877Y102115D01*
X569535Y101973D01*
X552575Y118933D01*
X552066Y119273D01*
X551467Y119392D01*
X412325D01*
X411725Y119273D01*
X411216Y118933D01*
X398813Y106530D01*
X350379D01*
X350132Y107030D01*
X350372Y107342D01*
X350703Y108142D01*
X350816Y109000D01*
X350703Y109858D01*
X350372Y110658D01*
X349845Y111345D01*
X349158Y111872D01*
X348358Y112203D01*
X347500Y112316D01*
X346642Y112203D01*
X346297Y112060D01*
X344428Y113928D01*
X344002Y114213D01*
X343500Y114313D01*
X334515D01*
X334371Y114658D01*
X333845Y115345D01*
X333158Y115872D01*
X332358Y116203D01*
X332016Y116248D01*
Y116752D01*
X332358Y116797D01*
X333158Y117129D01*
X333845Y117655D01*
X334371Y118342D01*
X334515Y118687D01*
X343456D01*
X344440Y117703D01*
X344297Y117358D01*
X344184Y116500D01*
X344297Y115642D01*
X344629Y114842D01*
X345155Y114155D01*
X345842Y113628D01*
X346642Y113297D01*
X347500Y113184D01*
X348358Y113297D01*
X349158Y113628D01*
X349845Y114155D01*
X350372Y114842D01*
X350703Y115642D01*
X350816Y116500D01*
X350703Y117358D01*
X350372Y118158D01*
X349845Y118845D01*
X349158Y119371D01*
X348358Y119703D01*
X347500Y119816D01*
X346642Y119703D01*
X346297Y119560D01*
X344928Y120928D01*
X344502Y121213D01*
X344000Y121313D01*
X334515D01*
X334371Y121658D01*
X333845Y122345D01*
X333158Y122871D01*
X332358Y123203D01*
X331500Y123316D01*
X330642Y123203D01*
X329842Y122871D01*
X329155Y122345D01*
X328628Y121658D01*
X328297Y120858D01*
X328184Y120000D01*
X328297Y119142D01*
X328628Y118342D01*
X329155Y117655D01*
X329842Y117129D01*
X330642Y116797D01*
X330984Y116752D01*
Y116248D01*
X330642Y116203D01*
X329842Y115872D01*
X329155Y115345D01*
X328628Y114658D01*
X328297Y113858D01*
X328184Y113000D01*
X328297Y112142D01*
X328628Y111342D01*
X329155Y110655D01*
X329842Y110128D01*
X330642Y109797D01*
X331500Y109684D01*
X332358Y109797D01*
X333158Y110128D01*
X333845Y110655D01*
X334371Y111342D01*
X334515Y111687D01*
X342956D01*
X344440Y110203D01*
X344297Y109858D01*
X344184Y109000D01*
X344297Y108142D01*
X344629Y107342D01*
X344868Y107030D01*
X344621Y106530D01*
X341644D01*
X339528Y108646D01*
X339020Y108986D01*
X338420Y109105D01*
X229537D01*
X228938Y108986D01*
X228429Y108646D01*
X205449Y85665D01*
X205358Y85703D01*
X204500Y85816D01*
X203642Y85703D01*
X202842Y85372D01*
X202155Y84845D01*
X201628Y84158D01*
X201297Y83358D01*
X201246Y82968D01*
X200718Y82789D01*
X200067Y83439D01*
Y114500D01*
X199948Y115100D01*
X199608Y115608D01*
X176108Y139108D01*
X175600Y139448D01*
X175000Y139567D01*
X174400Y139448D01*
X174317Y139392D01*
X163880D01*
X163280Y139273D01*
X162772Y138933D01*
X155567Y131728D01*
X155227Y131220D01*
X155108Y130620D01*
Y103824D01*
X142788Y91505D01*
X115972D01*
X115935Y91595D01*
X115408Y92282D01*
X114721Y92809D01*
X113921Y93140D01*
X113063Y93253D01*
X112205Y93140D01*
X111405Y92809D01*
X110718Y92282D01*
X110191Y91595D01*
X109860Y90795D01*
X109747Y89937D01*
X109860Y89079D01*
X110191Y88279D01*
X110718Y87592D01*
X111405Y87066D01*
X112205Y86734D01*
X113063Y86621D01*
X113921Y86734D01*
X114721Y87066D01*
X115408Y87592D01*
X115935Y88279D01*
X115972Y88370D01*
X143437D01*
X144037Y88489D01*
X144545Y88829D01*
X156933Y101216D01*
X157395Y101025D01*
Y100112D01*
X140851Y83568D01*
X115909D01*
X115872Y83658D01*
X115345Y84345D01*
X114658Y84872D01*
X113858Y85203D01*
X113000Y85316D01*
X112142Y85203D01*
X111342Y84872D01*
X110655Y84345D01*
X110128Y83658D01*
X109797Y82858D01*
X109684Y82000D01*
X109797Y81142D01*
X110128Y80342D01*
X110655Y79655D01*
X111342Y79128D01*
X112142Y78797D01*
X113000Y78684D01*
X113858Y78797D01*
X114658Y79128D01*
X115345Y79655D01*
X115872Y80342D01*
X115909Y80432D01*
X141500D01*
X142100Y80552D01*
X142608Y80892D01*
X160071Y98354D01*
X160411Y98863D01*
X160530Y99463D01*
Y125121D01*
X161030Y125368D01*
X161342Y125128D01*
X161687Y124985D01*
Y86500D01*
X161787Y85998D01*
X162072Y85572D01*
X169187Y78456D01*
Y71514D01*
X168842Y71372D01*
X168155Y70845D01*
X167629Y70158D01*
X167297Y69358D01*
X167184Y68500D01*
X167297Y67642D01*
X167629Y66842D01*
X168155Y66155D01*
X168842Y65628D01*
X169642Y65297D01*
X170500Y65184D01*
X171358Y65297D01*
X171729Y65451D01*
X171904Y65322D01*
X172087Y65058D01*
X171797Y64358D01*
X171684Y63500D01*
X171797Y62642D01*
X172128Y61842D01*
X172655Y61155D01*
X173342Y60628D01*
X174142Y60297D01*
X175000Y60184D01*
X175858Y60297D01*
X176658Y60628D01*
X177142Y61000D01*
X177148Y61004D01*
X177504Y60648D01*
X177500Y60642D01*
X177129Y60158D01*
X176797Y59358D01*
X176684Y58500D01*
X176797Y57642D01*
X177129Y56842D01*
X177655Y56155D01*
X178342Y55629D01*
X179142Y55297D01*
X180000Y55184D01*
X180858Y55297D01*
X181658Y55629D01*
X182345Y56155D01*
X182871Y56842D01*
X183203Y57642D01*
X183316Y58500D01*
X183203Y59358D01*
X182871Y60158D01*
X182345Y60845D01*
X181658Y61371D01*
X181313Y61515D01*
Y89000D01*
X181213Y89502D01*
X180928Y89928D01*
X176693Y94163D01*
X176927Y94636D01*
X177165Y94605D01*
X178154Y94735D01*
X179075Y95117D01*
X179867Y95724D01*
X180474Y96515D01*
X180855Y97436D01*
X180985Y98425D01*
X180855Y99414D01*
X180474Y100335D01*
X179867Y101126D01*
X179075Y101734D01*
X178154Y102115D01*
X177165Y102245D01*
X176177Y102115D01*
X175255Y101734D01*
X174691Y101300D01*
X174191Y101547D01*
Y124546D01*
X174847Y124817D01*
X175534Y125344D01*
X176060Y126031D01*
X176392Y126831D01*
X176505Y127689D01*
X176392Y128547D01*
X176060Y129347D01*
X175534Y130034D01*
X174847Y130561D01*
X174047Y130892D01*
X173189Y131005D01*
X172331Y130892D01*
X171706Y130633D01*
X171300Y130885D01*
X171245Y130962D01*
X171316Y131500D01*
X171203Y132358D01*
X170871Y133158D01*
X170632Y133470D01*
X170879Y133970D01*
X172813D01*
X191932Y114851D01*
Y82500D01*
X192052Y81900D01*
X192392Y81392D01*
X199892Y73892D01*
X200400Y73552D01*
X201000Y73432D01*
X208537D01*
X209137Y73552D01*
X209646Y73892D01*
X237149Y101395D01*
X252780D01*
X253027Y100895D01*
X252597Y100335D01*
X252216Y99414D01*
X252085Y98425D01*
X252216Y97436D01*
X252597Y96515D01*
X253204Y95724D01*
X253995Y95117D01*
X254917Y94735D01*
X255906Y94605D01*
X256894Y94735D01*
X257816Y95117D01*
X258607Y95724D01*
X259214Y96515D01*
X259595Y97436D01*
X259726Y98425D01*
X259595Y99414D01*
X259214Y100335D01*
X258784Y100895D01*
X259031Y101395D01*
X331520D01*
X331767Y100895D01*
X331337Y100335D01*
X330956Y99414D01*
X330826Y98425D01*
X330956Y97436D01*
X331337Y96515D01*
X331944Y95724D01*
X332736Y95117D01*
X333657Y94735D01*
X334646Y94605D01*
X335634Y94735D01*
X336556Y95117D01*
X337347Y95724D01*
X337954Y96515D01*
X338336Y97436D01*
X338428Y98136D01*
X338956Y98315D01*
X339954Y97317D01*
X340463Y96977D01*
X341062Y96858D01*
X409936D01*
X410077Y96515D01*
X410685Y95724D01*
X411476Y95117D01*
X412397Y94735D01*
X413386Y94605D01*
X414374Y94735D01*
X415296Y95117D01*
X416087Y95724D01*
X416694Y96515D01*
X417076Y97436D01*
X417206Y98425D01*
X417076Y99414D01*
X416694Y100335D01*
X416087Y101126D01*
X415296Y101734D01*
X414374Y102115D01*
X413386Y102245D01*
X412397Y102115D01*
X411476Y101734D01*
X410685Y101126D01*
X410077Y100335D01*
X409936Y99993D01*
X341712D01*
X341059Y100646D01*
X341250Y101108D01*
X403175D01*
X403775Y101227D01*
X404284Y101567D01*
X416687Y113970D01*
X426121D01*
X426368Y113470D01*
X426128Y113158D01*
X425797Y112358D01*
X425684Y111500D01*
X425797Y110642D01*
X426128Y109842D01*
X426655Y109155D01*
X427178Y108755D01*
Y99755D01*
X407745Y80322D01*
X379500D01*
X379500Y80322D01*
X378803Y80184D01*
X378211Y79789D01*
X378211Y79789D01*
X372912Y74490D01*
X372260Y74576D01*
X371402Y74463D01*
X370602Y74131D01*
X369915Y73604D01*
X369388Y72918D01*
X369057Y72118D01*
X368944Y71260D01*
X369057Y70402D01*
X369388Y69602D01*
X369915Y68915D01*
X370602Y68388D01*
X371402Y68057D01*
X372260Y67944D01*
X373118Y68057D01*
X373918Y68388D01*
X374604Y68915D01*
X375131Y69602D01*
X375463Y70402D01*
X375576Y71260D01*
X375490Y71912D01*
X380255Y76678D01*
X408500D01*
X408500Y76678D01*
X409197Y76816D01*
X409789Y77211D01*
X430289Y97711D01*
X430289Y97711D01*
X430684Y98303D01*
X430822Y99000D01*
X430822Y99000D01*
Y108755D01*
X431345Y109155D01*
X431872Y109842D01*
X432203Y110642D01*
X432316Y111500D01*
X432203Y112358D01*
X431872Y113158D01*
X431632Y113470D01*
X431879Y113970D01*
X436418D01*
X436639Y113521D01*
X436443Y113265D01*
X436090Y112414D01*
X436036Y112000D01*
X442964D01*
X442910Y112414D01*
X442557Y113265D01*
X442360Y113521D01*
X442582Y113970D01*
X474365D01*
X488578Y99756D01*
X488436Y99414D01*
X488306Y98425D01*
X488436Y97436D01*
X488818Y96515D01*
X489425Y95724D01*
X490216Y95117D01*
X491137Y94735D01*
X492126Y94605D01*
X493115Y94735D01*
X494036Y95117D01*
X494827Y95724D01*
X495434Y96515D01*
X495816Y97436D01*
X495946Y98425D01*
X495816Y99414D01*
X495434Y100335D01*
X494827Y101126D01*
X494036Y101734D01*
X493115Y102115D01*
X492126Y102245D01*
X491137Y102115D01*
X490795Y101973D01*
X476973Y115795D01*
X477164Y116257D01*
X550817D01*
X567318Y99756D01*
X567176Y99414D01*
X567046Y98425D01*
X567176Y97436D01*
X567558Y96515D01*
X568165Y95724D01*
X568701Y95313D01*
X568531Y94813D01*
X568044D01*
X552928Y109928D01*
X552502Y110213D01*
X552000Y110313D01*
X530500D01*
X529998Y110213D01*
X529572Y109928D01*
X523072Y103428D01*
X522787Y103002D01*
X522687Y102500D01*
Y89237D01*
X522187Y89068D01*
X521701Y89701D01*
X520910Y90308D01*
X519989Y90690D01*
X519000Y90820D01*
X518011Y90690D01*
X517090Y90308D01*
X516299Y89701D01*
X515692Y88910D01*
X515310Y87989D01*
X515180Y87000D01*
X515310Y86011D01*
X515692Y85090D01*
X516299Y84299D01*
X517090Y83692D01*
X518011Y83310D01*
X519000Y83180D01*
X519989Y83310D01*
X520910Y83692D01*
X521701Y84299D01*
X522187Y84932D01*
X522687Y84763D01*
Y80515D01*
X522342Y80371D01*
X521655Y79845D01*
X521129Y79158D01*
X520797Y78358D01*
X520684Y77500D01*
X520797Y76642D01*
X521129Y75842D01*
X521655Y75155D01*
X522342Y74629D01*
X523142Y74297D01*
X524000Y74184D01*
X524858Y74297D01*
X525658Y74629D01*
X526345Y75155D01*
X526871Y75842D01*
X527203Y76642D01*
X527316Y77500D01*
X527203Y78358D01*
X526871Y79158D01*
X526345Y79845D01*
X525658Y80371D01*
X525313Y80515D01*
Y84763D01*
X525813Y84932D01*
X526299Y84299D01*
X527090Y83692D01*
X528011Y83310D01*
X529000Y83180D01*
X529989Y83310D01*
X530910Y83692D01*
X531701Y84299D01*
X532308Y85090D01*
X532690Y86011D01*
X532820Y87000D01*
X532690Y87989D01*
X532308Y88910D01*
X531701Y89701D01*
X530910Y90308D01*
X530313Y90556D01*
Y95986D01*
X530658Y96128D01*
X531345Y96655D01*
X531872Y97342D01*
X532203Y98142D01*
X532316Y99000D01*
X532203Y99858D01*
X531872Y100658D01*
X531345Y101345D01*
X530658Y101872D01*
X529858Y102203D01*
X529000Y102316D01*
X528142Y102203D01*
X527342Y101872D01*
X526655Y101345D01*
X526128Y100658D01*
X525797Y99858D01*
X525313Y99943D01*
Y101956D01*
X531044Y107687D01*
X551456D01*
X566572Y92572D01*
X566998Y92287D01*
X567500Y92187D01*
X574000D01*
X574502Y92287D01*
X574928Y92572D01*
X577928Y95572D01*
X578213Y95998D01*
X578313Y96500D01*
Y101500D01*
X578213Y102002D01*
X577928Y102428D01*
X556928Y123428D01*
X556502Y123713D01*
X556000Y123813D01*
X466044D01*
X460313Y129544D01*
Y143444D01*
X460910Y143692D01*
X461701Y144299D01*
X462308Y145090D01*
X462690Y146011D01*
X462820Y147000D01*
X462690Y147989D01*
X462308Y148910D01*
X461701Y149701D01*
X460910Y150308D01*
X459989Y150690D01*
X459000Y150820D01*
D02*
G37*
G36*
X438000Y136000D02*
X435036D01*
X435081Y135658D01*
X424745Y125322D01*
X391259D01*
X390923Y125685D01*
X390964Y126000D01*
X388000D01*
Y123036D01*
X388342Y123081D01*
X389211Y122211D01*
X389803Y121816D01*
X390500Y121678D01*
X390500Y121678D01*
X425500D01*
X425500Y121678D01*
X426197Y121816D01*
X426789Y122211D01*
X437658Y133081D01*
X438000Y133036D01*
Y136000D01*
D02*
G37*
G36*
X441964D02*
X439000D01*
Y133036D01*
X439414Y133090D01*
X440265Y133443D01*
X440996Y134004D01*
X441557Y134735D01*
X441910Y135586D01*
X441964Y136000D01*
D02*
G37*
G36*
X390464Y139000D02*
X383536D01*
X383590Y138586D01*
X383943Y137735D01*
X384504Y137004D01*
X385235Y136443D01*
X385678Y136259D01*
Y129513D01*
X385004Y128996D01*
X384443Y128265D01*
X384090Y127414D01*
X384036Y127000D01*
X390964D01*
X390910Y127414D01*
X390557Y128265D01*
X389996Y128996D01*
X389322Y129513D01*
Y136870D01*
X389496Y137004D01*
X390057Y137735D01*
X390410Y138586D01*
X390464Y139000D01*
D02*
G37*
G36*
X331500Y144816D02*
X330642Y144703D01*
X329842Y144371D01*
X329155Y143845D01*
X328628Y143158D01*
X328297Y142358D01*
X328184Y141500D01*
X328297Y140642D01*
X328628Y139842D01*
X329155Y139155D01*
X329842Y138628D01*
X330642Y138297D01*
X330984Y138252D01*
Y137748D01*
X330642Y137703D01*
X329842Y137372D01*
X329155Y136845D01*
X328628Y136158D01*
X328297Y135358D01*
X328184Y134500D01*
X328297Y133642D01*
X328628Y132842D01*
X329155Y132155D01*
X329842Y131629D01*
X330642Y131297D01*
X330984Y131252D01*
Y130748D01*
X330642Y130703D01*
X329842Y130371D01*
X329155Y129845D01*
X328628Y129158D01*
X328297Y128358D01*
X328184Y127500D01*
X328297Y126642D01*
X328628Y125842D01*
X329155Y125155D01*
X329842Y124628D01*
X330642Y124297D01*
X331500Y124184D01*
X332358Y124297D01*
X333158Y124628D01*
X333845Y125155D01*
X334371Y125842D01*
X334515Y126187D01*
X343456D01*
X344440Y125203D01*
X344297Y124858D01*
X344184Y124000D01*
X344297Y123142D01*
X344629Y122342D01*
X345155Y121655D01*
X345842Y121128D01*
X346642Y120797D01*
X347500Y120684D01*
X348358Y120797D01*
X349158Y121128D01*
X349845Y121655D01*
X350372Y122342D01*
X350703Y123142D01*
X350816Y124000D01*
X350703Y124858D01*
X350372Y125658D01*
X349845Y126345D01*
X349158Y126872D01*
X348358Y127203D01*
X348016Y127248D01*
Y127752D01*
X348358Y127797D01*
X349158Y128129D01*
X349845Y128655D01*
X350372Y129342D01*
X350703Y130142D01*
X350816Y131000D01*
X350703Y131858D01*
X350372Y132658D01*
X349845Y133345D01*
X349158Y133871D01*
X348358Y134203D01*
X348016Y134248D01*
Y134752D01*
X348358Y134797D01*
X349158Y135128D01*
X349845Y135655D01*
X350372Y136342D01*
X350703Y137142D01*
X350816Y138000D01*
X350703Y138858D01*
X350372Y139658D01*
X349845Y140345D01*
X349158Y140872D01*
X348358Y141203D01*
X347500Y141316D01*
X346642Y141203D01*
X346297Y141060D01*
X344928Y142428D01*
X344502Y142713D01*
X344000Y142813D01*
X334515D01*
X334371Y143158D01*
X333845Y143845D01*
X333158Y144371D01*
X332358Y144703D01*
X331500Y144816D01*
D02*
G37*
G36*
X387000Y126000D02*
X384036D01*
X384090Y125586D01*
X384443Y124735D01*
X385004Y124004D01*
X385735Y123443D01*
X386586Y123090D01*
X387000Y123036D01*
Y126000D01*
D02*
G37*
G36*
X539000Y102316D02*
X538142Y102203D01*
X537342Y101872D01*
X536655Y101345D01*
X536129Y100658D01*
X535797Y99858D01*
X535684Y99000D01*
X535797Y98142D01*
X536129Y97342D01*
X536655Y96655D01*
X537342Y96128D01*
X537687Y95986D01*
Y90556D01*
X537090Y90308D01*
X536299Y89701D01*
X535692Y88910D01*
X535310Y87989D01*
X535180Y87000D01*
X535310Y86011D01*
X535692Y85090D01*
X536299Y84299D01*
X537090Y83692D01*
X538011Y83310D01*
X539000Y83180D01*
X539989Y83310D01*
X540910Y83692D01*
X541701Y84299D01*
X542308Y85090D01*
X542690Y86011D01*
X542820Y87000D01*
X542690Y87989D01*
X542308Y88910D01*
X541701Y89701D01*
X540910Y90308D01*
X540313Y90556D01*
Y95986D01*
X540658Y96128D01*
X541345Y96655D01*
X541872Y97342D01*
X542203Y98142D01*
X542316Y99000D01*
X542203Y99858D01*
X541872Y100658D01*
X541345Y101345D01*
X540658Y101872D01*
X539858Y102203D01*
X539000Y102316D01*
D02*
G37*
G36*
X462969Y86500D02*
X459500D01*
Y83031D01*
X460044Y83103D01*
X461017Y83506D01*
X461853Y84147D01*
X462494Y84983D01*
X462897Y85956D01*
X462969Y86500D01*
D02*
G37*
G36*
X439000Y90820D02*
X438011Y90690D01*
X437090Y90308D01*
X436299Y89701D01*
X435692Y88910D01*
X435310Y87989D01*
X435180Y87000D01*
X435310Y86011D01*
X435692Y85090D01*
X436299Y84299D01*
X437090Y83692D01*
X438011Y83310D01*
X439000Y83180D01*
X439989Y83310D01*
X440910Y83692D01*
X441701Y84299D01*
X442308Y85090D01*
X442690Y86011D01*
X442820Y87000D01*
X442690Y87989D01*
X442308Y88910D01*
X441701Y89701D01*
X440910Y90308D01*
X439989Y90690D01*
X439000Y90820D01*
D02*
G37*
G36*
X458500Y86500D02*
X455031D01*
X455103Y85956D01*
X455506Y84983D01*
X456147Y84147D01*
X456983Y83506D01*
X457956Y83103D01*
X458500Y83031D01*
Y86500D01*
D02*
G37*
G36*
X154500Y74964D02*
Y72000D01*
X157464D01*
X157410Y72414D01*
X157057Y73265D01*
X156496Y73996D01*
X155765Y74557D01*
X154914Y74910D01*
X154500Y74964D01*
D02*
G37*
G36*
X312000D02*
Y72000D01*
X314964D01*
X314910Y72414D01*
X314557Y73265D01*
X313996Y73996D01*
X313265Y74557D01*
X312414Y74910D01*
X312000Y74964D01*
D02*
G37*
G36*
X449000Y90820D02*
X448011Y90690D01*
X447090Y90308D01*
X446299Y89701D01*
X445692Y88910D01*
X445310Y87989D01*
X445180Y87000D01*
X445310Y86011D01*
X445692Y85090D01*
X446299Y84299D01*
X447090Y83692D01*
X448011Y83310D01*
X449000Y83180D01*
X449989Y83310D01*
X450910Y83692D01*
X451701Y84299D01*
X452308Y85090D01*
X452690Y86011D01*
X452820Y87000D01*
X452690Y87989D01*
X452308Y88910D01*
X451701Y89701D01*
X450910Y90308D01*
X449989Y90690D01*
X449000Y90820D01*
D02*
G37*
G36*
X499000D02*
X498011Y90690D01*
X497090Y90308D01*
X496299Y89701D01*
X495692Y88910D01*
X495310Y87989D01*
X495180Y87000D01*
X495310Y86011D01*
X495692Y85090D01*
X496299Y84299D01*
X497090Y83692D01*
X498011Y83310D01*
X499000Y83180D01*
X499989Y83310D01*
X500910Y83692D01*
X501701Y84299D01*
X502308Y85090D01*
X502690Y86011D01*
X502820Y87000D01*
X502690Y87989D01*
X502308Y88910D01*
X501701Y89701D01*
X500910Y90308D01*
X499989Y90690D01*
X499000Y90820D01*
D02*
G37*
G36*
X509000D02*
X508011Y90690D01*
X507090Y90308D01*
X506299Y89701D01*
X505692Y88910D01*
X505310Y87989D01*
X505180Y87000D01*
X505310Y86011D01*
X505692Y85090D01*
X506299Y84299D01*
X507090Y83692D01*
X508011Y83310D01*
X509000Y83180D01*
X509989Y83310D01*
X510910Y83692D01*
X511701Y84299D01*
X512308Y85090D01*
X512690Y86011D01*
X512820Y87000D01*
X512690Y87989D01*
X512308Y88910D01*
X511701Y89701D01*
X510910Y90308D01*
X509989Y90690D01*
X509000Y90820D01*
D02*
G37*
G36*
X489000D02*
X488011Y90690D01*
X487090Y90308D01*
X486299Y89701D01*
X485692Y88910D01*
X485310Y87989D01*
X485180Y87000D01*
X485310Y86011D01*
X485692Y85090D01*
X486299Y84299D01*
X487090Y83692D01*
X488011Y83310D01*
X489000Y83180D01*
X489989Y83310D01*
X490910Y83692D01*
X491701Y84299D01*
X492308Y85090D01*
X492690Y86011D01*
X492820Y87000D01*
X492690Y87989D01*
X492308Y88910D01*
X491701Y89701D01*
X490910Y90308D01*
X489989Y90690D01*
X489000Y90820D01*
D02*
G37*
G36*
X469000Y101816D02*
X468142Y101703D01*
X467342Y101372D01*
X466655Y100845D01*
X466128Y100158D01*
X465797Y99358D01*
X465684Y98500D01*
X465797Y97642D01*
X466128Y96842D01*
X466655Y96155D01*
X467342Y95628D01*
X467687Y95486D01*
Y90556D01*
X467090Y90308D01*
X466299Y89701D01*
X465692Y88910D01*
X465310Y87989D01*
X465180Y87000D01*
X465310Y86011D01*
X465692Y85090D01*
X466299Y84299D01*
X467090Y83692D01*
X468011Y83310D01*
X469000Y83180D01*
X469989Y83310D01*
X470910Y83692D01*
X471701Y84299D01*
X472308Y85090D01*
X472690Y86011D01*
X472820Y87000D01*
X472690Y87989D01*
X472308Y88910D01*
X471701Y89701D01*
X470910Y90308D01*
X470313Y90556D01*
Y95486D01*
X470658Y95628D01*
X471345Y96155D01*
X471872Y96842D01*
X472203Y97642D01*
X472316Y98500D01*
X472203Y99358D01*
X471872Y100158D01*
X471345Y100845D01*
X470658Y101372D01*
X469858Y101703D01*
X469000Y101816D01*
D02*
G37*
G36*
X479000Y90820D02*
X478011Y90690D01*
X477090Y90308D01*
X476299Y89701D01*
X475692Y88910D01*
X475310Y87989D01*
X475180Y87000D01*
X475310Y86011D01*
X475692Y85090D01*
X476299Y84299D01*
X477090Y83692D01*
X478011Y83310D01*
X479000Y83180D01*
X479989Y83310D01*
X480910Y83692D01*
X481701Y84299D01*
X482308Y85090D01*
X482690Y86011D01*
X482820Y87000D01*
X482690Y87989D01*
X482308Y88910D01*
X481701Y89701D01*
X480910Y90308D01*
X479989Y90690D01*
X479000Y90820D01*
D02*
G37*
G36*
X549500Y366320D02*
X548511Y366190D01*
X547590Y365808D01*
X546799Y365201D01*
X546192Y364410D01*
X545810Y363489D01*
X545680Y362500D01*
X545810Y361511D01*
X546192Y360590D01*
X546799Y359799D01*
X547590Y359192D01*
X548511Y358810D01*
X549500Y358680D01*
X550489Y358810D01*
X551410Y359192D01*
X552201Y359799D01*
X552808Y360590D01*
X553190Y361511D01*
X553320Y362500D01*
X553190Y363489D01*
X552808Y364410D01*
X552201Y365201D01*
X551410Y365808D01*
X550489Y366190D01*
X549500Y366320D01*
D02*
G37*
G36*
X406000Y366820D02*
X405011Y366690D01*
X404090Y366308D01*
X403299Y365701D01*
X402692Y364910D01*
X402310Y363989D01*
X402180Y363000D01*
X402310Y362011D01*
X402692Y361090D01*
X403299Y360299D01*
X404090Y359692D01*
X405011Y359310D01*
X406000Y359180D01*
X406989Y359310D01*
X407910Y359692D01*
X408701Y360299D01*
X409308Y361090D01*
X409690Y362011D01*
X409820Y363000D01*
X409690Y363989D01*
X409308Y364910D01*
X408701Y365701D01*
X407910Y366308D01*
X406989Y366690D01*
X406000Y366820D01*
D02*
G37*
G36*
X529500Y366320D02*
X528511Y366190D01*
X527590Y365808D01*
X526799Y365201D01*
X526192Y364410D01*
X525810Y363489D01*
X525680Y362500D01*
X525810Y361511D01*
X526192Y360590D01*
X526799Y359799D01*
X527590Y359192D01*
X528511Y358810D01*
X529500Y358680D01*
X530489Y358810D01*
X531410Y359192D01*
X532201Y359799D01*
X532808Y360590D01*
X533190Y361511D01*
X533320Y362500D01*
X533190Y363489D01*
X532808Y364410D01*
X532201Y365201D01*
X531410Y365808D01*
X530489Y366190D01*
X529500Y366320D01*
D02*
G37*
G36*
X509500D02*
X508511Y366190D01*
X507590Y365808D01*
X506799Y365201D01*
X506192Y364410D01*
X505810Y363489D01*
X505680Y362500D01*
X505810Y361511D01*
X506192Y360590D01*
X506799Y359799D01*
X507590Y359192D01*
X508511Y358810D01*
X509500Y358680D01*
X510489Y358810D01*
X511410Y359192D01*
X512201Y359799D01*
X512808Y360590D01*
X513190Y361511D01*
X513320Y362500D01*
X513190Y363489D01*
X512808Y364410D01*
X512201Y365201D01*
X511410Y365808D01*
X510489Y366190D01*
X509500Y366320D01*
D02*
G37*
G36*
X519500D02*
X518511Y366190D01*
X517590Y365808D01*
X516799Y365201D01*
X516192Y364410D01*
X515810Y363489D01*
X515680Y362500D01*
X515810Y361511D01*
X516192Y360590D01*
X516799Y359799D01*
X517590Y359192D01*
X518511Y358810D01*
X519500Y358680D01*
X520489Y358810D01*
X521410Y359192D01*
X522201Y359799D01*
X522808Y360590D01*
X523190Y361511D01*
X523320Y362500D01*
X523190Y363489D01*
X522808Y364410D01*
X522201Y365201D01*
X521410Y365808D01*
X520489Y366190D01*
X519500Y366320D01*
D02*
G37*
G36*
X426000Y366820D02*
X425011Y366690D01*
X424090Y366308D01*
X423299Y365701D01*
X422692Y364910D01*
X422310Y363989D01*
X422180Y363000D01*
X422310Y362011D01*
X422692Y361090D01*
X423299Y360299D01*
X424090Y359692D01*
X425011Y359310D01*
X426000Y359180D01*
X426989Y359310D01*
X427910Y359692D01*
X428701Y360299D01*
X429308Y361090D01*
X429690Y362011D01*
X429820Y363000D01*
X429690Y363989D01*
X429308Y364910D01*
X428701Y365701D01*
X427910Y366308D01*
X426989Y366690D01*
X426000Y366820D01*
D02*
G37*
G36*
X466000D02*
X465011Y366690D01*
X464090Y366308D01*
X463299Y365701D01*
X462692Y364910D01*
X462310Y363989D01*
X462180Y363000D01*
X462310Y362011D01*
X462692Y361090D01*
X463299Y360299D01*
X464090Y359692D01*
X465011Y359310D01*
X466000Y359180D01*
X466989Y359310D01*
X467910Y359692D01*
X468701Y360299D01*
X469308Y361090D01*
X469690Y362011D01*
X469820Y363000D01*
X469690Y363989D01*
X469308Y364910D01*
X468701Y365701D01*
X467910Y366308D01*
X466989Y366690D01*
X466000Y366820D01*
D02*
G37*
G36*
X476000D02*
X475011Y366690D01*
X474090Y366308D01*
X473299Y365701D01*
X472692Y364910D01*
X472310Y363989D01*
X472180Y363000D01*
X472310Y362011D01*
X472692Y361090D01*
X473299Y360299D01*
X474090Y359692D01*
X475011Y359310D01*
X476000Y359180D01*
X476989Y359310D01*
X477910Y359692D01*
X478701Y360299D01*
X479308Y361090D01*
X479690Y362011D01*
X479820Y363000D01*
X479690Y363989D01*
X479308Y364910D01*
X478701Y365701D01*
X477910Y366308D01*
X476989Y366690D01*
X476000Y366820D01*
D02*
G37*
G36*
X456000D02*
X455011Y366690D01*
X454090Y366308D01*
X453299Y365701D01*
X452692Y364910D01*
X452310Y363989D01*
X452180Y363000D01*
X452310Y362011D01*
X452692Y361090D01*
X453299Y360299D01*
X454090Y359692D01*
X455011Y359310D01*
X456000Y359180D01*
X456989Y359310D01*
X457910Y359692D01*
X458701Y360299D01*
X459308Y361090D01*
X459690Y362011D01*
X459820Y363000D01*
X459690Y363989D01*
X459308Y364910D01*
X458701Y365701D01*
X457910Y366308D01*
X456989Y366690D01*
X456000Y366820D01*
D02*
G37*
G36*
X436000D02*
X435011Y366690D01*
X434090Y366308D01*
X433299Y365701D01*
X432692Y364910D01*
X432310Y363989D01*
X432180Y363000D01*
X432310Y362011D01*
X432692Y361090D01*
X433299Y360299D01*
X434090Y359692D01*
X435011Y359310D01*
X436000Y359180D01*
X436989Y359310D01*
X437910Y359692D01*
X438701Y360299D01*
X439308Y361090D01*
X439690Y362011D01*
X439820Y363000D01*
X439690Y363989D01*
X439308Y364910D01*
X438701Y365701D01*
X437910Y366308D01*
X436989Y366690D01*
X436000Y366820D01*
D02*
G37*
G36*
X446000D02*
X445011Y366690D01*
X444090Y366308D01*
X443299Y365701D01*
X442692Y364910D01*
X442310Y363989D01*
X442180Y363000D01*
X442310Y362011D01*
X442692Y361090D01*
X443299Y360299D01*
X444090Y359692D01*
X445011Y359310D01*
X446000Y359180D01*
X446989Y359310D01*
X447910Y359692D01*
X448701Y360299D01*
X449308Y361090D01*
X449690Y362011D01*
X449820Y363000D01*
X449690Y363989D01*
X449308Y364910D01*
X448701Y365701D01*
X447910Y366308D01*
X446989Y366690D01*
X446000Y366820D01*
D02*
G37*
G36*
X543469Y362000D02*
X540000D01*
Y358531D01*
X540544Y358603D01*
X541517Y359006D01*
X542353Y359647D01*
X542994Y360483D01*
X543397Y361456D01*
X543469Y362000D01*
D02*
G37*
G36*
X559000Y328272D02*
X558024Y328144D01*
X557114Y327767D01*
X556332Y327168D01*
X555733Y326386D01*
X555356Y325476D01*
X555228Y324500D01*
X555356Y323524D01*
X555733Y322614D01*
X556332Y321832D01*
X557114Y321233D01*
X558024Y320856D01*
X559000Y320728D01*
X559976Y320856D01*
X560886Y321233D01*
X561667Y321832D01*
X562267Y322614D01*
X562644Y323524D01*
X562772Y324500D01*
X562644Y325476D01*
X562267Y326386D01*
X561667Y327168D01*
X560886Y327767D01*
X559976Y328144D01*
X559000Y328272D01*
D02*
G37*
G36*
X569000D02*
X568024Y328144D01*
X567114Y327767D01*
X566332Y327168D01*
X565733Y326386D01*
X565356Y325476D01*
X565228Y324500D01*
X565356Y323524D01*
X565733Y322614D01*
X566332Y321832D01*
X567114Y321233D01*
X568024Y320856D01*
X569000Y320728D01*
X569976Y320856D01*
X570886Y321233D01*
X571667Y321832D01*
X572267Y322614D01*
X572644Y323524D01*
X572772Y324500D01*
X572644Y325476D01*
X572267Y326386D01*
X571667Y327168D01*
X570886Y327767D01*
X569976Y328144D01*
X569000Y328272D01*
D02*
G37*
G36*
X549000D02*
X548024Y328144D01*
X547114Y327767D01*
X546333Y327168D01*
X545733Y326386D01*
X545356Y325476D01*
X545228Y324500D01*
X545356Y323524D01*
X545733Y322614D01*
X546333Y321832D01*
X547114Y321233D01*
X548024Y320856D01*
X549000Y320728D01*
X549976Y320856D01*
X550886Y321233D01*
X551667Y321832D01*
X552267Y322614D01*
X552644Y323524D01*
X552772Y324500D01*
X552644Y325476D01*
X552267Y326386D01*
X551667Y327168D01*
X550886Y327767D01*
X549976Y328144D01*
X549000Y328272D01*
D02*
G37*
G36*
X529000D02*
X528024Y328144D01*
X527114Y327767D01*
X526333Y327168D01*
X525733Y326386D01*
X525356Y325476D01*
X525228Y324500D01*
X525356Y323524D01*
X525733Y322614D01*
X526333Y321832D01*
X527114Y321233D01*
X528024Y320856D01*
X529000Y320728D01*
X529976Y320856D01*
X530886Y321233D01*
X531668Y321832D01*
X532267Y322614D01*
X532644Y323524D01*
X532772Y324500D01*
X532644Y325476D01*
X532267Y326386D01*
X531668Y327168D01*
X530886Y327767D01*
X529976Y328144D01*
X529000Y328272D01*
D02*
G37*
G36*
X539000D02*
X538024Y328144D01*
X537114Y327767D01*
X536333Y327168D01*
X535733Y326386D01*
X535356Y325476D01*
X535228Y324500D01*
X535356Y323524D01*
X535733Y322614D01*
X536333Y321832D01*
X537114Y321233D01*
X538024Y320856D01*
X539000Y320728D01*
X539976Y320856D01*
X540886Y321233D01*
X541668Y321832D01*
X542267Y322614D01*
X542644Y323524D01*
X542772Y324500D01*
X542644Y325476D01*
X542267Y326386D01*
X541668Y327168D01*
X540886Y327767D01*
X539976Y328144D01*
X539000Y328272D01*
D02*
G37*
G36*
X432740Y328240D02*
X425260D01*
Y320760D01*
X432740D01*
Y328240D01*
D02*
G37*
G36*
X333500Y381816D02*
X332642Y381703D01*
X331842Y381371D01*
X331155Y380845D01*
X330628Y380158D01*
X330297Y379358D01*
X330184Y378500D01*
X330297Y377642D01*
X330628Y376842D01*
X331155Y376155D01*
X331842Y375628D01*
X332187Y375485D01*
Y360015D01*
X331842Y359872D01*
X331155Y359345D01*
X330628Y358658D01*
X330297Y357858D01*
X330184Y357000D01*
X330297Y356142D01*
X330628Y355342D01*
X331155Y354655D01*
X331842Y354129D01*
X332642Y353797D01*
X333500Y353684D01*
X334358Y353797D01*
X335158Y354129D01*
X335845Y354655D01*
X336371Y355342D01*
X336703Y356142D01*
X336816Y357000D01*
X336703Y357858D01*
X336371Y358658D01*
X335845Y359345D01*
X335158Y359872D01*
X334813Y360015D01*
Y375485D01*
X335158Y375628D01*
X335845Y376155D01*
X336371Y376842D01*
X336703Y377642D01*
X336816Y378500D01*
X336703Y379358D01*
X336371Y380158D01*
X335845Y380845D01*
X335158Y381371D01*
X334358Y381703D01*
X333500Y381816D01*
D02*
G37*
G36*
X539000Y362000D02*
X535531D01*
X535603Y361456D01*
X536006Y360483D01*
X536647Y359647D01*
X537483Y359006D01*
X538456Y358603D01*
X539000Y358531D01*
Y362000D01*
D02*
G37*
G36*
X347187Y400503D02*
X346329Y400390D01*
X345530Y400059D01*
X344843Y399532D01*
X344316Y398845D01*
X343985Y398046D01*
X343872Y397187D01*
X343985Y396329D01*
X344316Y395530D01*
X344843Y394843D01*
X345530Y394316D01*
X346329Y393985D01*
X347187Y393872D01*
X348046Y393985D01*
X348845Y394316D01*
X349532Y394843D01*
X350059Y395530D01*
X350096Y395620D01*
X549663D01*
X569299Y375985D01*
Y338096D01*
X568956Y337954D01*
X568165Y337347D01*
X567558Y336556D01*
X567176Y335634D01*
X567046Y334646D01*
X567176Y333657D01*
X567558Y332736D01*
X568165Y331944D01*
X568956Y331337D01*
X569877Y330956D01*
X570866Y330826D01*
X571855Y330956D01*
X572776Y331337D01*
X573567Y331944D01*
X574174Y332736D01*
X574556Y333657D01*
X574686Y334646D01*
X574556Y335634D01*
X574174Y336556D01*
X573567Y337347D01*
X572776Y337954D01*
X572434Y338096D01*
Y376634D01*
X572314Y377234D01*
X571975Y377742D01*
X551421Y398296D01*
X550913Y398636D01*
X550313Y398755D01*
X350096D01*
X350059Y398845D01*
X349532Y399532D01*
X348845Y400059D01*
X348046Y400390D01*
X347187Y400503D01*
D02*
G37*
G36*
X438500Y328421D02*
X437968Y328351D01*
X437007Y327953D01*
X436181Y327319D01*
X435547Y326493D01*
X435149Y325532D01*
X435079Y325000D01*
X438500D01*
Y328421D01*
D02*
G37*
G36*
X439500D02*
Y325000D01*
X442921D01*
X442851Y325532D01*
X442453Y326493D01*
X441819Y327319D01*
X440993Y327953D01*
X440032Y328351D01*
X439500Y328421D01*
D02*
G37*
G36*
X19685Y417206D02*
X18696Y417076D01*
X17775Y416694D01*
X16984Y416087D01*
X16377Y415296D01*
X15995Y414374D01*
X15865Y413386D01*
X15995Y412397D01*
X16377Y411476D01*
X16984Y410685D01*
X17775Y410077D01*
X18696Y409696D01*
X19685Y409566D01*
X20674Y409696D01*
X21595Y410077D01*
X22386Y410685D01*
X22993Y411476D01*
X23135Y411818D01*
X77465D01*
X80432Y408851D01*
Y370500D01*
X80552Y369900D01*
X80892Y369392D01*
X88455Y361829D01*
X88963Y361489D01*
X89563Y361369D01*
X108654D01*
X108691Y361279D01*
X109218Y360592D01*
X109905Y360066D01*
X110705Y359734D01*
X111563Y359621D01*
X112421Y359734D01*
X113221Y360066D01*
X113908Y360592D01*
X114435Y361279D01*
X114766Y362079D01*
X114879Y362937D01*
X114766Y363795D01*
X114435Y364595D01*
X113908Y365282D01*
X113221Y365809D01*
X112421Y366140D01*
X111563Y366253D01*
X110705Y366140D01*
X109905Y365809D01*
X109218Y365282D01*
X108691Y364595D01*
X108654Y364505D01*
X90212D01*
X83568Y371149D01*
Y409500D01*
X83448Y410100D01*
X83108Y410608D01*
X79223Y414494D01*
X78714Y414834D01*
X78114Y414953D01*
X23135D01*
X22993Y415296D01*
X22386Y416087D01*
X21595Y416694D01*
X20674Y417076D01*
X19685Y417206D01*
D02*
G37*
G36*
X561368Y575000D02*
X553000D01*
Y566632D01*
X554240Y566754D01*
X555912Y567262D01*
X557454Y568086D01*
X558805Y569195D01*
X559914Y570546D01*
X560738Y572088D01*
X561246Y573760D01*
X561368Y575000D01*
D02*
G37*
G36*
X19685Y574686D02*
X18696Y574556D01*
X17775Y574174D01*
X16984Y573567D01*
X16377Y572776D01*
X15995Y571855D01*
X15865Y570866D01*
X15995Y569877D01*
X16377Y568956D01*
X16984Y568165D01*
X17775Y567558D01*
X18696Y567176D01*
X19685Y567046D01*
X20674Y567176D01*
X21595Y567558D01*
X22386Y568165D01*
X22993Y568956D01*
X23375Y569877D01*
X23505Y570866D01*
X23375Y571855D01*
X22993Y572776D01*
X22386Y573567D01*
X21595Y574174D01*
X20674Y574556D01*
X19685Y574686D01*
D02*
G37*
G36*
X552000Y575000D02*
X543632D01*
X543754Y573760D01*
X544262Y572088D01*
X545086Y570546D01*
X546195Y569195D01*
X547546Y568086D01*
X549088Y567262D01*
X550760Y566754D01*
X552000Y566632D01*
Y575000D01*
D02*
G37*
G36*
X155000Y547464D02*
Y544500D01*
X157964D01*
X157910Y544914D01*
X157557Y545765D01*
X156996Y546496D01*
X156265Y547057D01*
X155414Y547410D01*
X155000Y547464D01*
D02*
G37*
G36*
X38870Y574303D02*
X30502D01*
X30624Y573064D01*
X31132Y571391D01*
X31956Y569849D01*
X33065Y568498D01*
X34416Y567389D01*
X35958Y566565D01*
X37631Y566057D01*
X38870Y565936D01*
Y574303D01*
D02*
G37*
G36*
X98425Y574686D02*
X97436Y574556D01*
X96515Y574174D01*
X95724Y573567D01*
X95117Y572776D01*
X94735Y571855D01*
X94605Y570866D01*
X94735Y569877D01*
X95117Y568956D01*
X95724Y568165D01*
X96515Y567558D01*
X97436Y567176D01*
X98425Y567046D01*
X99414Y567176D01*
X100335Y567558D01*
X101126Y568165D01*
X101734Y568956D01*
X102115Y569877D01*
X102245Y570866D01*
X102115Y571855D01*
X101734Y572776D01*
X101126Y573567D01*
X100335Y574174D01*
X99414Y574556D01*
X98425Y574686D01*
D02*
G37*
G36*
X552000Y584368D02*
X550760Y584246D01*
X549088Y583738D01*
X547546Y582914D01*
X546195Y581805D01*
X545086Y580454D01*
X544262Y578912D01*
X543754Y577240D01*
X543632Y576000D01*
X552000D01*
Y584368D01*
D02*
G37*
G36*
X553000D02*
Y576000D01*
X561368D01*
X561246Y577240D01*
X560738Y578912D01*
X559914Y580454D01*
X558805Y581805D01*
X557454Y582914D01*
X555912Y583738D01*
X554240Y584246D01*
X553000Y584368D01*
D02*
G37*
G36*
X39870Y583671D02*
Y575303D01*
X48238D01*
X48116Y576543D01*
X47608Y578216D01*
X46784Y579757D01*
X45675Y581108D01*
X44324Y582217D01*
X42783Y583041D01*
X41110Y583549D01*
X39870Y583671D01*
D02*
G37*
G36*
X406561Y579258D02*
X120691D01*
X120091Y579139D01*
X119582Y578799D01*
X107392Y566608D01*
X107052Y566100D01*
X106932Y565500D01*
Y559000D01*
X107052Y558400D01*
X107392Y557892D01*
X111392Y553892D01*
X111404Y553883D01*
X111628Y553342D01*
X112155Y552655D01*
X112842Y552129D01*
X113642Y551797D01*
X114500Y551684D01*
X115358Y551797D01*
X116158Y552129D01*
X116845Y552655D01*
X117371Y553342D01*
X117703Y554142D01*
X117816Y555000D01*
X117703Y555858D01*
X117371Y556658D01*
X116845Y557345D01*
X116158Y557871D01*
X115358Y558203D01*
X114500Y558316D01*
X113642Y558203D01*
X112842Y557871D01*
X112278Y557439D01*
X110067Y559649D01*
Y564851D01*
X121340Y576123D01*
X185969D01*
X186161Y575661D01*
X181475Y570976D01*
X180947Y571155D01*
X180855Y571855D01*
X180474Y572776D01*
X179867Y573567D01*
X179075Y574174D01*
X178154Y574556D01*
X177165Y574686D01*
X176177Y574556D01*
X175255Y574174D01*
X174464Y573567D01*
X173857Y572776D01*
X173475Y571855D01*
X173345Y570866D01*
X173475Y569877D01*
X173857Y568956D01*
X174287Y568396D01*
X174040Y567896D01*
X117829D01*
X117230Y567777D01*
X116721Y567437D01*
X115199Y565915D01*
X115109Y565952D01*
X114250Y566065D01*
X113392Y565952D01*
X112592Y565621D01*
X111906Y565094D01*
X111379Y564407D01*
X111048Y563608D01*
X110935Y562750D01*
X111048Y561891D01*
X111379Y561092D01*
X111906Y560405D01*
X112592Y559878D01*
X113392Y559547D01*
X114250Y559434D01*
X115109Y559547D01*
X115908Y559878D01*
X116595Y560405D01*
X117122Y561092D01*
X117453Y561891D01*
X117566Y562750D01*
X117453Y563608D01*
X117416Y563698D01*
X118479Y564761D01*
X179045D01*
X179645Y564881D01*
X180153Y565220D01*
X188769Y573836D01*
X252780D01*
X253027Y573336D01*
X252597Y572776D01*
X252216Y571855D01*
X252085Y570866D01*
X252216Y569877D01*
X252597Y568956D01*
X253027Y568396D01*
X252780Y567896D01*
X198329D01*
X197729Y567777D01*
X197220Y567437D01*
X187949Y558165D01*
X187858Y558203D01*
X187000Y558316D01*
X186142Y558203D01*
X185342Y557871D01*
X184655Y557345D01*
X184128Y556658D01*
X183797Y555858D01*
X183684Y555000D01*
X183797Y554142D01*
X184128Y553342D01*
X184655Y552655D01*
X185342Y552129D01*
X186142Y551797D01*
X187000Y551684D01*
X187858Y551797D01*
X188658Y552129D01*
X189345Y552655D01*
X189872Y553342D01*
X190203Y554142D01*
X190316Y555000D01*
X190203Y555858D01*
X190165Y555948D01*
X198978Y564761D01*
X257031D01*
X257222Y564299D01*
X254711Y561789D01*
X254316Y561197D01*
X254178Y560500D01*
X254178Y560500D01*
Y524255D01*
X246245Y516322D01*
X170960D01*
X170858Y516797D01*
X171658Y517129D01*
X172345Y517655D01*
X172871Y518342D01*
X173203Y519142D01*
X173316Y520000D01*
X173203Y520858D01*
X172871Y521658D01*
X172345Y522345D01*
X171658Y522871D01*
X171442Y522961D01*
X171442Y523263D01*
X171942Y523433D01*
X172155Y523155D01*
X172842Y522628D01*
X173642Y522297D01*
X174500Y522184D01*
X175358Y522297D01*
X176158Y522628D01*
X176845Y523155D01*
X177372Y523842D01*
X177703Y524642D01*
X177816Y525500D01*
X177703Y526358D01*
X177372Y527158D01*
X176845Y527845D01*
X176158Y528371D01*
X175813Y528514D01*
Y530557D01*
X176297Y530642D01*
X176628Y529842D01*
X177155Y529155D01*
X177842Y528628D01*
X178642Y528297D01*
X179500Y528184D01*
X180358Y528297D01*
X181158Y528628D01*
X181845Y529155D01*
X182371Y529842D01*
X182703Y530642D01*
X182816Y531500D01*
X182703Y532358D01*
X182371Y533158D01*
X181845Y533845D01*
X181158Y534372D01*
X180358Y534703D01*
X179500Y534816D01*
X178642Y534703D01*
X177842Y534372D01*
X177358Y534000D01*
X177352Y533996D01*
X176996Y534352D01*
X177000Y534358D01*
X177372Y534842D01*
X177703Y535642D01*
X177816Y536500D01*
X177703Y537358D01*
X177372Y538158D01*
X176845Y538845D01*
X176158Y539371D01*
X175358Y539703D01*
X174500Y539816D01*
X173642Y539703D01*
X173271Y539549D01*
X173096Y539678D01*
X172913Y539942D01*
X173203Y540642D01*
X173316Y541500D01*
X173203Y542358D01*
X172871Y543158D01*
X172345Y543845D01*
X171658Y544372D01*
X170858Y544703D01*
X170000Y544816D01*
X169142Y544703D01*
X168342Y544372D01*
X167655Y543845D01*
X167129Y543158D01*
X166797Y542358D01*
X166684Y541500D01*
X166797Y540642D01*
X167129Y539842D01*
X167655Y539155D01*
X168342Y538628D01*
X168687Y538485D01*
Y523014D01*
X168342Y522871D01*
X167655Y522345D01*
X167129Y521658D01*
X166797Y520858D01*
X166684Y520000D01*
X166797Y519142D01*
X167129Y518342D01*
X167655Y517655D01*
X168342Y517129D01*
X169142Y516797D01*
X169040Y516322D01*
X161255D01*
X156322Y521255D01*
Y540987D01*
X156996Y541504D01*
X157557Y542235D01*
X157910Y543086D01*
X157964Y543500D01*
X154500D01*
Y544000D01*
X154000D01*
Y547464D01*
X153586Y547410D01*
X152735Y547057D01*
X152004Y546496D01*
X151487Y545822D01*
X70928D01*
X46825Y569925D01*
X47608Y571391D01*
X48116Y573064D01*
X48238Y574303D01*
X39870D01*
Y565936D01*
X41110Y566057D01*
X42783Y566565D01*
X44248Y567348D01*
X68885Y542711D01*
X68885Y542711D01*
X69476Y542316D01*
X70173Y542178D01*
X151487D01*
X152004Y541504D01*
X152678Y540987D01*
Y521255D01*
X150745Y519322D01*
X22500D01*
X22500Y519322D01*
X21803Y519184D01*
X21211Y518789D01*
X21211Y518789D01*
X11711Y509289D01*
X11316Y508697D01*
X11178Y508000D01*
X11178Y508000D01*
Y488500D01*
X11178Y488500D01*
X11316Y487803D01*
X11711Y487211D01*
X19711Y479211D01*
X19711Y479211D01*
X20303Y478816D01*
X21000Y478678D01*
X21000Y478678D01*
X62745D01*
X88178Y453245D01*
Y399000D01*
X88178Y399000D01*
X88316Y398303D01*
X88711Y397711D01*
X101211Y385211D01*
X101803Y384816D01*
X102500Y384678D01*
X102500Y384678D01*
X150987D01*
X151504Y384004D01*
X152178Y383487D01*
Y361755D01*
X147245Y356822D01*
X24000D01*
X23303Y356684D01*
X22711Y356289D01*
X22711Y356289D01*
X12211Y345789D01*
X11816Y345197D01*
X11678Y344500D01*
X11678Y344500D01*
Y324500D01*
X11678Y324500D01*
X11816Y323803D01*
X12211Y323211D01*
X19711Y315711D01*
X19711Y315711D01*
X20303Y315316D01*
X21000Y315178D01*
X21000Y315178D01*
X83745D01*
X104678Y294245D01*
Y236500D01*
X104678Y236500D01*
X104816Y235803D01*
X105211Y235211D01*
X114211Y226211D01*
X114211Y226211D01*
X114803Y225816D01*
X115500Y225678D01*
X150987D01*
X151504Y225004D01*
X152178Y224487D01*
Y205255D01*
X147745Y200822D01*
X23500D01*
X23500Y200822D01*
X22803Y200684D01*
X22211Y200289D01*
X22211Y200289D01*
X11211Y189289D01*
X10816Y188697D01*
X10678Y188000D01*
X10678Y188000D01*
Y169500D01*
X10678Y169500D01*
X10816Y168803D01*
X11211Y168211D01*
X16211Y163211D01*
X16211Y163211D01*
X16803Y162816D01*
X17500Y162678D01*
X17500Y162678D01*
X95745D01*
X102678Y155745D01*
Y98972D01*
X102178Y98939D01*
X102115Y99414D01*
X101734Y100335D01*
X101126Y101126D01*
X100335Y101734D01*
X99414Y102115D01*
X98425Y102245D01*
X97436Y102115D01*
X96515Y101734D01*
X95724Y101126D01*
X95117Y100335D01*
X94735Y99414D01*
X94605Y98425D01*
X94735Y97436D01*
X95117Y96515D01*
X95724Y95724D01*
X96515Y95117D01*
X97436Y94735D01*
X98425Y94605D01*
X99414Y94735D01*
X100335Y95117D01*
X101126Y95724D01*
X101734Y96515D01*
X102115Y97436D01*
X102178Y97911D01*
X102678Y97878D01*
Y78000D01*
X102678Y78000D01*
X102816Y77303D01*
X103211Y76711D01*
X109711Y70211D01*
X109711Y70211D01*
X110303Y69816D01*
X111000Y69678D01*
X111000Y69678D01*
X150987D01*
X151504Y69004D01*
X152178Y68487D01*
Y48000D01*
X152178Y48000D01*
X152316Y47303D01*
X152711Y46711D01*
X155138Y44284D01*
X154947Y43822D01*
X25500D01*
X25500Y43822D01*
X24803Y43684D01*
X24211Y43289D01*
X24211Y43289D01*
X11211Y30289D01*
X10816Y29697D01*
X10678Y29000D01*
X10678Y29000D01*
Y19000D01*
X10678Y19000D01*
X10816Y18303D01*
X11211Y17711D01*
X16211Y12711D01*
X16211Y12711D01*
X16803Y12316D01*
X17500Y12178D01*
X17500Y12178D01*
X31216D01*
X31956Y10794D01*
X33065Y9443D01*
X34416Y8334D01*
X35958Y7510D01*
X37631Y7002D01*
X38870Y6880D01*
Y15748D01*
X39870D01*
Y6880D01*
X41110Y7002D01*
X42783Y7510D01*
X44324Y8334D01*
X45675Y9443D01*
X46784Y10794D01*
X47608Y12336D01*
X47833Y13075D01*
X542719D01*
X542943Y12336D01*
X543767Y10794D01*
X544876Y9443D01*
X546227Y8334D01*
X547769Y7510D01*
X549441Y7002D01*
X550681Y6880D01*
Y15748D01*
Y24616D01*
X549441Y24494D01*
X547769Y23986D01*
X546227Y23162D01*
X544876Y22053D01*
X543767Y20702D01*
X542943Y19160D01*
X542436Y17488D01*
X542360Y16720D01*
X495255D01*
X495008Y17220D01*
X495434Y17775D01*
X495816Y18696D01*
X495946Y19685D01*
X495816Y20674D01*
X495434Y21595D01*
X494827Y22386D01*
X494036Y22993D01*
X493115Y23375D01*
X492126Y23505D01*
X491137Y23375D01*
X490795Y23233D01*
X489099Y24929D01*
X489290Y25391D01*
X562943D01*
X567318Y21016D01*
X567176Y20674D01*
X567046Y19685D01*
X567176Y18696D01*
X567558Y17775D01*
X568165Y16984D01*
X568956Y16377D01*
X569877Y15995D01*
X570866Y15865D01*
X571855Y15995D01*
X572776Y16377D01*
X573567Y16984D01*
X574174Y17775D01*
X574556Y18696D01*
X574686Y19685D01*
X574556Y20674D01*
X574174Y21595D01*
X573567Y22386D01*
X572776Y22993D01*
X571855Y23375D01*
X570866Y23505D01*
X569877Y23375D01*
X569535Y23233D01*
X564701Y28067D01*
X564192Y28407D01*
X563592Y28526D01*
X554306D01*
X554060Y29026D01*
X554489Y29586D01*
X554871Y30507D01*
X555001Y31496D01*
X554871Y32485D01*
X554489Y33406D01*
X553882Y34197D01*
X553091Y34804D01*
X552170Y35186D01*
X551181Y35316D01*
X550192Y35186D01*
X549271Y34804D01*
X548480Y34197D01*
X547873Y33406D01*
X547491Y32485D01*
X547361Y31496D01*
X547491Y30507D01*
X547873Y29586D01*
X548302Y29026D01*
X548056Y28526D01*
X534621D01*
X534375Y29026D01*
X534804Y29586D01*
X535186Y30507D01*
X535316Y31496D01*
X535186Y32485D01*
X534804Y33406D01*
X534197Y34197D01*
X533406Y34804D01*
X532485Y35186D01*
X531496Y35316D01*
X530507Y35186D01*
X529586Y34804D01*
X528795Y34197D01*
X528188Y33406D01*
X527806Y32485D01*
X527676Y31496D01*
X527806Y30507D01*
X528188Y29586D01*
X528617Y29026D01*
X528371Y28526D01*
X455881D01*
X455635Y29026D01*
X456064Y29586D01*
X456446Y30507D01*
X456576Y31496D01*
X456446Y32485D01*
X456064Y33406D01*
X455457Y34197D01*
X454666Y34804D01*
X454320Y34947D01*
Y35489D01*
X454658Y35629D01*
X455345Y36155D01*
X455871Y36842D01*
X456203Y37642D01*
X456316Y38500D01*
X456203Y39358D01*
X455871Y40158D01*
X455345Y40845D01*
X454658Y41372D01*
X453858Y41703D01*
X453000Y41816D01*
X452142Y41703D01*
X451342Y41372D01*
X450655Y40845D01*
X450129Y40158D01*
X449986Y39813D01*
X431544D01*
X430313Y41044D01*
Y54985D01*
X430658Y55129D01*
X431345Y55655D01*
X431872Y56342D01*
X432203Y57142D01*
X432316Y58000D01*
X432203Y58858D01*
X431872Y59658D01*
X431345Y60345D01*
X430658Y60871D01*
X429858Y61203D01*
X429000Y61316D01*
X428142Y61203D01*
X427342Y60871D01*
X426655Y60345D01*
X426128Y59658D01*
X425797Y58858D01*
X425684Y58000D01*
X425797Y57142D01*
X426128Y56342D01*
X426655Y55655D01*
X427342Y55129D01*
X427687Y54985D01*
Y40500D01*
X427787Y39998D01*
X428072Y39572D01*
X430072Y37572D01*
X430498Y37287D01*
X431000Y37187D01*
X449986D01*
X450129Y36842D01*
X450655Y36155D01*
X451342Y35629D01*
X451436Y35590D01*
Y35049D01*
X450846Y34804D01*
X450055Y34197D01*
X449448Y33406D01*
X449066Y32485D01*
X448936Y31496D01*
X449066Y30507D01*
X449448Y29586D01*
X449877Y29026D01*
X449631Y28526D01*
X403191D01*
X350478Y81239D01*
X350515Y81329D01*
X350628Y82187D01*
X350515Y83046D01*
X350184Y83845D01*
X349657Y84532D01*
X348971Y85059D01*
X348171Y85390D01*
X347313Y85503D01*
X346454Y85390D01*
X345655Y85059D01*
X344968Y84532D01*
X344441Y83845D01*
X344110Y83046D01*
X343997Y82187D01*
X344110Y81329D01*
X344441Y80529D01*
X344968Y79843D01*
X345655Y79316D01*
X346454Y78985D01*
X347313Y78872D01*
X348171Y78985D01*
X348261Y79022D01*
X400754Y26529D01*
X400562Y26068D01*
X346440D01*
X332289Y40218D01*
X332468Y40746D01*
X332858Y40797D01*
X333658Y41129D01*
X334345Y41655D01*
X334872Y42342D01*
X335203Y43142D01*
X335316Y44000D01*
X335203Y44858D01*
X334872Y45658D01*
X334345Y46345D01*
X333658Y46872D01*
X333313Y47015D01*
Y59986D01*
X333658Y60128D01*
X334345Y60655D01*
X334872Y61342D01*
X335203Y62142D01*
X335316Y63000D01*
X335203Y63858D01*
X334872Y64658D01*
X334345Y65345D01*
X333658Y65872D01*
X332858Y66203D01*
X332000Y66316D01*
X331142Y66203D01*
X330950Y66123D01*
X330635Y66534D01*
X330872Y66842D01*
X331203Y67642D01*
X331316Y68500D01*
X331203Y69358D01*
X330872Y70158D01*
X330345Y70845D01*
X329658Y71372D01*
X328858Y71703D01*
X328000Y71816D01*
X327142Y71703D01*
X326342Y71372D01*
X325655Y70845D01*
X325129Y70158D01*
X324797Y69358D01*
X324684Y68500D01*
X324797Y67642D01*
X325129Y66842D01*
X325655Y66155D01*
X326342Y65628D01*
X326687Y65486D01*
Y52514D01*
X326342Y52372D01*
X325655Y51845D01*
X325129Y51158D01*
X324797Y50358D01*
X324684Y49500D01*
X324797Y48642D01*
X324956Y48258D01*
X324532Y47975D01*
X303568Y68940D01*
Y73000D01*
X303448Y73600D01*
X303108Y74108D01*
X286171Y91045D01*
X285663Y91385D01*
X285063Y91505D01*
X270846D01*
X270809Y91595D01*
X270361Y92178D01*
X270520Y92678D01*
X287745D01*
X308081Y72342D01*
X308036Y72000D01*
X311000D01*
Y74964D01*
X310658Y74919D01*
X289789Y95789D01*
X289197Y96184D01*
X288500Y96322D01*
X288500Y96322D01*
X266437D01*
X265739Y96184D01*
X265148Y95789D01*
X265148Y95789D01*
X260211Y90852D01*
X259816Y90261D01*
X259678Y89563D01*
X259678Y89563D01*
Y53255D01*
X250245Y43822D01*
X160755D01*
X155822Y48755D01*
Y68487D01*
X156496Y69004D01*
X157057Y69735D01*
X157410Y70586D01*
X157464Y71000D01*
X154000D01*
Y71500D01*
X153500D01*
Y74964D01*
X153086Y74910D01*
X152235Y74557D01*
X151504Y73996D01*
X150987Y73322D01*
X111755D01*
X106322Y78755D01*
Y156500D01*
X106322Y156500D01*
X106184Y157197D01*
X105789Y157789D01*
X105789Y157789D01*
X97789Y165789D01*
X97197Y166184D01*
X96500Y166322D01*
X96500Y166322D01*
X18255D01*
X14322Y170255D01*
Y187245D01*
X24255Y197178D01*
X148500D01*
X148500Y197178D01*
X149197Y197316D01*
X149789Y197711D01*
X154000Y201923D01*
X159211Y196711D01*
X159211Y196711D01*
X159803Y196316D01*
X160500Y196178D01*
X160500Y196178D01*
X175500D01*
X175500Y196178D01*
X176197Y196316D01*
X176789Y196711D01*
X189755Y209678D01*
X253000D01*
X253000Y209678D01*
X253697Y209816D01*
X254289Y210211D01*
X264289Y220211D01*
X264289Y220211D01*
X264684Y220803D01*
X264822Y221500D01*
X264822Y221500D01*
Y249745D01*
X267255Y252178D01*
X285745D01*
X308081Y229842D01*
X308036Y229500D01*
X311000D01*
Y232464D01*
X310658Y232419D01*
X287789Y255289D01*
X287197Y255684D01*
X286500Y255822D01*
X286500Y255822D01*
X266500D01*
X266500Y255822D01*
X265803Y255684D01*
X265211Y255289D01*
X265211Y255289D01*
X261711Y251789D01*
X261316Y251197D01*
X261178Y250500D01*
X261178Y250500D01*
Y222255D01*
X252245Y213322D01*
X189000D01*
X188303Y213184D01*
X187711Y212789D01*
X187711Y212789D01*
X174745Y199822D01*
X170960D01*
X170858Y200297D01*
X171658Y200628D01*
X172345Y201155D01*
X172871Y201842D01*
X173203Y202642D01*
X173316Y203500D01*
X173203Y204358D01*
X172871Y205158D01*
X172345Y205845D01*
X171658Y206371D01*
X171313Y206515D01*
Y208432D01*
X171813Y208602D01*
X172155Y208155D01*
X172842Y207628D01*
X173642Y207297D01*
X174500Y207184D01*
X175358Y207297D01*
X176158Y207628D01*
X176845Y208155D01*
X177372Y208842D01*
X177703Y209642D01*
X177816Y210500D01*
X177703Y211358D01*
X177372Y212158D01*
X176845Y212845D01*
X176158Y213371D01*
X175813Y213515D01*
Y215057D01*
X176297Y215142D01*
X176628Y214342D01*
X177155Y213655D01*
X177842Y213128D01*
X178642Y212797D01*
X179500Y212684D01*
X180358Y212797D01*
X181158Y213128D01*
X181845Y213655D01*
X182371Y214342D01*
X182703Y215142D01*
X182816Y216000D01*
X182703Y216858D01*
X182371Y217658D01*
X181845Y218345D01*
X181158Y218871D01*
X180813Y219015D01*
Y241500D01*
X180713Y242002D01*
X180428Y242428D01*
X171063Y251794D01*
Y259382D01*
X171658Y259629D01*
X172345Y260155D01*
X172871Y260842D01*
X173203Y261642D01*
X173316Y262500D01*
X173203Y263358D01*
X172871Y264158D01*
X172345Y264845D01*
X171658Y265371D01*
X170858Y265703D01*
X170000Y265816D01*
X169142Y265703D01*
X168342Y265371D01*
X167655Y264845D01*
X167129Y264158D01*
X166797Y263358D01*
X166684Y262500D01*
X166797Y261642D01*
X167129Y260842D01*
X167655Y260155D01*
X168342Y259629D01*
X168437Y259589D01*
Y251250D01*
X168537Y250748D01*
X168822Y250322D01*
X178187Y240956D01*
Y221943D01*
X177703Y221858D01*
X177372Y222658D01*
X176845Y223345D01*
X176158Y223871D01*
X175813Y224015D01*
Y236500D01*
X175713Y237002D01*
X175428Y237428D01*
X166063Y246794D01*
Y264589D01*
X166158Y264629D01*
X166845Y265155D01*
X167371Y265842D01*
X167703Y266642D01*
X167816Y267500D01*
X167703Y268358D01*
X167371Y269158D01*
X167132Y269470D01*
X167379Y269970D01*
X173813D01*
X183432Y260351D01*
Y246000D01*
X183552Y245400D01*
X183892Y244892D01*
X198392Y230392D01*
X198900Y230052D01*
X199500Y229932D01*
X217000D01*
X217600Y230052D01*
X218108Y230392D01*
X246649Y258932D01*
X252845D01*
X253071Y258433D01*
X252597Y257816D01*
X252216Y256894D01*
X252085Y255906D01*
X252216Y254917D01*
X252597Y253995D01*
X253204Y253204D01*
X253995Y252597D01*
X254917Y252216D01*
X255906Y252085D01*
X256894Y252216D01*
X257816Y252597D01*
X258607Y253204D01*
X259214Y253995D01*
X259595Y254917D01*
X259726Y255906D01*
X259595Y256894D01*
X259214Y257816D01*
X258740Y258433D01*
X258966Y258932D01*
X331585D01*
X331811Y258433D01*
X331337Y257816D01*
X330956Y256894D01*
X330826Y255906D01*
X330956Y254917D01*
X331337Y253995D01*
X331944Y253204D01*
X332736Y252597D01*
X333657Y252216D01*
X334646Y252085D01*
X335634Y252216D01*
X336556Y252597D01*
X337347Y253204D01*
X337954Y253995D01*
X338336Y254917D01*
X338466Y255906D01*
X338336Y256894D01*
X337954Y257816D01*
X337480Y258433D01*
X337706Y258932D01*
X408142D01*
X409838Y257237D01*
X409696Y256894D01*
X409566Y255906D01*
X409696Y254917D01*
X410077Y253995D01*
X410685Y253204D01*
X411476Y252597D01*
X412397Y252216D01*
X413386Y252085D01*
X414374Y252216D01*
X415296Y252597D01*
X416087Y253204D01*
X416694Y253995D01*
X417076Y254917D01*
X417206Y255906D01*
X417076Y256894D01*
X416694Y257816D01*
X416087Y258607D01*
X415296Y259214D01*
X414374Y259595D01*
X413386Y259726D01*
X412397Y259595D01*
X412055Y259454D01*
X410076Y261433D01*
X410283Y261932D01*
X483882D01*
X488578Y257237D01*
X488436Y256894D01*
X488306Y255906D01*
X488436Y254917D01*
X488818Y253995D01*
X489425Y253204D01*
X490216Y252597D01*
X491137Y252216D01*
X492126Y252085D01*
X493115Y252216D01*
X494036Y252597D01*
X494827Y253204D01*
X495434Y253995D01*
X495816Y254917D01*
X495946Y255906D01*
X495816Y256894D01*
X495434Y257816D01*
X494827Y258607D01*
X494036Y259214D01*
X493115Y259595D01*
X492126Y259726D01*
X491137Y259595D01*
X490795Y259454D01*
X485816Y264433D01*
X486023Y264932D01*
X559622D01*
X567318Y257237D01*
X567176Y256894D01*
X567046Y255906D01*
X567176Y254917D01*
X567558Y253995D01*
X568165Y253204D01*
X568956Y252597D01*
X569877Y252216D01*
X570866Y252085D01*
X571855Y252216D01*
X572776Y252597D01*
X573567Y253204D01*
X574174Y253995D01*
X574556Y254917D01*
X574686Y255906D01*
X574556Y256894D01*
X574174Y257816D01*
X573567Y258607D01*
X572776Y259214D01*
X571855Y259595D01*
X570866Y259726D01*
X569877Y259595D01*
X569535Y259454D01*
X561380Y267608D01*
X560872Y267948D01*
X560272Y268068D01*
X242500D01*
X241900Y267948D01*
X241392Y267608D01*
X215351Y241567D01*
X212409D01*
X212371Y241658D01*
X211845Y242345D01*
X211158Y242871D01*
X210358Y243203D01*
X209500Y243316D01*
X208642Y243203D01*
X207842Y242871D01*
X207155Y242345D01*
X206628Y241658D01*
X206297Y240858D01*
X206184Y240000D01*
X206297Y239142D01*
X206628Y238342D01*
X207155Y237655D01*
X207270Y237567D01*
X207100Y237068D01*
X201649D01*
X189567Y249149D01*
Y262500D01*
X189448Y263100D01*
X189108Y263608D01*
X177608Y275108D01*
X177100Y275448D01*
X176500Y275568D01*
X149500D01*
X148900Y275448D01*
X148392Y275108D01*
X140892Y267608D01*
X140552Y267100D01*
X140433Y266500D01*
Y257149D01*
X131851Y248568D01*
X115409D01*
X115372Y248658D01*
X114845Y249345D01*
X114158Y249871D01*
X113358Y250203D01*
X112500Y250316D01*
X111642Y250203D01*
X110842Y249871D01*
X110155Y249345D01*
X109628Y248658D01*
X109297Y247858D01*
X109184Y247000D01*
X109297Y246142D01*
X109628Y245342D01*
X110155Y244655D01*
X110842Y244128D01*
X111642Y243797D01*
X111984Y243752D01*
Y243248D01*
X111642Y243203D01*
X110842Y242871D01*
X110155Y242345D01*
X109628Y241658D01*
X109297Y240858D01*
X109184Y240000D01*
X109297Y239142D01*
X109628Y238342D01*
X110155Y237655D01*
X110842Y237128D01*
X111642Y236797D01*
X112500Y236684D01*
X113358Y236797D01*
X114158Y237128D01*
X114845Y237655D01*
X115372Y238342D01*
X115409Y238433D01*
X132000D01*
X132600Y238552D01*
X133108Y238892D01*
X146108Y251892D01*
X146448Y252400D01*
X146567Y253000D01*
Y264351D01*
X152187Y269970D01*
X161621D01*
X161868Y269470D01*
X161628Y269158D01*
X161297Y268358D01*
X161184Y267500D01*
X161297Y266642D01*
X161587Y265942D01*
X161404Y265678D01*
X161229Y265549D01*
X160858Y265703D01*
X160000Y265816D01*
X159142Y265703D01*
X158342Y265371D01*
X157655Y264845D01*
X157129Y264158D01*
X156797Y263358D01*
X156684Y262500D01*
X156797Y261642D01*
X157129Y260842D01*
X157655Y260155D01*
X158342Y259629D01*
X158687Y259485D01*
Y241500D01*
X158787Y240998D01*
X159072Y240572D01*
X168687Y230956D01*
Y229015D01*
X168342Y228871D01*
X167655Y228345D01*
X167129Y227658D01*
X166797Y226858D01*
X166684Y226000D01*
X166797Y225142D01*
X167129Y224342D01*
X167655Y223655D01*
X168342Y223129D01*
X168687Y222985D01*
Y206515D01*
X168342Y206371D01*
X167655Y205845D01*
X167129Y205158D01*
X166797Y204358D01*
X166684Y203500D01*
X166797Y202642D01*
X167129Y201842D01*
X167655Y201155D01*
X168342Y200628D01*
X169142Y200297D01*
X169040Y199822D01*
X161255D01*
X155822Y205255D01*
Y224487D01*
X156496Y225004D01*
X157057Y225735D01*
X157410Y226586D01*
X157464Y227000D01*
X154000D01*
Y227500D01*
X153500D01*
Y230964D01*
X153086Y230910D01*
X152235Y230557D01*
X151504Y229996D01*
X150987Y229322D01*
X116255D01*
X108322Y237255D01*
Y295000D01*
X108322Y295000D01*
X108184Y295697D01*
X107789Y296289D01*
X107789Y296289D01*
X85789Y318289D01*
X85197Y318684D01*
X84500Y318822D01*
X84500Y318822D01*
X21755D01*
X15322Y325255D01*
Y343745D01*
X24755Y353178D01*
X148000D01*
X148000Y353178D01*
X148697Y353316D01*
X149289Y353711D01*
X154000Y358423D01*
X160211Y352211D01*
X160211Y352211D01*
X160803Y351816D01*
X161500Y351678D01*
X161500Y351678D01*
X247500D01*
X247500Y351678D01*
X248197Y351816D01*
X248789Y352211D01*
X259789Y363211D01*
X259789Y363211D01*
X260184Y363803D01*
X260322Y364500D01*
X260322Y364500D01*
Y402245D01*
X265479Y407402D01*
X267118D01*
X267364Y406902D01*
X267128Y406595D01*
X266797Y405795D01*
X266684Y404937D01*
X266797Y404079D01*
X267128Y403279D01*
X267655Y402592D01*
X268342Y402066D01*
X269142Y401734D01*
X269484Y401689D01*
Y401185D01*
X269142Y401140D01*
X268342Y400809D01*
X267655Y400282D01*
X267128Y399595D01*
X266797Y398795D01*
X266684Y397937D01*
X266797Y397079D01*
X267128Y396279D01*
X267655Y395592D01*
X268342Y395065D01*
X269142Y394734D01*
X269484Y394689D01*
Y394185D01*
X269142Y394140D01*
X268342Y393809D01*
X267655Y393282D01*
X267128Y392595D01*
X266797Y391795D01*
X266684Y390937D01*
X266797Y390079D01*
X267128Y389279D01*
X267655Y388592D01*
X268342Y388066D01*
X269142Y387734D01*
X269484Y387689D01*
Y387185D01*
X269142Y387140D01*
X268342Y386809D01*
X267655Y386282D01*
X267128Y385595D01*
X266797Y384795D01*
X266684Y383937D01*
X266797Y383079D01*
X267128Y382279D01*
X267655Y381592D01*
X268342Y381066D01*
X269142Y380734D01*
X269484Y380689D01*
Y380185D01*
X269142Y380140D01*
X268342Y379809D01*
X267655Y379282D01*
X267128Y378595D01*
X266797Y377795D01*
X266684Y376937D01*
X266797Y376079D01*
X267128Y375279D01*
X267655Y374592D01*
X268342Y374065D01*
X269142Y373734D01*
X269484Y373689D01*
Y373185D01*
X269142Y373140D01*
X268342Y372809D01*
X267655Y372282D01*
X267128Y371595D01*
X266797Y370795D01*
X266684Y369937D01*
X266797Y369079D01*
X267128Y368279D01*
X267655Y367592D01*
X268342Y367066D01*
X269142Y366734D01*
X269484Y366689D01*
Y366185D01*
X269142Y366140D01*
X268342Y365809D01*
X267655Y365282D01*
X267128Y364595D01*
X266797Y363795D01*
X266684Y362937D01*
X266797Y362079D01*
X266835Y361988D01*
X254914Y350067D01*
X33539D01*
X32939Y349948D01*
X32431Y349608D01*
X21016Y338194D01*
X20674Y338336D01*
X19685Y338466D01*
X18696Y338336D01*
X17775Y337954D01*
X16984Y337347D01*
X16377Y336556D01*
X15995Y335634D01*
X15865Y334646D01*
X15995Y333657D01*
X16377Y332736D01*
X16984Y331944D01*
X17775Y331337D01*
X18696Y330956D01*
X19685Y330826D01*
X20674Y330956D01*
X21595Y331337D01*
X22386Y331944D01*
X22993Y332736D01*
X23375Y333657D01*
X23505Y334646D01*
X23375Y335634D01*
X23233Y335977D01*
X34189Y346933D01*
X255563D01*
X256163Y347052D01*
X256671Y347392D01*
X269051Y359772D01*
X269142Y359734D01*
X270000Y359621D01*
X270858Y359734D01*
X271658Y360066D01*
X272345Y360592D01*
X272871Y361279D01*
X273203Y362079D01*
X273316Y362937D01*
X273203Y363795D01*
X272871Y364595D01*
X272345Y365282D01*
X271658Y365809D01*
X270858Y366140D01*
X270516Y366185D01*
Y366689D01*
X270858Y366734D01*
X271658Y367066D01*
X272345Y367592D01*
X272871Y368279D01*
X272909Y368370D01*
X291414D01*
X293933Y365851D01*
Y346649D01*
X292351Y345068D01*
X107280D01*
X106680Y344948D01*
X106171Y344608D01*
X99756Y338194D01*
X99414Y338336D01*
X98425Y338466D01*
X97436Y338336D01*
X96515Y337954D01*
X95724Y337347D01*
X95117Y336556D01*
X94735Y335634D01*
X94605Y334646D01*
X94735Y333657D01*
X95117Y332736D01*
X95724Y331944D01*
X96515Y331337D01*
X97436Y330956D01*
X98425Y330826D01*
X99414Y330956D01*
X100335Y331337D01*
X101126Y331944D01*
X101734Y332736D01*
X102115Y333657D01*
X102245Y334646D01*
X102115Y335634D01*
X101973Y335977D01*
X107929Y341933D01*
X250705D01*
X250883Y341470D01*
X250877Y341432D01*
X250392Y341108D01*
X245496Y336213D01*
X180615D01*
X180474Y336556D01*
X179867Y337347D01*
X179075Y337954D01*
X178154Y338336D01*
X177165Y338466D01*
X176177Y338336D01*
X175255Y337954D01*
X174464Y337347D01*
X173857Y336556D01*
X173475Y335634D01*
X173345Y334646D01*
X173475Y333657D01*
X173857Y332736D01*
X174464Y331944D01*
X175255Y331337D01*
X176177Y330956D01*
X177165Y330826D01*
X178154Y330956D01*
X179075Y331337D01*
X179867Y331944D01*
X180474Y332736D01*
X180615Y333078D01*
X246146D01*
X246745Y333197D01*
X247254Y333537D01*
X252149Y338433D01*
X253737D01*
X253971Y337985D01*
X253967Y337932D01*
X253204Y337347D01*
X252597Y336556D01*
X252216Y335634D01*
X252085Y334646D01*
X252216Y333657D01*
X252597Y332736D01*
X253204Y331944D01*
X253995Y331337D01*
X254917Y330956D01*
X255906Y330826D01*
X256894Y330956D01*
X257816Y331337D01*
X258607Y331944D01*
X259214Y332736D01*
X259356Y333078D01*
X297646D01*
X298246Y333197D01*
X298754Y333537D01*
X307108Y341892D01*
X307448Y342400D01*
X307568Y343000D01*
Y367500D01*
X307448Y368100D01*
X307108Y368608D01*
X290671Y385045D01*
X290163Y385385D01*
X289563Y385505D01*
X272909D01*
X272871Y385595D01*
X272345Y386282D01*
X271658Y386809D01*
X270858Y387140D01*
X270516Y387185D01*
Y387689D01*
X270858Y387734D01*
X271658Y388066D01*
X272345Y388592D01*
X272871Y389279D01*
X272909Y389370D01*
X288914D01*
X308433Y369851D01*
Y342500D01*
X308552Y341900D01*
X308892Y341392D01*
X316746Y333537D01*
X317254Y333197D01*
X317854Y333078D01*
X331195D01*
X331337Y332736D01*
X331944Y331944D01*
X332736Y331337D01*
X333657Y330956D01*
X334646Y330826D01*
X335634Y330956D01*
X336556Y331337D01*
X337347Y331944D01*
X337954Y332736D01*
X338336Y333657D01*
X338466Y334646D01*
X338336Y335634D01*
X337954Y336556D01*
X337347Y337347D01*
X336584Y337932D01*
X336581Y337985D01*
X336814Y338433D01*
X340351D01*
X345246Y333537D01*
X345755Y333197D01*
X346354Y333078D01*
X409936D01*
X410077Y332736D01*
X410685Y331944D01*
X411476Y331337D01*
X412397Y330956D01*
X413386Y330826D01*
X414374Y330956D01*
X415296Y331337D01*
X416087Y331944D01*
X416694Y332736D01*
X417076Y333657D01*
X417206Y334646D01*
X417076Y335634D01*
X416694Y336556D01*
X416264Y337116D01*
X416511Y337615D01*
X423168D01*
X427246Y333537D01*
X427754Y333197D01*
X428354Y333078D01*
X488676D01*
X488818Y332736D01*
X489425Y331944D01*
X490216Y331337D01*
X491137Y330956D01*
X492126Y330826D01*
X493115Y330956D01*
X494036Y331337D01*
X494827Y331944D01*
X495434Y332736D01*
X495816Y333657D01*
X495946Y334646D01*
X495816Y335634D01*
X495434Y336556D01*
X494827Y337347D01*
X494036Y337954D01*
X493115Y338336D01*
X492126Y338466D01*
X491137Y338336D01*
X490216Y337954D01*
X489425Y337347D01*
X488818Y336556D01*
X488676Y336213D01*
X429004D01*
X424925Y340291D01*
X424417Y340631D01*
X423817Y340751D01*
X411506D01*
X410907Y340631D01*
X410811Y340567D01*
X349649D01*
X345108Y345108D01*
X344600Y345448D01*
X344000Y345567D01*
X323149D01*
X320567Y348149D01*
Y373937D01*
X320448Y374537D01*
X320108Y375045D01*
X312166Y382987D01*
X312346Y383515D01*
X312842Y383581D01*
X321178Y375245D01*
Y351000D01*
X321178Y351000D01*
X321316Y350303D01*
X321711Y349711D01*
X324711Y346711D01*
X325303Y346316D01*
X326000Y346178D01*
X326000Y346178D01*
X345245D01*
X349211Y342211D01*
X349211Y342211D01*
X349803Y341816D01*
X350500Y341678D01*
X350500Y341678D01*
X411500D01*
X411500Y341678D01*
X412197Y341816D01*
X412789Y342211D01*
X417289Y346711D01*
X417289Y346711D01*
X417684Y347303D01*
X417822Y348000D01*
X417822Y348000D01*
Y359425D01*
X418017Y359506D01*
X418853Y360147D01*
X419494Y360983D01*
X419897Y361956D01*
X419969Y362500D01*
X412031D01*
X412103Y361956D01*
X412506Y360983D01*
X413147Y360147D01*
X413983Y359506D01*
X414178Y359425D01*
Y348755D01*
X410745Y345322D01*
X351255D01*
X347289Y349289D01*
X346697Y349684D01*
X346000Y349822D01*
X346000Y349822D01*
X326755D01*
X324822Y351755D01*
Y359920D01*
X325322Y360089D01*
X325655Y359655D01*
X326342Y359128D01*
X327142Y358797D01*
X328000Y358684D01*
X328858Y358797D01*
X329658Y359128D01*
X330345Y359655D01*
X330872Y360342D01*
X331203Y361142D01*
X331316Y362000D01*
X331203Y362858D01*
X330872Y363658D01*
X330345Y364345D01*
X329658Y364872D01*
X329313Y365015D01*
Y380485D01*
X329658Y380628D01*
X330345Y381155D01*
X330872Y381842D01*
X331203Y382642D01*
X331316Y383500D01*
X331203Y384358D01*
X330872Y385158D01*
X330345Y385845D01*
X329658Y386371D01*
X328858Y386703D01*
X328000Y386816D01*
X327142Y386703D01*
X326342Y386371D01*
X325655Y385845D01*
X325129Y385158D01*
X324797Y384358D01*
X324684Y383500D01*
X324797Y382642D01*
X325129Y381842D01*
X325655Y381155D01*
X326342Y380628D01*
X326687Y380485D01*
Y365015D01*
X326342Y364872D01*
X325655Y364345D01*
X325322Y363911D01*
X324822Y364080D01*
Y376000D01*
X324822Y376000D01*
X324684Y376697D01*
X324289Y377289D01*
X324289Y377289D01*
X315419Y386158D01*
X315464Y386500D01*
X312000D01*
Y387000D01*
X311500D01*
Y390464D01*
X311158Y390419D01*
X291064Y410513D01*
X290473Y410908D01*
X289776Y411047D01*
X289775Y411047D01*
X264724D01*
X264724Y411047D01*
X264027Y410908D01*
X263436Y410513D01*
X263436Y410513D01*
X257211Y404289D01*
X256816Y403697D01*
X256678Y403000D01*
X256678Y403000D01*
Y365255D01*
X246745Y355322D01*
X162255D01*
X155822Y361755D01*
Y383487D01*
X156496Y384004D01*
X157057Y384735D01*
X157410Y385586D01*
X157464Y386000D01*
X154000D01*
Y386500D01*
X153500D01*
Y389964D01*
X153086Y389910D01*
X152235Y389557D01*
X151504Y388996D01*
X150987Y388322D01*
X103255D01*
X91822Y399755D01*
Y454000D01*
X91822Y454000D01*
X91684Y454697D01*
X91289Y455289D01*
X64789Y481789D01*
X64197Y482184D01*
X63500Y482322D01*
X63500Y482322D01*
X21755D01*
X14822Y489255D01*
Y507245D01*
X23255Y515678D01*
X151500D01*
X151500Y515678D01*
X152197Y515816D01*
X152789Y516211D01*
X154500Y517923D01*
X159211Y513211D01*
X159211Y513211D01*
X159803Y512816D01*
X160500Y512678D01*
X160500Y512678D01*
X247000D01*
X247000Y512678D01*
X247697Y512816D01*
X248289Y513211D01*
X257289Y522211D01*
X257289Y522211D01*
X257684Y522803D01*
X257822Y523500D01*
Y559745D01*
X263292Y565215D01*
X265118D01*
X265364Y564715D01*
X265128Y564407D01*
X264797Y563608D01*
X264684Y562750D01*
X264797Y561891D01*
X265128Y561092D01*
X265655Y560405D01*
X266342Y559878D01*
X267142Y559547D01*
X267484Y559502D01*
Y558997D01*
X267142Y558952D01*
X266342Y558621D01*
X265655Y558094D01*
X265128Y557408D01*
X264797Y556608D01*
X264684Y555750D01*
X264797Y554891D01*
X265128Y554092D01*
X265655Y553405D01*
X266342Y552878D01*
X267142Y552547D01*
X267484Y552502D01*
Y551998D01*
X267142Y551952D01*
X266342Y551621D01*
X265655Y551094D01*
X265128Y550408D01*
X264797Y549608D01*
X264684Y548750D01*
X264797Y547891D01*
X265128Y547092D01*
X265655Y546405D01*
X266342Y545878D01*
X267142Y545547D01*
X267484Y545502D01*
Y544998D01*
X267142Y544952D01*
X266342Y544621D01*
X265655Y544094D01*
X265128Y543407D01*
X264797Y542608D01*
X264684Y541750D01*
X264797Y540891D01*
X265128Y540092D01*
X265655Y539405D01*
X266342Y538878D01*
X267142Y538547D01*
X267484Y538502D01*
Y537997D01*
X267142Y537952D01*
X266342Y537621D01*
X265655Y537094D01*
X265128Y536408D01*
X264797Y535608D01*
X264684Y534750D01*
X264797Y533891D01*
X265128Y533092D01*
X265655Y532405D01*
X266342Y531878D01*
X267142Y531547D01*
X267484Y531502D01*
Y530998D01*
X267142Y530952D01*
X266342Y530621D01*
X265655Y530094D01*
X265128Y529408D01*
X264797Y528608D01*
X264684Y527750D01*
X264797Y526891D01*
X265128Y526092D01*
X265655Y525405D01*
X266342Y524878D01*
X267142Y524547D01*
X267484Y524502D01*
Y523997D01*
X267142Y523952D01*
X266342Y523621D01*
X265655Y523094D01*
X265128Y522407D01*
X264797Y521608D01*
X264684Y520750D01*
X264797Y519891D01*
X264835Y519801D01*
X256101Y511067D01*
X37059D01*
X36459Y510948D01*
X35951Y510608D01*
X21016Y495674D01*
X20674Y495816D01*
X19685Y495946D01*
X18696Y495816D01*
X17775Y495434D01*
X16984Y494827D01*
X16377Y494036D01*
X15995Y493115D01*
X15865Y492126D01*
X15995Y491137D01*
X16377Y490216D01*
X16984Y489425D01*
X17775Y488818D01*
X18696Y488436D01*
X19685Y488306D01*
X20674Y488436D01*
X21595Y488818D01*
X22386Y489425D01*
X22993Y490216D01*
X23375Y491137D01*
X23505Y492126D01*
X23375Y493115D01*
X23233Y493457D01*
X37708Y507933D01*
X256750D01*
X257350Y508052D01*
X257859Y508392D01*
X267052Y517584D01*
X267142Y517547D01*
X268000Y517434D01*
X268858Y517547D01*
X269658Y517878D01*
X270345Y518405D01*
X270871Y519092D01*
X271203Y519891D01*
X271316Y520750D01*
X271203Y521608D01*
X270871Y522407D01*
X270345Y523094D01*
X269658Y523621D01*
X268858Y523952D01*
X268516Y523997D01*
Y524502D01*
X268858Y524547D01*
X269658Y524878D01*
X270345Y525405D01*
X270720Y525894D01*
X271269Y525961D01*
X271348Y525935D01*
X271933Y525351D01*
Y515149D01*
X263851Y507067D01*
X111799D01*
X111199Y506948D01*
X110691Y506608D01*
X99756Y495674D01*
X99414Y495816D01*
X98425Y495946D01*
X97436Y495816D01*
X96515Y495434D01*
X95724Y494827D01*
X95117Y494036D01*
X94735Y493115D01*
X94605Y492126D01*
X94735Y491137D01*
X95117Y490216D01*
X95724Y489425D01*
X96515Y488818D01*
X97436Y488436D01*
X98425Y488306D01*
X99414Y488436D01*
X100335Y488818D01*
X101126Y489425D01*
X101734Y490216D01*
X102115Y491137D01*
X102245Y492126D01*
X102115Y493115D01*
X101973Y493457D01*
X112449Y503933D01*
X264500D01*
X265100Y504052D01*
X265608Y504392D01*
X274432Y513216D01*
X274933Y513009D01*
Y507649D01*
X268851Y501568D01*
X185039D01*
X184440Y501448D01*
X183931Y501108D01*
X178497Y495674D01*
X178154Y495816D01*
X177165Y495946D01*
X176177Y495816D01*
X175255Y495434D01*
X174464Y494827D01*
X173857Y494036D01*
X173475Y493115D01*
X173345Y492126D01*
X173475Y491137D01*
X173857Y490216D01*
X174464Y489425D01*
X175255Y488818D01*
X176177Y488436D01*
X177165Y488306D01*
X178154Y488436D01*
X179075Y488818D01*
X179867Y489425D01*
X180474Y490216D01*
X180855Y491137D01*
X180985Y492126D01*
X180855Y493115D01*
X180713Y493457D01*
X185689Y498432D01*
X269500D01*
X270100Y498552D01*
X270608Y498892D01*
X277608Y505892D01*
X277948Y506400D01*
X278067Y507000D01*
Y532000D01*
X277948Y532600D01*
X277608Y533108D01*
X274859Y535858D01*
X274350Y536198D01*
X273750Y536317D01*
X270909D01*
X270871Y536408D01*
X270345Y537094D01*
X269658Y537621D01*
X268858Y537952D01*
X268516Y537997D01*
Y538502D01*
X268858Y538547D01*
X269658Y538878D01*
X270345Y539405D01*
X270871Y540092D01*
X270909Y540182D01*
X277601D01*
X279433Y538351D01*
Y501649D01*
X271477Y493693D01*
X259356D01*
X259214Y494036D01*
X258607Y494827D01*
X257816Y495434D01*
X256894Y495816D01*
X255906Y495946D01*
X254917Y495816D01*
X253995Y495434D01*
X253204Y494827D01*
X252597Y494036D01*
X252216Y493115D01*
X252085Y492126D01*
X252216Y491137D01*
X252597Y490216D01*
X253204Y489425D01*
X253995Y488818D01*
X254917Y488436D01*
X255906Y488306D01*
X256894Y488436D01*
X257816Y488818D01*
X258607Y489425D01*
X259214Y490216D01*
X259356Y490558D01*
X272126D01*
X272726Y490678D01*
X273234Y491017D01*
X282108Y499892D01*
X282448Y500400D01*
X282568Y501000D01*
Y539000D01*
X282448Y539600D01*
X282108Y540108D01*
X279359Y542858D01*
X278850Y543198D01*
X278250Y543317D01*
X270909D01*
X270871Y543407D01*
X270345Y544094D01*
X269658Y544621D01*
X268858Y544952D01*
X268516Y544998D01*
Y545502D01*
X268858Y545547D01*
X269658Y545878D01*
X270345Y546405D01*
X270871Y547092D01*
X270909Y547182D01*
X281101D01*
X283433Y544851D01*
Y524500D01*
X283552Y523900D01*
X283892Y523392D01*
X316266Y491017D01*
X316774Y490678D01*
X317374Y490558D01*
X331195D01*
X331337Y490216D01*
X331944Y489425D01*
X332736Y488818D01*
X333657Y488436D01*
X334646Y488306D01*
X335634Y488436D01*
X336556Y488818D01*
X337347Y489425D01*
X337954Y490216D01*
X338336Y491137D01*
X338466Y492126D01*
X338336Y493115D01*
X337954Y494036D01*
X337347Y494827D01*
X336556Y495434D01*
X335634Y495816D01*
X334646Y495946D01*
X333657Y495816D01*
X332736Y495434D01*
X331944Y494827D01*
X331337Y494036D01*
X331195Y493693D01*
X318023D01*
X286567Y525149D01*
Y545500D01*
X286448Y546100D01*
X286108Y546608D01*
X282859Y549858D01*
X282350Y550198D01*
X281750Y550317D01*
X270909D01*
X270871Y550408D01*
X270345Y551094D01*
X269658Y551621D01*
X268858Y551952D01*
X268516Y551998D01*
Y552502D01*
X268858Y552547D01*
X269658Y552878D01*
X270345Y553405D01*
X270871Y554092D01*
X270909Y554182D01*
X286101D01*
X287932Y552351D01*
Y527500D01*
X288052Y526900D01*
X288392Y526392D01*
X310392Y504392D01*
X310900Y504052D01*
X311500Y503933D01*
X399362D01*
X409838Y493457D01*
X409696Y493115D01*
X409566Y492126D01*
X409696Y491137D01*
X410077Y490216D01*
X410685Y489425D01*
X411476Y488818D01*
X412397Y488436D01*
X413386Y488306D01*
X414374Y488436D01*
X415296Y488818D01*
X416087Y489425D01*
X416694Y490216D01*
X417076Y491137D01*
X417206Y492126D01*
X417076Y493115D01*
X416694Y494036D01*
X416087Y494827D01*
X415296Y495434D01*
X414374Y495816D01*
X413386Y495946D01*
X412397Y495816D01*
X412055Y495674D01*
X401120Y506608D01*
X400612Y506948D01*
X400012Y507067D01*
X312149D01*
X310497Y508720D01*
X310816Y509108D01*
X310900Y509052D01*
X311500Y508932D01*
X473103D01*
X488578Y493457D01*
X488436Y493115D01*
X488306Y492126D01*
X488436Y491137D01*
X488818Y490216D01*
X489425Y489425D01*
X490216Y488818D01*
X491137Y488436D01*
X492126Y488306D01*
X493115Y488436D01*
X494036Y488818D01*
X494827Y489425D01*
X495434Y490216D01*
X495816Y491137D01*
X495946Y492126D01*
X495816Y493115D01*
X495434Y494036D01*
X494827Y494827D01*
X494036Y495434D01*
X493115Y495816D01*
X492126Y495946D01*
X491137Y495816D01*
X490795Y495674D01*
X474860Y511608D01*
X474352Y511948D01*
X473752Y512068D01*
X312149D01*
X294068Y530149D01*
Y556000D01*
X293948Y556600D01*
X293608Y557108D01*
X286859Y563858D01*
X286350Y564198D01*
X285750Y564317D01*
X270909D01*
X270871Y564407D01*
X270636Y564715D01*
X270883Y565215D01*
X294708D01*
X309678Y550245D01*
Y546513D01*
X309004Y545996D01*
X308443Y545265D01*
X308090Y544414D01*
X308036Y544000D01*
X314964D01*
X314910Y544414D01*
X314557Y545265D01*
X313996Y545996D01*
X313322Y546513D01*
Y551000D01*
X313322Y551000D01*
X313184Y551697D01*
X312789Y552289D01*
X312789Y552289D01*
X297107Y567970D01*
X297315Y568470D01*
X328408D01*
X331658Y565220D01*
X332166Y564881D01*
X332766Y564761D01*
X407622D01*
X409450Y562933D01*
X409959Y562593D01*
X410559Y562474D01*
X564041D01*
X564641Y562593D01*
X565150Y562933D01*
X569535Y567318D01*
X569877Y567176D01*
X570866Y567046D01*
X571855Y567176D01*
X572776Y567558D01*
X573567Y568165D01*
X574174Y568956D01*
X574556Y569877D01*
X574686Y570866D01*
X574556Y571855D01*
X574174Y572776D01*
X573567Y573567D01*
X572776Y574174D01*
X571855Y574556D01*
X570866Y574686D01*
X569877Y574556D01*
X568956Y574174D01*
X568165Y573567D01*
X567558Y572776D01*
X567176Y571855D01*
X567046Y570866D01*
X567176Y569877D01*
X567318Y569535D01*
X563392Y565609D01*
X489739D01*
X489547Y566071D01*
X490795Y567318D01*
X491137Y567176D01*
X492126Y567046D01*
X493115Y567176D01*
X494036Y567558D01*
X494827Y568165D01*
X495434Y568956D01*
X495816Y569877D01*
X495946Y570866D01*
X495816Y571855D01*
X495434Y572776D01*
X494827Y573567D01*
X494036Y574174D01*
X493115Y574556D01*
X492126Y574686D01*
X491137Y574556D01*
X490216Y574174D01*
X489425Y573567D01*
X488818Y572776D01*
X488436Y571855D01*
X488306Y570866D01*
X488436Y569877D01*
X488578Y569535D01*
X486939Y567896D01*
X416511D01*
X416264Y568396D01*
X416694Y568956D01*
X417076Y569877D01*
X417206Y570866D01*
X417076Y571855D01*
X416694Y572776D01*
X416087Y573567D01*
X415296Y574174D01*
X414374Y574556D01*
X413386Y574686D01*
X412397Y574556D01*
X412055Y574414D01*
X407669Y578799D01*
X407161Y579139D01*
X406561Y579258D01*
D02*
G37*
G36*
X38870Y583671D02*
X37631Y583549D01*
X35958Y583041D01*
X34416Y582217D01*
X33065Y581108D01*
X31956Y579757D01*
X31132Y578216D01*
X30624Y576543D01*
X30502Y575303D01*
X38870D01*
Y583671D01*
D02*
G37*
G36*
X314964Y543000D02*
X312000D01*
Y540036D01*
X312414Y540090D01*
X313265Y540443D01*
X313996Y541004D01*
X314557Y541735D01*
X314910Y542586D01*
X314964Y543000D01*
D02*
G37*
G36*
X416500Y366969D02*
Y363500D01*
X419969D01*
X419897Y364044D01*
X419494Y365017D01*
X418853Y365853D01*
X418017Y366494D01*
X417044Y366897D01*
X416500Y366969D01*
D02*
G37*
G36*
X154500Y389964D02*
Y387000D01*
X157464D01*
X157410Y387414D01*
X157057Y388265D01*
X156496Y388996D01*
X155765Y389557D01*
X154914Y389910D01*
X154500Y389964D01*
D02*
G37*
G36*
X415500Y366969D02*
X414956Y366897D01*
X413983Y366494D01*
X413147Y365853D01*
X412506Y365017D01*
X412103Y364044D01*
X412031Y363500D01*
X415500D01*
Y366969D01*
D02*
G37*
G36*
X539000Y366469D02*
X538456Y366397D01*
X537483Y365994D01*
X536647Y365353D01*
X536006Y364517D01*
X535603Y363544D01*
X535531Y363000D01*
X539000D01*
Y366469D01*
D02*
G37*
G36*
X540000D02*
Y363000D01*
X543469D01*
X543397Y363544D01*
X542994Y364517D01*
X542353Y365353D01*
X541517Y365994D01*
X540544Y366397D01*
X540000Y366469D01*
D02*
G37*
G36*
X312500Y390464D02*
Y387500D01*
X315464D01*
X315410Y387914D01*
X315057Y388765D01*
X314496Y389496D01*
X313765Y390057D01*
X312914Y390410D01*
X312500Y390464D01*
D02*
G37*
G36*
X328500Y544816D02*
X327642Y544703D01*
X326842Y544372D01*
X326155Y543845D01*
X325628Y543158D01*
X325297Y542358D01*
X325184Y541500D01*
X325297Y540642D01*
X325628Y539842D01*
X326155Y539155D01*
X326842Y538628D01*
X327187Y538485D01*
Y527014D01*
X326842Y526871D01*
X326155Y526345D01*
X325628Y525658D01*
X325297Y524858D01*
X325184Y524000D01*
X325297Y523142D01*
X325628Y522342D01*
X326155Y521655D01*
X326842Y521129D01*
X327642Y520797D01*
X328500Y520684D01*
X329358Y520797D01*
X330158Y521129D01*
X330845Y521655D01*
X331187Y522102D01*
X331687Y521932D01*
Y521014D01*
X331342Y520871D01*
X330655Y520345D01*
X330129Y519658D01*
X329797Y518858D01*
X329684Y518000D01*
X329797Y517142D01*
X330129Y516342D01*
X330655Y515655D01*
X331342Y515129D01*
X332142Y514797D01*
X333000Y514684D01*
X333858Y514797D01*
X334658Y515129D01*
X335345Y515655D01*
X335872Y516342D01*
X336203Y517142D01*
X336316Y518000D01*
X336203Y518858D01*
X335872Y519658D01*
X335345Y520345D01*
X334658Y520871D01*
X334313Y521014D01*
Y533220D01*
X334845Y533441D01*
X335532Y533968D01*
X336059Y534655D01*
X336390Y535454D01*
X336503Y536313D01*
X336390Y537171D01*
X336059Y537970D01*
X335532Y538657D01*
X334845Y539184D01*
X334046Y539515D01*
X333187Y539628D01*
X332329Y539515D01*
X331529Y539184D01*
X331450Y539123D01*
X331094Y539480D01*
X331371Y539842D01*
X331703Y540642D01*
X331816Y541500D01*
X331703Y542358D01*
X331371Y543158D01*
X330845Y543845D01*
X330158Y544372D01*
X329358Y544703D01*
X328500Y544816D01*
D02*
G37*
G36*
X311000Y543000D02*
X308036D01*
X308090Y542586D01*
X308443Y541735D01*
X309004Y541004D01*
X309735Y540443D01*
X310586Y540090D01*
X311000Y540036D01*
Y543000D01*
D02*
G37*
G36*
X345500Y558316D02*
X344642Y558203D01*
X343842Y557871D01*
X343155Y557345D01*
X342629Y556658D01*
X342297Y555858D01*
X342184Y555000D01*
X342297Y554142D01*
X342629Y553342D01*
X343155Y552655D01*
X343842Y552129D01*
X343933Y552091D01*
Y521000D01*
X344052Y520400D01*
X344392Y519892D01*
X349892Y514392D01*
X350400Y514052D01*
X351000Y513933D01*
X490851D01*
X513766Y491017D01*
X514274Y490678D01*
X514874Y490558D01*
X567416D01*
X567558Y490216D01*
X568165Y489425D01*
X568956Y488818D01*
X569877Y488436D01*
X570866Y488306D01*
X571855Y488436D01*
X572776Y488818D01*
X573567Y489425D01*
X574174Y490216D01*
X574556Y491137D01*
X574686Y492126D01*
X574556Y493115D01*
X574174Y494036D01*
X573567Y494827D01*
X572776Y495434D01*
X571855Y495816D01*
X570866Y495946D01*
X569877Y495816D01*
X568956Y495434D01*
X568165Y494827D01*
X567558Y494036D01*
X567416Y493693D01*
X515523D01*
X492608Y516608D01*
X492100Y516948D01*
X491500Y517067D01*
X351649D01*
X347067Y521649D01*
Y552091D01*
X347158Y552129D01*
X347845Y552655D01*
X348372Y553342D01*
X348703Y554142D01*
X348816Y555000D01*
X348703Y555858D01*
X348372Y556658D01*
X347845Y557345D01*
X347158Y557871D01*
X346358Y558203D01*
X345500Y558316D01*
D02*
G37*
G36*
X98425Y417206D02*
X97436Y417076D01*
X96515Y416694D01*
X95724Y416087D01*
X95117Y415296D01*
X94735Y414374D01*
X94605Y413386D01*
X94735Y412397D01*
X95117Y411476D01*
X95724Y410685D01*
X96515Y410077D01*
X97436Y409696D01*
X98425Y409566D01*
X99414Y409696D01*
X100335Y410077D01*
X101126Y410685D01*
X101734Y411476D01*
X102115Y412397D01*
X102245Y413386D01*
X102115Y414374D01*
X101734Y415296D01*
X101126Y416087D01*
X100335Y416694D01*
X99414Y417076D01*
X98425Y417206D01*
D02*
G37*
G36*
X169878Y431892D02*
X159590D01*
X158990Y431773D01*
X158482Y431433D01*
X151104Y424056D01*
X150764Y423547D01*
X150645Y422948D01*
Y411362D01*
X145788Y406504D01*
X115846D01*
X115809Y406595D01*
X115282Y407282D01*
X114595Y407809D01*
X113795Y408140D01*
X112937Y408253D01*
X112079Y408140D01*
X111279Y407809D01*
X110592Y407282D01*
X110065Y406595D01*
X109734Y405795D01*
X109621Y404937D01*
X109734Y404079D01*
X110065Y403279D01*
X110592Y402592D01*
X111279Y402066D01*
X112079Y401734D01*
X112937Y401621D01*
X113795Y401734D01*
X114595Y402066D01*
X115282Y402592D01*
X115809Y403279D01*
X115846Y403370D01*
X146437D01*
X147037Y403489D01*
X147545Y403829D01*
X152471Y408754D01*
X152933Y408562D01*
Y407649D01*
X143351Y398067D01*
X115909D01*
X115872Y398158D01*
X115345Y398845D01*
X114658Y399372D01*
X113858Y399703D01*
X113000Y399816D01*
X112142Y399703D01*
X111342Y399372D01*
X110655Y398845D01*
X110128Y398158D01*
X109797Y397358D01*
X109684Y396500D01*
X109797Y395642D01*
X110128Y394842D01*
X110655Y394155D01*
X111342Y393629D01*
X112142Y393297D01*
X113000Y393184D01*
X113858Y393297D01*
X114658Y393629D01*
X115345Y394155D01*
X115872Y394842D01*
X115909Y394933D01*
X144000D01*
X144600Y395052D01*
X145108Y395392D01*
X155608Y405892D01*
X155948Y406400D01*
X156068Y407000D01*
Y421351D01*
X161160Y426443D01*
X161657Y426398D01*
X161868Y425970D01*
X161628Y425658D01*
X161297Y424858D01*
X161184Y424000D01*
X161297Y423142D01*
X161587Y422442D01*
X161404Y422178D01*
X161229Y422049D01*
X160858Y422203D01*
X160000Y422316D01*
X159142Y422203D01*
X158342Y421872D01*
X157655Y421345D01*
X157129Y420658D01*
X156797Y419858D01*
X156684Y419000D01*
X156797Y418142D01*
X157129Y417342D01*
X157655Y416655D01*
X158342Y416128D01*
X158687Y415985D01*
Y403000D01*
X158787Y402498D01*
X159072Y402072D01*
X169187Y391956D01*
Y386015D01*
X168842Y385872D01*
X168155Y385345D01*
X167629Y384658D01*
X167297Y383858D01*
X167184Y383000D01*
X167297Y382142D01*
X167629Y381342D01*
X168155Y380655D01*
X168842Y380129D01*
X169187Y379985D01*
Y363515D01*
X168842Y363371D01*
X168155Y362845D01*
X167629Y362158D01*
X167297Y361358D01*
X167184Y360500D01*
X167297Y359642D01*
X167629Y358842D01*
X168155Y358155D01*
X168842Y357628D01*
X169642Y357297D01*
X170500Y357184D01*
X171358Y357297D01*
X172158Y357628D01*
X172845Y358155D01*
X173372Y358842D01*
X173703Y359642D01*
X173816Y360500D01*
X173703Y361358D01*
X173372Y362158D01*
X172845Y362845D01*
X172158Y363371D01*
X171813Y363515D01*
Y364432D01*
X172313Y364602D01*
X172655Y364155D01*
X173342Y363629D01*
X174142Y363297D01*
X175000Y363184D01*
X175858Y363297D01*
X176658Y363629D01*
X177345Y364155D01*
X177872Y364842D01*
X178203Y365642D01*
X178316Y366500D01*
X178203Y367358D01*
X177872Y368158D01*
X177345Y368845D01*
X176658Y369372D01*
X176313Y369515D01*
Y372057D01*
X176797Y372142D01*
X177129Y371342D01*
X177655Y370655D01*
X178342Y370128D01*
X179142Y369797D01*
X180000Y369684D01*
X180858Y369797D01*
X181658Y370128D01*
X182345Y370655D01*
X182871Y371342D01*
X183203Y372142D01*
X183316Y373000D01*
X183203Y373858D01*
X182871Y374658D01*
X182345Y375345D01*
X181658Y375871D01*
X181313Y376015D01*
Y393529D01*
X181813Y393736D01*
X187300Y388248D01*
X187809Y387908D01*
X188409Y387789D01*
X198856D01*
X199456Y387908D01*
X199965Y388248D01*
X202574Y390858D01*
X221925D01*
X222525Y390977D01*
X223034Y391317D01*
X248149Y416433D01*
X252879D01*
X253086Y415933D01*
X252597Y415296D01*
X252216Y414374D01*
X252085Y413386D01*
X252216Y412397D01*
X252597Y411476D01*
X253204Y410685D01*
X253995Y410077D01*
X254917Y409696D01*
X255906Y409566D01*
X256894Y409696D01*
X257816Y410077D01*
X258607Y410685D01*
X259214Y411476D01*
X259595Y412397D01*
X259726Y413386D01*
X259595Y414374D01*
X259214Y415296D01*
X258725Y415933D01*
X258932Y416433D01*
X331619D01*
X331826Y415933D01*
X331337Y415296D01*
X330956Y414374D01*
X330826Y413386D01*
X330956Y412397D01*
X331337Y411476D01*
X331944Y410685D01*
X332736Y410077D01*
X333657Y409696D01*
X334646Y409566D01*
X335634Y409696D01*
X336556Y410077D01*
X337347Y410685D01*
X337954Y411476D01*
X338336Y412397D01*
X338466Y413386D01*
X338336Y414374D01*
X337954Y415296D01*
X337465Y415933D01*
X337672Y416433D01*
X408122D01*
X409838Y414717D01*
X409696Y414374D01*
X409566Y413386D01*
X409696Y412397D01*
X410077Y411476D01*
X410685Y410685D01*
X411476Y410077D01*
X412397Y409696D01*
X413386Y409566D01*
X414374Y409696D01*
X415296Y410077D01*
X416087Y410685D01*
X416694Y411476D01*
X417076Y412397D01*
X417206Y413386D01*
X417076Y414374D01*
X416694Y415296D01*
X416087Y416087D01*
X415296Y416694D01*
X414374Y417076D01*
X413386Y417206D01*
X412397Y417076D01*
X412055Y416934D01*
X410056Y418932D01*
X410263Y419432D01*
X483862D01*
X488578Y414717D01*
X488436Y414374D01*
X488306Y413386D01*
X488436Y412397D01*
X488818Y411476D01*
X489425Y410685D01*
X490216Y410077D01*
X491137Y409696D01*
X492126Y409566D01*
X493115Y409696D01*
X494036Y410077D01*
X494827Y410685D01*
X495434Y411476D01*
X495816Y412397D01*
X495946Y413386D01*
X495816Y414374D01*
X495434Y415296D01*
X494827Y416087D01*
X494036Y416694D01*
X493115Y417076D01*
X492126Y417206D01*
X491137Y417076D01*
X490795Y416934D01*
X485620Y422108D01*
X485135Y422433D01*
X485128Y422470D01*
X485307Y422932D01*
X559103D01*
X567318Y414717D01*
X567176Y414374D01*
X567046Y413386D01*
X567176Y412397D01*
X567558Y411476D01*
X568165Y410685D01*
X568956Y410077D01*
X569877Y409696D01*
X570866Y409566D01*
X571855Y409696D01*
X572776Y410077D01*
X573567Y410685D01*
X574174Y411476D01*
X574556Y412397D01*
X574686Y413386D01*
X574556Y414374D01*
X574174Y415296D01*
X573567Y416087D01*
X572776Y416694D01*
X571855Y417076D01*
X570866Y417206D01*
X569877Y417076D01*
X569535Y416934D01*
X560860Y425608D01*
X560352Y425948D01*
X559752Y426067D01*
X245500D01*
X244900Y425948D01*
X244392Y425608D01*
X217351Y398568D01*
X194409D01*
X194371Y398658D01*
X193845Y399345D01*
X193158Y399871D01*
X192358Y400203D01*
X191500Y400316D01*
X190642Y400203D01*
X189842Y399871D01*
X189155Y399345D01*
X188628Y398658D01*
X188297Y397858D01*
X188184Y397000D01*
X188297Y396142D01*
X188628Y395342D01*
X188782Y395142D01*
X188406Y394811D01*
X186536Y396681D01*
Y415235D01*
X186416Y415835D01*
X186076Y416343D01*
X170986Y431433D01*
X170478Y431773D01*
X170378Y431793D01*
X169878Y431892D01*
D02*
G37*
G36*
X519000Y328272D02*
X518024Y328144D01*
X517114Y327767D01*
X516332Y327168D01*
X515733Y326386D01*
X515356Y325476D01*
X515228Y324500D01*
X515356Y323524D01*
X515733Y322614D01*
X516332Y321832D01*
X517114Y321233D01*
X518024Y320856D01*
X519000Y320728D01*
X519976Y320856D01*
X520886Y321233D01*
X521667Y321832D01*
X522267Y322614D01*
X522644Y323524D01*
X522772Y324500D01*
X522644Y325476D01*
X522267Y326386D01*
X521667Y327168D01*
X520886Y327767D01*
X519976Y328144D01*
X519000Y328272D01*
D02*
G37*
G36*
X450500Y254822D02*
X450500Y254822D01*
X425000D01*
X424303Y254684D01*
X423711Y254289D01*
X423711Y254289D01*
X417245Y247822D01*
X328500D01*
X328500Y247822D01*
X327803Y247684D01*
X327211Y247289D01*
X312342Y232419D01*
X312000Y232464D01*
Y229500D01*
X314964D01*
X314919Y229842D01*
X329255Y244178D01*
X418000D01*
X418000Y244178D01*
X418697Y244316D01*
X419289Y244711D01*
X425755Y251178D01*
X449745D01*
X455184Y245739D01*
X455103Y245544D01*
X455031Y245000D01*
X458500D01*
Y248469D01*
X457956Y248397D01*
X457761Y248316D01*
X451789Y254289D01*
X451197Y254684D01*
X450500Y254822D01*
D02*
G37*
G36*
X459500Y248469D02*
Y245000D01*
X462969D01*
X462897Y245544D01*
X462494Y246517D01*
X461853Y247353D01*
X461017Y247994D01*
X460044Y248397D01*
X459500Y248469D01*
D02*
G37*
G36*
X432787Y248287D02*
X425213D01*
Y240713D01*
X432787D01*
Y248287D01*
D02*
G37*
G36*
X559000Y248320D02*
X558011Y248190D01*
X557090Y247808D01*
X556299Y247201D01*
X555692Y246410D01*
X555310Y245489D01*
X555180Y244500D01*
X555310Y243511D01*
X555692Y242590D01*
X556299Y241799D01*
X557090Y241192D01*
X558011Y240810D01*
X559000Y240680D01*
X559989Y240810D01*
X560910Y241192D01*
X561701Y241799D01*
X562308Y242590D01*
X562690Y243511D01*
X562820Y244500D01*
X562690Y245489D01*
X562308Y246410D01*
X561701Y247201D01*
X560910Y247808D01*
X559989Y248190D01*
X559000Y248320D01*
D02*
G37*
G36*
X569000D02*
X568011Y248190D01*
X567090Y247808D01*
X566299Y247201D01*
X565692Y246410D01*
X565310Y245489D01*
X565180Y244500D01*
X565310Y243511D01*
X565692Y242590D01*
X566299Y241799D01*
X567090Y241192D01*
X568011Y240810D01*
X569000Y240680D01*
X569989Y240810D01*
X570910Y241192D01*
X571701Y241799D01*
X572308Y242590D01*
X572690Y243511D01*
X572820Y244500D01*
X572690Y245489D01*
X572308Y246410D01*
X571701Y247201D01*
X570910Y247808D01*
X569989Y248190D01*
X569000Y248320D01*
D02*
G37*
G36*
X98425Y259726D02*
X97436Y259595D01*
X96515Y259214D01*
X95724Y258607D01*
X95117Y257816D01*
X94735Y256894D01*
X94605Y255906D01*
X94735Y254917D01*
X95117Y253995D01*
X95724Y253204D01*
X96515Y252597D01*
X97436Y252216D01*
X98425Y252085D01*
X99414Y252216D01*
X100335Y252597D01*
X101126Y253204D01*
X101734Y253995D01*
X102115Y254917D01*
X102245Y255906D01*
X102115Y256894D01*
X101734Y257816D01*
X101126Y258607D01*
X100335Y259214D01*
X99414Y259595D01*
X98425Y259726D01*
D02*
G37*
G36*
X442969Y304000D02*
X439500D01*
Y300531D01*
X440044Y300603D01*
X441017Y301006D01*
X441853Y301647D01*
X442494Y302483D01*
X442897Y303456D01*
X442969Y304000D01*
D02*
G37*
G36*
X429000Y308320D02*
X428011Y308190D01*
X427090Y307808D01*
X426299Y307201D01*
X425692Y306410D01*
X425310Y305489D01*
X425180Y304500D01*
X425310Y303511D01*
X425692Y302590D01*
X426299Y301799D01*
X427090Y301192D01*
X428011Y300810D01*
X429000Y300680D01*
X429989Y300810D01*
X430910Y301192D01*
X431701Y301799D01*
X432308Y302590D01*
X432690Y303511D01*
X432820Y304500D01*
X432690Y305489D01*
X432308Y306410D01*
X431701Y307201D01*
X430910Y307808D01*
X429989Y308190D01*
X429000Y308320D01*
D02*
G37*
G36*
X438500Y304000D02*
X435031D01*
X435103Y303456D01*
X435506Y302483D01*
X436147Y301647D01*
X436983Y301006D01*
X437956Y300603D01*
X438500Y300531D01*
Y304000D01*
D02*
G37*
G36*
X177165Y259726D02*
X176177Y259595D01*
X175255Y259214D01*
X174464Y258607D01*
X173857Y257816D01*
X173475Y256894D01*
X173345Y255906D01*
X173475Y254917D01*
X173857Y253995D01*
X174464Y253204D01*
X175255Y252597D01*
X176177Y252216D01*
X177165Y252085D01*
X178154Y252216D01*
X179075Y252597D01*
X179867Y253204D01*
X180474Y253995D01*
X180855Y254917D01*
X180985Y255906D01*
X180855Y256894D01*
X180474Y257816D01*
X179867Y258607D01*
X179075Y259214D01*
X178154Y259595D01*
X177165Y259726D01*
D02*
G37*
G36*
X523000Y286316D02*
X522142Y286203D01*
X521342Y285872D01*
X520655Y285345D01*
X520128Y284658D01*
X519985Y284313D01*
X479014D01*
X478871Y284658D01*
X478345Y285345D01*
X477658Y285872D01*
X476858Y286203D01*
X476000Y286316D01*
X475142Y286203D01*
X474342Y285872D01*
X473655Y285345D01*
X473129Y284658D01*
X472797Y283858D01*
X472684Y283000D01*
X472797Y282142D01*
X473129Y281342D01*
X473655Y280655D01*
X474342Y280129D01*
X475142Y279797D01*
X476000Y279684D01*
X476858Y279797D01*
X477658Y280129D01*
X478345Y280655D01*
X478871Y281342D01*
X479014Y281687D01*
X519985D01*
X520128Y281342D01*
X520655Y280655D01*
X521342Y280129D01*
X522142Y279797D01*
X523000Y279684D01*
X523858Y279797D01*
X524658Y280129D01*
X525345Y280655D01*
X525872Y281342D01*
X526203Y282142D01*
X526316Y283000D01*
X526203Y283858D01*
X525872Y284658D01*
X525345Y285345D01*
X524658Y285872D01*
X523858Y286203D01*
X523000Y286316D01*
D02*
G37*
G36*
X549000Y248320D02*
X548011Y248190D01*
X547090Y247808D01*
X546299Y247201D01*
X545692Y246410D01*
X545310Y245489D01*
X545180Y244500D01*
X545310Y243511D01*
X545692Y242590D01*
X546299Y241799D01*
X547090Y241192D01*
X548011Y240810D01*
X549000Y240680D01*
X549989Y240810D01*
X550910Y241192D01*
X551701Y241799D01*
X552308Y242590D01*
X552690Y243511D01*
X552820Y244500D01*
X552690Y245489D01*
X552308Y246410D01*
X551701Y247201D01*
X550910Y247808D01*
X549989Y248190D01*
X549000Y248320D01*
D02*
G37*
G36*
X469000D02*
X468011Y248190D01*
X467090Y247808D01*
X466299Y247201D01*
X465692Y246410D01*
X465310Y245489D01*
X465180Y244500D01*
X465310Y243511D01*
X465692Y242590D01*
X466299Y241799D01*
X467090Y241192D01*
X468011Y240810D01*
X469000Y240680D01*
X469989Y240810D01*
X470910Y241192D01*
X471701Y241799D01*
X472308Y242590D01*
X472690Y243511D01*
X472820Y244500D01*
X472690Y245489D01*
X472308Y246410D01*
X471701Y247201D01*
X470910Y247808D01*
X469989Y248190D01*
X469000Y248320D01*
D02*
G37*
G36*
X479000D02*
X478011Y248190D01*
X477090Y247808D01*
X476299Y247201D01*
X475692Y246410D01*
X475310Y245489D01*
X475180Y244500D01*
X475310Y243511D01*
X475692Y242590D01*
X476299Y241799D01*
X477090Y241192D01*
X478011Y240810D01*
X479000Y240680D01*
X479989Y240810D01*
X480910Y241192D01*
X481701Y241799D01*
X482308Y242590D01*
X482690Y243511D01*
X482820Y244500D01*
X482690Y245489D01*
X482308Y246410D01*
X481701Y247201D01*
X480910Y247808D01*
X479989Y248190D01*
X479000Y248320D01*
D02*
G37*
G36*
X449000D02*
X448011Y248190D01*
X447090Y247808D01*
X446299Y247201D01*
X445692Y246410D01*
X445310Y245489D01*
X445180Y244500D01*
X445310Y243511D01*
X445692Y242590D01*
X446299Y241799D01*
X447090Y241192D01*
X448011Y240810D01*
X449000Y240680D01*
X449989Y240810D01*
X450910Y241192D01*
X451701Y241799D01*
X452308Y242590D01*
X452690Y243511D01*
X452820Y244500D01*
X452690Y245489D01*
X452308Y246410D01*
X451701Y247201D01*
X450910Y247808D01*
X449989Y248190D01*
X449000Y248320D01*
D02*
G37*
G36*
X462969Y244000D02*
X459500D01*
Y240531D01*
X460044Y240603D01*
X461017Y241006D01*
X461853Y241647D01*
X462494Y242483D01*
X462897Y243456D01*
X462969Y244000D01*
D02*
G37*
G36*
X439000Y248320D02*
X438011Y248190D01*
X437090Y247808D01*
X436299Y247201D01*
X435692Y246410D01*
X435310Y245489D01*
X435180Y244500D01*
X435310Y243511D01*
X435692Y242590D01*
X436299Y241799D01*
X437090Y241192D01*
X438011Y240810D01*
X439000Y240680D01*
X439989Y240810D01*
X440910Y241192D01*
X441701Y241799D01*
X442308Y242590D01*
X442690Y243511D01*
X442820Y244500D01*
X442690Y245489D01*
X442308Y246410D01*
X441701Y247201D01*
X440910Y247808D01*
X439989Y248190D01*
X439000Y248320D01*
D02*
G37*
G36*
X489000D02*
X488011Y248190D01*
X487090Y247808D01*
X486299Y247201D01*
X485692Y246410D01*
X485310Y245489D01*
X485180Y244500D01*
X485310Y243511D01*
X485692Y242590D01*
X486299Y241799D01*
X487090Y241192D01*
X488011Y240810D01*
X489000Y240680D01*
X489989Y240810D01*
X490910Y241192D01*
X491701Y241799D01*
X492308Y242590D01*
X492690Y243511D01*
X492820Y244500D01*
X492690Y245489D01*
X492308Y246410D01*
X491701Y247201D01*
X490910Y247808D01*
X489989Y248190D01*
X489000Y248320D01*
D02*
G37*
G36*
X529000D02*
X528011Y248190D01*
X527090Y247808D01*
X526299Y247201D01*
X525692Y246410D01*
X525310Y245489D01*
X525180Y244500D01*
X525310Y243511D01*
X525692Y242590D01*
X526299Y241799D01*
X527090Y241192D01*
X528011Y240810D01*
X529000Y240680D01*
X529989Y240810D01*
X530910Y241192D01*
X531701Y241799D01*
X532308Y242590D01*
X532690Y243511D01*
X532820Y244500D01*
X532690Y245489D01*
X532308Y246410D01*
X531701Y247201D01*
X530910Y247808D01*
X529989Y248190D01*
X529000Y248320D01*
D02*
G37*
G36*
X539000D02*
X538011Y248190D01*
X537090Y247808D01*
X536299Y247201D01*
X535692Y246410D01*
X535310Y245489D01*
X535180Y244500D01*
X535310Y243511D01*
X535692Y242590D01*
X536299Y241799D01*
X537090Y241192D01*
X538011Y240810D01*
X539000Y240680D01*
X539989Y240810D01*
X540910Y241192D01*
X541701Y241799D01*
X542308Y242590D01*
X542690Y243511D01*
X542820Y244500D01*
X542690Y245489D01*
X542308Y246410D01*
X541701Y247201D01*
X540910Y247808D01*
X539989Y248190D01*
X539000Y248320D01*
D02*
G37*
G36*
X519000D02*
X518011Y248190D01*
X517090Y247808D01*
X516299Y247201D01*
X515692Y246410D01*
X515310Y245489D01*
X515180Y244500D01*
X515310Y243511D01*
X515692Y242590D01*
X516299Y241799D01*
X517090Y241192D01*
X518011Y240810D01*
X519000Y240680D01*
X519989Y240810D01*
X520910Y241192D01*
X521701Y241799D01*
X522308Y242590D01*
X522690Y243511D01*
X522820Y244500D01*
X522690Y245489D01*
X522308Y246410D01*
X521701Y247201D01*
X520910Y247808D01*
X519989Y248190D01*
X519000Y248320D01*
D02*
G37*
G36*
X499000D02*
X498011Y248190D01*
X497090Y247808D01*
X496299Y247201D01*
X495692Y246410D01*
X495310Y245489D01*
X495180Y244500D01*
X495310Y243511D01*
X495692Y242590D01*
X496299Y241799D01*
X497090Y241192D01*
X498011Y240810D01*
X499000Y240680D01*
X499989Y240810D01*
X500910Y241192D01*
X501701Y241799D01*
X502308Y242590D01*
X502690Y243511D01*
X502820Y244500D01*
X502690Y245489D01*
X502308Y246410D01*
X501701Y247201D01*
X500910Y247808D01*
X499989Y248190D01*
X499000Y248320D01*
D02*
G37*
G36*
X509000D02*
X508011Y248190D01*
X507090Y247808D01*
X506299Y247201D01*
X505692Y246410D01*
X505310Y245489D01*
X505180Y244500D01*
X505310Y243511D01*
X505692Y242590D01*
X506299Y241799D01*
X507090Y241192D01*
X508011Y240810D01*
X509000Y240680D01*
X509989Y240810D01*
X510910Y241192D01*
X511701Y241799D01*
X512308Y242590D01*
X512690Y243511D01*
X512820Y244500D01*
X512690Y245489D01*
X512308Y246410D01*
X511701Y247201D01*
X510910Y247808D01*
X509989Y248190D01*
X509000Y248320D01*
D02*
G37*
G36*
X449000Y308320D02*
X448011Y308190D01*
X447090Y307808D01*
X446299Y307201D01*
X445692Y306410D01*
X445310Y305489D01*
X445180Y304500D01*
X445310Y303511D01*
X445692Y302590D01*
X446299Y301799D01*
X447090Y301192D01*
X448011Y300810D01*
X449000Y300680D01*
X449989Y300810D01*
X450910Y301192D01*
X451701Y301799D01*
X452308Y302590D01*
X452690Y303511D01*
X452820Y304500D01*
X452690Y305489D01*
X452308Y306410D01*
X451701Y307201D01*
X450910Y307808D01*
X449989Y308190D01*
X449000Y308320D01*
D02*
G37*
G36*
X442921Y324000D02*
X439500D01*
Y320579D01*
X440032Y320649D01*
X440993Y321047D01*
X441819Y321681D01*
X442453Y322507D01*
X442851Y323468D01*
X442921Y324000D01*
D02*
G37*
G36*
X449000Y328272D02*
X448024Y328144D01*
X447114Y327767D01*
X446333Y327168D01*
X445733Y326386D01*
X445356Y325476D01*
X445228Y324500D01*
X445356Y323524D01*
X445733Y322614D01*
X446333Y321832D01*
X447114Y321233D01*
X448024Y320856D01*
X449000Y320728D01*
X449976Y320856D01*
X450886Y321233D01*
X451667Y321832D01*
X452267Y322614D01*
X452644Y323524D01*
X452772Y324500D01*
X452644Y325476D01*
X452267Y326386D01*
X451667Y327168D01*
X450886Y327767D01*
X449976Y328144D01*
X449000Y328272D01*
D02*
G37*
G36*
X438500Y324000D02*
X435079D01*
X435149Y323468D01*
X435547Y322507D01*
X436181Y321681D01*
X437007Y321047D01*
X437968Y320649D01*
X438500Y320579D01*
Y324000D01*
D02*
G37*
G36*
Y308469D02*
X437956Y308397D01*
X436983Y307994D01*
X436147Y307353D01*
X435506Y306517D01*
X435103Y305544D01*
X435031Y305000D01*
X438500D01*
Y308469D01*
D02*
G37*
G36*
X439500D02*
Y305000D01*
X442969D01*
X442897Y305544D01*
X442494Y306517D01*
X441853Y307353D01*
X441017Y307994D01*
X440044Y308397D01*
X439500Y308469D01*
D02*
G37*
G36*
X459000Y328272D02*
X458024Y328144D01*
X457114Y327767D01*
X456332Y327168D01*
X455733Y326386D01*
X455356Y325476D01*
X455228Y324500D01*
X455356Y323524D01*
X455733Y322614D01*
X456332Y321832D01*
X457114Y321233D01*
X458024Y320856D01*
X459000Y320728D01*
X459976Y320856D01*
X460886Y321233D01*
X461667Y321832D01*
X462267Y322614D01*
X462644Y323524D01*
X462772Y324500D01*
X462644Y325476D01*
X462267Y326386D01*
X461667Y327168D01*
X460886Y327767D01*
X459976Y328144D01*
X459000Y328272D01*
D02*
G37*
G36*
X499000D02*
X498024Y328144D01*
X497114Y327767D01*
X496333Y327168D01*
X495733Y326386D01*
X495356Y325476D01*
X495228Y324500D01*
X495356Y323524D01*
X495733Y322614D01*
X496333Y321832D01*
X497114Y321233D01*
X498024Y320856D01*
X499000Y320728D01*
X499976Y320856D01*
X500886Y321233D01*
X501667Y321832D01*
X502267Y322614D01*
X502644Y323524D01*
X502772Y324500D01*
X502644Y325476D01*
X502267Y326386D01*
X501667Y327168D01*
X500886Y327767D01*
X499976Y328144D01*
X499000Y328272D01*
D02*
G37*
G36*
X509000D02*
X508024Y328144D01*
X507114Y327767D01*
X506332Y327168D01*
X505733Y326386D01*
X505356Y325476D01*
X505228Y324500D01*
X505356Y323524D01*
X505733Y322614D01*
X506332Y321832D01*
X507114Y321233D01*
X508024Y320856D01*
X509000Y320728D01*
X509976Y320856D01*
X510886Y321233D01*
X511667Y321832D01*
X512267Y322614D01*
X512644Y323524D01*
X512772Y324500D01*
X512644Y325476D01*
X512267Y326386D01*
X511667Y327168D01*
X510886Y327767D01*
X509976Y328144D01*
X509000Y328272D01*
D02*
G37*
G36*
X489000D02*
X488024Y328144D01*
X487114Y327767D01*
X486333Y327168D01*
X485733Y326386D01*
X485356Y325476D01*
X485228Y324500D01*
X485356Y323524D01*
X485733Y322614D01*
X486333Y321832D01*
X487114Y321233D01*
X488024Y320856D01*
X489000Y320728D01*
X489976Y320856D01*
X490886Y321233D01*
X491668Y321832D01*
X492267Y322614D01*
X492644Y323524D01*
X492772Y324500D01*
X492644Y325476D01*
X492267Y326386D01*
X491668Y327168D01*
X490886Y327767D01*
X489976Y328144D01*
X489000Y328272D01*
D02*
G37*
G36*
X469000D02*
X468024Y328144D01*
X467114Y327767D01*
X466332Y327168D01*
X465733Y326386D01*
X465356Y325476D01*
X465228Y324500D01*
X465356Y323524D01*
X465733Y322614D01*
X466332Y321832D01*
X467114Y321233D01*
X468024Y320856D01*
X469000Y320728D01*
X469976Y320856D01*
X470886Y321233D01*
X471667Y321832D01*
X472267Y322614D01*
X472644Y323524D01*
X472772Y324500D01*
X472644Y325476D01*
X472267Y326386D01*
X471667Y327168D01*
X470886Y327767D01*
X469976Y328144D01*
X469000Y328272D01*
D02*
G37*
G36*
X479000D02*
X478024Y328144D01*
X477114Y327767D01*
X476333Y327168D01*
X475733Y326386D01*
X475356Y325476D01*
X475228Y324500D01*
X475356Y323524D01*
X475733Y322614D01*
X476333Y321832D01*
X477114Y321233D01*
X478024Y320856D01*
X479000Y320728D01*
X479976Y320856D01*
X480886Y321233D01*
X481668Y321832D01*
X482267Y322614D01*
X482644Y323524D01*
X482772Y324500D01*
X482644Y325476D01*
X482267Y326386D01*
X481668Y327168D01*
X480886Y327767D01*
X479976Y328144D01*
X479000Y328272D01*
D02*
G37*
G36*
X569000Y308320D02*
X568011Y308190D01*
X567090Y307808D01*
X566299Y307201D01*
X565692Y306410D01*
X565310Y305489D01*
X565180Y304500D01*
X565310Y303511D01*
X565692Y302590D01*
X566299Y301799D01*
X567090Y301192D01*
X568011Y300810D01*
X569000Y300680D01*
X569989Y300810D01*
X570910Y301192D01*
X571701Y301799D01*
X572308Y302590D01*
X572690Y303511D01*
X572820Y304500D01*
X572690Y305489D01*
X572308Y306410D01*
X571701Y307201D01*
X570910Y307808D01*
X569989Y308190D01*
X569000Y308320D01*
D02*
G37*
G36*
X489000D02*
X488011Y308190D01*
X487090Y307808D01*
X486299Y307201D01*
X485692Y306410D01*
X485310Y305489D01*
X485180Y304500D01*
X485310Y303511D01*
X485692Y302590D01*
X486299Y301799D01*
X487090Y301192D01*
X488011Y300810D01*
X489000Y300680D01*
X489989Y300810D01*
X490910Y301192D01*
X491701Y301799D01*
X492308Y302590D01*
X492690Y303511D01*
X492820Y304500D01*
X492690Y305489D01*
X492308Y306410D01*
X491701Y307201D01*
X490910Y307808D01*
X489989Y308190D01*
X489000Y308320D01*
D02*
G37*
G36*
X499000D02*
X498011Y308190D01*
X497090Y307808D01*
X496299Y307201D01*
X495692Y306410D01*
X495310Y305489D01*
X495180Y304500D01*
X495310Y303511D01*
X495692Y302590D01*
X496299Y301799D01*
X497090Y301192D01*
X498011Y300810D01*
X499000Y300680D01*
X499989Y300810D01*
X500910Y301192D01*
X501701Y301799D01*
X502308Y302590D01*
X502690Y303511D01*
X502820Y304500D01*
X502690Y305489D01*
X502308Y306410D01*
X501701Y307201D01*
X500910Y307808D01*
X499989Y308190D01*
X499000Y308320D01*
D02*
G37*
G36*
X479000D02*
X478011Y308190D01*
X477090Y307808D01*
X476299Y307201D01*
X475692Y306410D01*
X475310Y305489D01*
X475180Y304500D01*
X475310Y303511D01*
X475692Y302590D01*
X476299Y301799D01*
X477090Y301192D01*
X478011Y300810D01*
X479000Y300680D01*
X479989Y300810D01*
X480910Y301192D01*
X481701Y301799D01*
X482308Y302590D01*
X482690Y303511D01*
X482820Y304500D01*
X482690Y305489D01*
X482308Y306410D01*
X481701Y307201D01*
X480910Y307808D01*
X479989Y308190D01*
X479000Y308320D01*
D02*
G37*
G36*
X459000D02*
X458011Y308190D01*
X457090Y307808D01*
X456299Y307201D01*
X455692Y306410D01*
X455310Y305489D01*
X455180Y304500D01*
X455310Y303511D01*
X455692Y302590D01*
X456299Y301799D01*
X457090Y301192D01*
X458011Y300810D01*
X459000Y300680D01*
X459989Y300810D01*
X460910Y301192D01*
X461701Y301799D01*
X462308Y302590D01*
X462690Y303511D01*
X462820Y304500D01*
X462690Y305489D01*
X462308Y306410D01*
X461701Y307201D01*
X460910Y307808D01*
X459989Y308190D01*
X459000Y308320D01*
D02*
G37*
G36*
X469000D02*
X468011Y308190D01*
X467090Y307808D01*
X466299Y307201D01*
X465692Y306410D01*
X465310Y305489D01*
X465180Y304500D01*
X465310Y303511D01*
X465692Y302590D01*
X466299Y301799D01*
X467090Y301192D01*
X468011Y300810D01*
X469000Y300680D01*
X469989Y300810D01*
X470910Y301192D01*
X471701Y301799D01*
X472308Y302590D01*
X472690Y303511D01*
X472820Y304500D01*
X472690Y305489D01*
X472308Y306410D01*
X471701Y307201D01*
X470910Y307808D01*
X469989Y308190D01*
X469000Y308320D01*
D02*
G37*
G36*
X509000D02*
X508011Y308190D01*
X507090Y307808D01*
X506299Y307201D01*
X505692Y306410D01*
X505310Y305489D01*
X505180Y304500D01*
X505310Y303511D01*
X505692Y302590D01*
X506299Y301799D01*
X507090Y301192D01*
X508011Y300810D01*
X509000Y300680D01*
X509989Y300810D01*
X510910Y301192D01*
X511701Y301799D01*
X512308Y302590D01*
X512690Y303511D01*
X512820Y304500D01*
X512690Y305489D01*
X512308Y306410D01*
X511701Y307201D01*
X510910Y307808D01*
X509989Y308190D01*
X509000Y308320D01*
D02*
G37*
G36*
X549000D02*
X548011Y308190D01*
X547090Y307808D01*
X546299Y307201D01*
X545692Y306410D01*
X545310Y305489D01*
X545180Y304500D01*
X545310Y303511D01*
X545692Y302590D01*
X546299Y301799D01*
X547090Y301192D01*
X548011Y300810D01*
X549000Y300680D01*
X549989Y300810D01*
X550910Y301192D01*
X551701Y301799D01*
X552308Y302590D01*
X552690Y303511D01*
X552820Y304500D01*
X552690Y305489D01*
X552308Y306410D01*
X551701Y307201D01*
X550910Y307808D01*
X549989Y308190D01*
X549000Y308320D01*
D02*
G37*
G36*
X559000D02*
X558011Y308190D01*
X557090Y307808D01*
X556299Y307201D01*
X555692Y306410D01*
X555310Y305489D01*
X555180Y304500D01*
X555310Y303511D01*
X555692Y302590D01*
X556299Y301799D01*
X557090Y301192D01*
X558011Y300810D01*
X559000Y300680D01*
X559989Y300810D01*
X560910Y301192D01*
X561701Y301799D01*
X562308Y302590D01*
X562690Y303511D01*
X562820Y304500D01*
X562690Y305489D01*
X562308Y306410D01*
X561701Y307201D01*
X560910Y307808D01*
X559989Y308190D01*
X559000Y308320D01*
D02*
G37*
G36*
X539000D02*
X538011Y308190D01*
X537090Y307808D01*
X536299Y307201D01*
X535692Y306410D01*
X535310Y305489D01*
X535180Y304500D01*
X535310Y303511D01*
X535692Y302590D01*
X536299Y301799D01*
X537090Y301192D01*
X538011Y300810D01*
X539000Y300680D01*
X539989Y300810D01*
X540910Y301192D01*
X541701Y301799D01*
X542308Y302590D01*
X542690Y303511D01*
X542820Y304500D01*
X542690Y305489D01*
X542308Y306410D01*
X541701Y307201D01*
X540910Y307808D01*
X539989Y308190D01*
X539000Y308320D01*
D02*
G37*
G36*
X519000D02*
X518011Y308190D01*
X517090Y307808D01*
X516299Y307201D01*
X515692Y306410D01*
X515310Y305489D01*
X515180Y304500D01*
X515310Y303511D01*
X515692Y302590D01*
X516299Y301799D01*
X517090Y301192D01*
X518011Y300810D01*
X519000Y300680D01*
X519989Y300810D01*
X520910Y301192D01*
X521701Y301799D01*
X522308Y302590D01*
X522690Y303511D01*
X522820Y304500D01*
X522690Y305489D01*
X522308Y306410D01*
X521701Y307201D01*
X520910Y307808D01*
X519989Y308190D01*
X519000Y308320D01*
D02*
G37*
G36*
X529000D02*
X528011Y308190D01*
X527090Y307808D01*
X526299Y307201D01*
X525692Y306410D01*
X525310Y305489D01*
X525180Y304500D01*
X525310Y303511D01*
X525692Y302590D01*
X526299Y301799D01*
X527090Y301192D01*
X528011Y300810D01*
X529000Y300680D01*
X529989Y300810D01*
X530910Y301192D01*
X531701Y301799D01*
X532308Y302590D01*
X532690Y303511D01*
X532820Y304500D01*
X532690Y305489D01*
X532308Y306410D01*
X531701Y307201D01*
X530910Y307808D01*
X529989Y308190D01*
X529000Y308320D01*
D02*
G37*
%LPD*%
D15*
X257500Y38000D02*
X268000Y48500D01*
X98500Y38000D02*
X257500D01*
X102963Y24222D02*
X215679D01*
X98425Y19685D02*
X102963Y24222D01*
X215679D02*
X220956Y29500D01*
X223222Y24222D02*
X271457D01*
X218685Y19685D02*
X223222Y24222D01*
X177165Y19685D02*
X218685D01*
X279000Y35000D02*
Y53500D01*
X273500Y29500D02*
X279000Y35000D01*
X220956Y29500D02*
X273500D01*
X271457Y24222D02*
X281287Y34053D01*
X268000Y62500D02*
X273235D01*
X281287Y54448D01*
Y34053D02*
Y54448D01*
X277000Y55500D02*
X279000Y53500D01*
X268000Y55500D02*
X277000D01*
X268063Y82937D02*
X287063D01*
X297500Y72500D01*
Y66500D02*
Y72500D01*
Y66500D02*
X344315Y19685D01*
X413386D01*
X487311Y24500D02*
X492126Y19685D01*
X345790Y24500D02*
X487311D01*
X302000Y68290D02*
X345790Y24500D01*
X302000Y68290D02*
Y73000D01*
X285063Y89937D02*
X302000Y73000D01*
X267937Y89937D02*
X285063D01*
X402541Y26959D02*
X563592D01*
X347313Y82187D02*
X402541Y26959D01*
X563592D02*
X570866Y19685D01*
X351000Y515500D02*
X491500D01*
X345500Y521000D02*
X351000Y515500D01*
X345500Y521000D02*
Y555000D01*
X491500Y515500D02*
X514874Y492126D01*
X570866D01*
X19685D02*
X37059Y509500D01*
X256750D01*
X268000Y520750D01*
X98425Y492126D02*
X111799Y505500D01*
X264500D01*
X273500Y514500D01*
Y526000D01*
X271750Y527750D02*
X273500Y526000D01*
X268000Y527750D02*
X271750D01*
X276500Y507000D02*
Y532000D01*
X273750Y534750D02*
X276500Y532000D01*
X268000Y534750D02*
X273750D01*
X268000Y541750D02*
X278250D01*
X281000Y539000D01*
Y501000D02*
Y539000D01*
X272126Y492126D02*
X281000Y501000D01*
X255906Y492126D02*
X272126D01*
X317374D02*
X334646D01*
X285000Y524500D02*
X317374Y492126D01*
X285000Y524500D02*
Y545500D01*
X281750Y548750D02*
X285000Y545500D01*
X268000Y548750D02*
X281750D01*
X289500Y527500D02*
X311500Y505500D01*
X400012D01*
X413386Y492126D01*
X473752Y510500D02*
X492126Y492126D01*
X311500Y510500D02*
X473752D01*
X292500Y529500D02*
X311500Y510500D01*
X285750Y562750D02*
X292500Y556000D01*
X268000Y562750D02*
X285750D01*
X246000Y260500D02*
X408791D01*
X217000Y231500D02*
X246000Y260500D01*
X244000Y263500D02*
X484531D01*
X242500Y266500D02*
X560272D01*
X19685Y98425D02*
X88575D01*
X93500Y93500D01*
Y57000D02*
Y93500D01*
Y57000D02*
X102500Y48000D01*
X112500D01*
X341062Y98425D02*
X413386D01*
X336525Y102963D02*
X341062Y98425D01*
X340047Y102675D02*
X403175D01*
X233500Y105250D02*
X337473D01*
X487589Y566329D02*
X492126Y570866D01*
X411506Y566329D02*
X487589D01*
X108500Y559000D02*
Y565500D01*
Y559000D02*
X112500Y555000D01*
X114500D01*
X245500Y424500D02*
X559752D01*
X218000Y397000D02*
X245500Y424500D01*
X191500Y397000D02*
X218000D01*
X246500Y421000D02*
X484512D01*
X220213Y394713D02*
X246500Y421000D01*
X199713Y394713D02*
X220213D01*
X247500Y418000D02*
X408772D01*
X221925Y392425D02*
X247500Y418000D01*
X201925Y392425D02*
X221925D01*
X408791Y260500D02*
X413386Y255906D01*
X484531Y263500D02*
X492126Y255906D01*
X560272Y266500D02*
X570866Y255906D01*
X408772Y418000D02*
X413386Y413386D01*
X484512Y421000D02*
X492126Y413386D01*
X190500Y397000D02*
X191500D01*
X559752Y424500D02*
X570866Y413386D01*
X19685D02*
X78114D01*
X82000Y409500D01*
Y370500D02*
Y409500D01*
Y370500D02*
X89563Y362937D01*
X111563D01*
X19685Y255906D02*
X90095D01*
X92000Y254000D01*
Y207000D02*
Y254000D01*
Y207000D02*
X93063Y205937D01*
X110063D01*
X347313Y239687D02*
X409813D01*
X414500Y235000D01*
X571500D01*
X576000Y230500D01*
Y182299D02*
Y230500D01*
X570866Y177165D02*
X576000Y182299D01*
X329555Y235000D02*
X409000D01*
X413000Y231000D01*
X490350D01*
X494000Y227350D01*
Y221000D02*
Y227350D01*
X491500Y218500D02*
X494000Y221000D01*
X491500Y177791D02*
Y218500D01*
Y177791D02*
X492126Y177165D01*
X413386D02*
Y224114D01*
X322500Y189311D02*
X334646Y177165D01*
X305165D02*
X317500Y189500D01*
X255906Y177165D02*
X305165D01*
X304500Y185000D02*
X311500Y192000D01*
X185000Y185000D02*
X304500D01*
X177165Y177165D02*
X185000Y185000D01*
X347187Y397187D02*
X550313D01*
X570866Y376634D01*
Y334646D02*
Y376634D01*
X177165Y334646D02*
X246146D01*
X251500Y340000D01*
X98425Y334646D02*
X107280Y343500D01*
X255563Y348500D02*
X270000Y362937D01*
X33539Y348500D02*
X255563D01*
X19685Y334646D02*
X33539Y348500D01*
X475014Y115537D02*
X492126Y98425D01*
X403175Y102675D02*
X416037Y115537D01*
X551467Y117825D02*
X570866Y98425D01*
X399463Y104963D02*
X412325Y117825D01*
X551467D01*
X416037Y115537D02*
X475014D01*
X184968Y396032D02*
X188500Y392500D01*
X197500D01*
X199713Y394713D01*
X113000Y396500D02*
X144000D01*
X154500Y407000D01*
Y422000D01*
X169878Y430325D02*
X184968Y415235D01*
Y396032D02*
Y415235D01*
X154500Y422000D02*
X160537Y428037D01*
X168931D01*
X182681Y414287D01*
Y395085D02*
Y414287D01*
Y395085D02*
X188409Y389356D01*
X198856D01*
X201925Y392425D01*
X112937Y404937D02*
X146437D01*
X152213Y410713D01*
Y422948D01*
X159590Y430325D01*
X169878D01*
X216000Y235500D02*
X244000Y263500D01*
X216000Y240000D02*
X242500Y266500D01*
X209500Y240000D02*
X216000D01*
X201000Y235500D02*
X216000D01*
X188000Y248500D02*
X201000Y235500D01*
X188000Y248500D02*
Y262500D01*
X176500Y274000D02*
X188000Y262500D01*
X149500Y274000D02*
X176500D01*
X142000Y266500D02*
X149500Y274000D01*
X142000Y256500D02*
Y266500D01*
X132500Y247000D02*
X142000Y256500D01*
X112500Y247000D02*
X132500D01*
X185000Y246000D02*
X199500Y231500D01*
X185000Y246000D02*
Y261000D01*
X174463Y271537D02*
X185000Y261000D01*
X151537Y271537D02*
X174463D01*
X145000Y253000D02*
Y265000D01*
X132000Y240000D02*
X145000Y253000D01*
X112500Y240000D02*
X132000D01*
X145000Y265000D02*
X151537Y271537D01*
X199500Y231500D02*
X217000D01*
X340995Y104963D02*
X399463D01*
X337473Y105250D02*
X340047Y102675D01*
X204500Y82500D02*
X229537Y107537D01*
X338420D01*
X340995Y104963D01*
X198500Y82790D02*
X202828Y78463D01*
X206713D01*
X233500Y105250D01*
X193500Y82500D02*
X201000Y75000D01*
X208537D01*
X236500Y102963D01*
X336525D01*
X173463Y135537D02*
X193500Y115500D01*
Y82500D02*
Y115500D01*
X175000Y138000D02*
X198500Y114500D01*
Y82790D02*
Y114500D01*
X158963Y129672D02*
X164828Y135537D01*
X173463D01*
X113000Y82000D02*
X141500D01*
X158963Y99463D01*
Y129672D01*
X113063Y89937D02*
X143437D01*
X156675Y103175D01*
Y130620D01*
X163880Y137825D01*
X174825D01*
X175000Y138000D01*
X291063Y219437D02*
X311500Y199000D01*
Y192000D02*
Y199000D01*
X289563Y226437D02*
X317500Y198500D01*
Y189500D02*
Y198500D01*
X289000Y233500D02*
X322500Y200000D01*
Y189311D02*
Y200000D01*
X274650Y235787D02*
X289948D01*
X279362Y238075D02*
X290895D01*
X330290Y232500D02*
X405000D01*
X413386Y224114D01*
X290895Y238075D02*
X304007Y224963D01*
X319518D01*
X329555Y235000D01*
X289948Y235787D02*
X303735Y222000D01*
X319790D01*
X330290Y232500D01*
X270000Y219437D02*
X291063D01*
X270000Y247437D02*
X279362Y238075D01*
X270000Y226437D02*
X289563D01*
X270000Y233500D02*
X289000D01*
X270000Y240437D02*
X274650Y235787D01*
X270000Y369937D02*
X292063D01*
X107280Y343500D02*
X293000D01*
X295500Y346000D01*
Y366500D01*
X292063Y369937D02*
X295500Y366500D01*
X251500Y340000D02*
X295500D01*
X301500Y346000D01*
X270000Y376937D02*
X291063D01*
X301500Y366500D01*
Y346000D02*
Y366500D01*
X270000Y383937D02*
X289563D01*
X306000Y367500D01*
X255906Y334646D02*
X297646D01*
X306000Y343000D01*
Y367500D01*
X270000Y390937D02*
X289563D01*
X310000Y370500D01*
Y342500D02*
Y370500D01*
Y342500D02*
X317854Y334646D01*
X334646D01*
X346354D02*
X413386D01*
X341000Y340000D02*
X346354Y334646D01*
X319500Y340000D02*
X341000D01*
X314500Y345000D02*
X319500Y340000D01*
X314500Y345000D02*
Y372000D01*
X288563Y397937D02*
X314500Y372000D01*
X270000Y397937D02*
X288563D01*
X428354Y334646D02*
X492126D01*
X423817Y339183D02*
X428354Y334646D01*
X411506Y339183D02*
X423817D01*
X411323Y339000D02*
X411506Y339183D01*
X349000Y339000D02*
X411323D01*
X344000Y344000D02*
X349000Y339000D01*
X322500Y344000D02*
X344000D01*
X319000Y347500D02*
X322500Y344000D01*
X319000Y347500D02*
Y373937D01*
X288000Y404937D02*
X319000Y373937D01*
X270000Y404937D02*
X288000D01*
X270000Y212437D02*
X292563D01*
X305500Y199500D01*
Y194000D02*
Y199500D01*
X300000Y188500D02*
X305500Y194000D01*
X19685Y177165D02*
X34020Y191500D01*
X193937Y205437D02*
X270000D01*
X180000Y191500D02*
X193937Y205437D01*
X98425Y177165D02*
X109760Y188500D01*
X34020Y191500D02*
X180000D01*
X109760Y188500D02*
X300000D01*
X19685Y19685D02*
X26000Y26000D01*
X86500D01*
X98500Y38000D01*
X410559Y564041D02*
X564041D01*
X570866Y570866D01*
X268000Y76500D02*
X288500D01*
X293500Y71500D01*
X255906Y19685D02*
X284685D01*
X268000Y69500D02*
X286000D01*
X288500Y67000D01*
X284685Y19685D02*
X288500Y23500D01*
Y67000D01*
X293500Y60831D02*
Y71500D01*
Y60831D02*
X334646Y19685D01*
X187000Y555000D02*
X198329Y566329D01*
X408272D02*
X410559Y564041D01*
X332766Y566329D02*
X408272D01*
X198329D02*
X258240D01*
X261949Y570037D01*
X329058D01*
X332766Y566329D01*
X292500Y529500D02*
Y556000D01*
X268000Y555750D02*
X286750D01*
X289500Y553000D01*
Y527500D02*
Y553000D01*
X114250Y562750D02*
X117829Y566329D01*
X179045D01*
X188120Y575403D01*
X402431D01*
X411506Y566329D01*
X108500Y565500D02*
X120691Y577691D01*
X406561D01*
X413386Y570866D01*
X269500Y500000D02*
X276500Y507000D01*
X177165Y492126D02*
X185039Y500000D01*
X269500D01*
D16*
X431000Y38500D02*
X453000D01*
X429000Y40500D02*
X431000Y38500D01*
X331500Y113000D02*
X343500D01*
X347500Y109000D01*
X344000Y120000D02*
X347500Y116500D01*
X331500Y120000D02*
X344000D01*
Y127500D02*
X347500Y124000D01*
X331500Y127500D02*
X344000D01*
Y134500D02*
X347500Y131000D01*
X331500Y134500D02*
X344000D01*
Y141500D02*
X347500Y138000D01*
X331500Y141500D02*
X344000D01*
X169750Y412750D02*
X180000Y402500D01*
Y373000D02*
Y402500D01*
X169750Y412750D02*
Y419250D01*
X334575Y199575D02*
Y220925D01*
X334000Y199000D02*
X334575Y199575D01*
X334500Y221000D02*
X334575Y220925D01*
X328500Y524000D02*
Y541500D01*
X469000Y87000D02*
Y98500D01*
X529000Y87000D02*
Y99000D01*
X549000Y87000D02*
Y103000D01*
X539000Y87000D02*
Y97500D01*
X174500Y525500D02*
Y536500D01*
X170000Y520000D02*
Y541500D01*
X174500Y210500D02*
Y221000D01*
X170000Y203500D02*
Y226000D01*
X160000Y241500D02*
Y262500D01*
Y241500D02*
X170000Y231500D01*
Y226000D02*
Y231500D01*
X328000Y362000D02*
Y383500D01*
X164750Y246250D02*
X174500Y236500D01*
Y221000D02*
Y236500D01*
X333500Y357000D02*
Y378500D01*
X169750Y251250D02*
X179500Y241500D01*
Y216000D02*
Y241500D01*
X160000Y403000D02*
Y419000D01*
X164750Y407750D02*
X175000Y397500D01*
Y378000D02*
Y397500D01*
X160000Y403000D02*
X170500Y392500D01*
Y383000D02*
Y392500D01*
X328000Y49500D02*
Y68500D01*
X170500D02*
Y79000D01*
X332000Y44000D02*
Y63000D01*
X175000Y63500D02*
Y84000D01*
X180000Y58500D02*
Y89000D01*
X333000Y536125D02*
X333187Y536313D01*
X333000Y518000D02*
Y536125D01*
X429000Y40500D02*
Y58000D01*
X454000Y158500D02*
X499000D01*
X444000Y155000D02*
X444287Y154713D01*
X488787D02*
X489000Y154500D01*
X444287Y154713D02*
X488787D01*
X175000Y366500D02*
Y378000D01*
X170500Y360500D02*
Y383000D01*
X172878Y127378D02*
X173189Y127689D01*
X172878Y96122D02*
X180000Y89000D01*
X172878Y96122D02*
Y127378D01*
X168000Y91000D02*
X175000Y84000D01*
X168000Y91000D02*
Y131500D01*
X164750Y246250D02*
Y268250D01*
Y407750D02*
Y424250D01*
X163000Y86500D02*
X170500Y79000D01*
X163000Y86500D02*
Y128000D01*
X329500Y206000D02*
Y226000D01*
X476000Y283000D02*
X523000D01*
X524000Y77500D02*
Y102500D01*
X530500Y109000D01*
X552000D01*
X567500Y93500D01*
X574000D01*
X577000Y96500D01*
X459000Y129000D02*
X465500Y122500D01*
X459000Y129000D02*
Y147000D01*
X465500Y122500D02*
X556000D01*
X577000Y101500D01*
Y96500D02*
Y101500D01*
X514500Y185000D02*
X520500D01*
X501500Y172000D02*
X514500Y185000D01*
X445500Y172000D02*
X501500D01*
X445000Y171500D02*
X445500Y172000D01*
X520500Y185000D02*
X570500D01*
X169750Y251250D02*
Y262500D01*
D17*
X429000Y136500D02*
Y146000D01*
Y99000D02*
Y111500D01*
X408500Y78500D02*
X429000Y99000D01*
Y147000D02*
X429500Y146500D01*
X379500Y78500D02*
X408500D01*
X372260Y71260D02*
X379500Y78500D01*
X459000Y87000D02*
Y90000D01*
X439500Y109500D02*
X459000Y90000D01*
X439500Y109500D02*
Y111500D01*
X438500Y136500D02*
Y146500D01*
X439000Y147000D01*
X459000Y185500D02*
Y226000D01*
X288500Y94500D02*
X311500Y71500D01*
X266437Y94500D02*
X288500D01*
X286500Y254000D02*
X311500Y229000D01*
X175500Y198000D02*
X189000Y211500D01*
X160500Y198000D02*
X175500D01*
X154000Y204500D02*
X160500Y198000D01*
X154000Y204500D02*
Y227500D01*
X266500Y254000D02*
X286500D01*
X263000Y250500D02*
X266500Y254000D01*
X189000Y211500D02*
X253000D01*
X263000Y221500D01*
Y250500D01*
X289776Y409224D02*
X312000Y387000D01*
X264724Y409224D02*
X289776D01*
X258500Y403000D02*
X264724Y409224D01*
X258500Y364500D02*
Y403000D01*
X247500Y353500D02*
X258500Y364500D01*
X161500Y353500D02*
X247500D01*
X154000Y361000D02*
X161500Y353500D01*
X154000Y361000D02*
Y386500D01*
X311500Y543500D02*
Y551000D01*
X256000Y523500D02*
Y560500D01*
X247000Y514500D02*
X256000Y523500D01*
X160500Y514500D02*
X247000D01*
X154500Y520500D02*
X160500Y514500D01*
X154500Y520500D02*
Y544000D01*
X111000Y71500D02*
X154000D01*
X104500Y78000D02*
X111000Y71500D01*
X104500Y78000D02*
Y156500D01*
X96500Y164500D02*
X104500Y156500D01*
X17500Y164500D02*
X96500D01*
X12500Y169500D02*
X17500Y164500D01*
X12500Y169500D02*
Y188000D01*
X23500Y199000D01*
X148500D01*
X154000Y204500D01*
X115500Y227500D02*
X154000D01*
X106500Y236500D02*
X115500Y227500D01*
X106500Y236500D02*
Y295000D01*
X84500Y317000D02*
X106500Y295000D01*
X21000Y317000D02*
X84500D01*
X24000Y355000D02*
X148000D01*
X154000Y361000D01*
X102500Y386500D02*
X154000D01*
X90000Y399000D02*
X102500Y386500D01*
X90000Y399000D02*
Y454000D01*
X63500Y480500D02*
X90000Y454000D01*
X21000Y480500D02*
X63500D01*
X13000Y488500D02*
X21000Y480500D01*
X151500Y517500D02*
X154500Y520500D01*
X13000Y488500D02*
Y508000D01*
X22500Y517500D01*
X151500D01*
X312000Y387000D02*
X323000Y376000D01*
Y351000D02*
Y376000D01*
Y351000D02*
X326000Y348000D01*
X346000D01*
X350500Y343500D01*
X411500D01*
X416000Y348000D01*
Y363000D01*
X450500Y253000D02*
X459000Y244500D01*
X425000Y253000D02*
X450500D01*
X418000Y246000D02*
X425000Y253000D01*
X328500Y246000D02*
X418000D01*
X311500Y229000D02*
X328500Y246000D01*
X429000Y146000D02*
X429500Y146500D01*
X425500Y123500D02*
X438500Y136500D01*
X390500Y123500D02*
X425500D01*
X387500Y126500D02*
X390500Y123500D01*
X387500Y126500D02*
Y139000D01*
X387000Y139500D02*
X387500Y139000D01*
X154000Y48000D02*
Y71500D01*
Y48000D02*
X160000Y42000D01*
X251000D01*
X261500Y89563D02*
X266437Y94500D01*
X251000Y42000D02*
X261500Y52500D01*
Y89563D01*
X551181Y14898D02*
Y15748D01*
X25500Y42000D02*
X160000D01*
X39370Y574803D02*
Y575654D01*
Y574803D02*
X70173Y544000D01*
X154500D01*
X439000Y165500D02*
X445000Y171500D01*
X445500Y172000D02*
X459000Y185500D01*
X12500Y29000D02*
X25500Y42000D01*
X39370Y15748D02*
X40220Y14898D01*
X12500Y19000D02*
Y29000D01*
Y19000D02*
X17500Y14000D01*
X39370D02*
Y15748D01*
X13500Y324500D02*
X21000Y317000D01*
X13500Y324500D02*
Y344500D01*
X24000Y355000D01*
X256000Y560500D02*
X262537Y567037D01*
X295463D01*
X311500Y551000D01*
X547772Y580228D02*
X552500Y575500D01*
X17500Y14000D02*
X39370D01*
X40220Y14898D02*
X551181D01*
D18*
X570866Y19685D02*
D03*
X492126D02*
D03*
X413386D02*
D03*
X334646D02*
D03*
X255906D02*
D03*
X177165D02*
D03*
X98425D02*
D03*
X19685D02*
D03*
X570866Y98425D02*
D03*
X492126D02*
D03*
X413386D02*
D03*
X334646D02*
D03*
X255906D02*
D03*
X177165D02*
D03*
X98425D02*
D03*
X19685D02*
D03*
X570866Y177165D02*
D03*
X492126D02*
D03*
X413386D02*
D03*
X334646D02*
D03*
X255906D02*
D03*
X177165D02*
D03*
X98425D02*
D03*
X19685D02*
D03*
X570866Y255906D02*
D03*
X492126D02*
D03*
X413386D02*
D03*
X334646D02*
D03*
X255906D02*
D03*
X177165D02*
D03*
X98425D02*
D03*
X19685D02*
D03*
X570866Y334646D02*
D03*
X492126D02*
D03*
X413386D02*
D03*
X334646D02*
D03*
X255906D02*
D03*
X177165D02*
D03*
X98425D02*
D03*
X19685D02*
D03*
X570866Y413386D02*
D03*
X492126D02*
D03*
X413386D02*
D03*
X334646D02*
D03*
X255906D02*
D03*
X177165D02*
D03*
X98425D02*
D03*
X19685D02*
D03*
X570866Y492126D02*
D03*
X492126D02*
D03*
X413386D02*
D03*
X334646D02*
D03*
X255906D02*
D03*
X177165D02*
D03*
X98425D02*
D03*
X19685D02*
D03*
X570866Y570866D02*
D03*
X492126D02*
D03*
X413386D02*
D03*
X334646D02*
D03*
X255906D02*
D03*
X177165D02*
D03*
X98425D02*
D03*
X19685D02*
D03*
X59055Y31496D02*
D03*
X137795D02*
D03*
X216535D02*
D03*
X295276D02*
D03*
X374016D02*
D03*
X452756D02*
D03*
X531496D02*
D03*
X551181D02*
D03*
X569000Y304500D02*
D03*
X559000D02*
D03*
X539000D02*
D03*
X529000D02*
D03*
X549000D02*
D03*
X519000D02*
D03*
X509000D02*
D03*
X499000D02*
D03*
X489000D02*
D03*
X479000D02*
D03*
X469000D02*
D03*
X459000D02*
D03*
X449000D02*
D03*
X439000D02*
D03*
X569000Y244500D02*
D03*
X559000D02*
D03*
X429000Y304500D02*
D03*
X439000Y244500D02*
D03*
X449000D02*
D03*
X459000D02*
D03*
X469000D02*
D03*
X479000D02*
D03*
X489000D02*
D03*
X499000D02*
D03*
X509000D02*
D03*
X519000D02*
D03*
X529000D02*
D03*
X539000D02*
D03*
X549000D02*
D03*
X476000Y363000D02*
D03*
X466000D02*
D03*
X456000D02*
D03*
X446000D02*
D03*
X436000D02*
D03*
X426000D02*
D03*
X416000D02*
D03*
X406000D02*
D03*
X529500Y362500D02*
D03*
X509500D02*
D03*
X519500D02*
D03*
X539500D02*
D03*
X549500D02*
D03*
X549000Y87000D02*
D03*
X539000D02*
D03*
X529000D02*
D03*
X519000D02*
D03*
X509000D02*
D03*
X499000D02*
D03*
X489000D02*
D03*
X479000D02*
D03*
X469000D02*
D03*
X459000D02*
D03*
X449000D02*
D03*
X439000D02*
D03*
X429000Y147000D02*
D03*
X559000Y87000D02*
D03*
X569000D02*
D03*
X439000Y147000D02*
D03*
X449000D02*
D03*
X459000D02*
D03*
X469000D02*
D03*
X479000D02*
D03*
X489000D02*
D03*
X499000D02*
D03*
X509000D02*
D03*
X519000D02*
D03*
X549000D02*
D03*
X529000D02*
D03*
X539000D02*
D03*
X559000D02*
D03*
X569000D02*
D03*
D19*
X429000Y244500D02*
D03*
Y87000D02*
D03*
D20*
Y68000D02*
D03*
Y165500D02*
D03*
Y226000D02*
D03*
Y324500D02*
D03*
D21*
X439000Y68000D02*
D03*
X449000D02*
D03*
X459000D02*
D03*
X469000D02*
D03*
X479000D02*
D03*
X489000D02*
D03*
X499000D02*
D03*
X509000D02*
D03*
X519000D02*
D03*
X529000D02*
D03*
X539000D02*
D03*
X549000D02*
D03*
X559000D02*
D03*
X569000D02*
D03*
X439000Y165500D02*
D03*
X449000D02*
D03*
X459000D02*
D03*
X469000D02*
D03*
X479000D02*
D03*
X489000D02*
D03*
X499000D02*
D03*
X509000D02*
D03*
X519000D02*
D03*
X529000D02*
D03*
X539000D02*
D03*
X549000D02*
D03*
X559000D02*
D03*
X569000D02*
D03*
X439000Y226000D02*
D03*
X449000D02*
D03*
X459000D02*
D03*
X469000D02*
D03*
X479000D02*
D03*
X489000D02*
D03*
X499000D02*
D03*
X509000D02*
D03*
X519000D02*
D03*
X529000D02*
D03*
X539000D02*
D03*
X549000D02*
D03*
X559000D02*
D03*
X569000D02*
D03*
X439000Y324500D02*
D03*
X449000D02*
D03*
X459000D02*
D03*
X469000D02*
D03*
X479000D02*
D03*
X489000D02*
D03*
X499000D02*
D03*
X509000D02*
D03*
X519000D02*
D03*
X529000D02*
D03*
X539000D02*
D03*
X549000D02*
D03*
X559000D02*
D03*
X569000D02*
D03*
D22*
X39370Y15748D02*
D03*
X551181D02*
D03*
X39370Y574803D02*
D03*
X552500Y575500D02*
D03*
D23*
X570500Y205000D02*
D03*
Y185000D02*
D03*
X520500Y205000D02*
D03*
Y185000D02*
D03*
D24*
X268000Y76500D02*
D03*
Y62500D02*
D03*
X347313Y82187D02*
D03*
Y239687D02*
D03*
X347187Y397187D02*
D03*
X345500Y555000D02*
D03*
X268000Y520750D02*
D03*
Y527750D02*
D03*
Y534750D02*
D03*
Y541750D02*
D03*
Y548750D02*
D03*
Y562750D02*
D03*
X270000Y362937D02*
D03*
Y369937D02*
D03*
Y376937D02*
D03*
Y383937D02*
D03*
Y390937D02*
D03*
Y397937D02*
D03*
Y205437D02*
D03*
Y212437D02*
D03*
X268000Y48500D02*
D03*
Y55500D02*
D03*
X268063Y82937D02*
D03*
X267937Y89937D02*
D03*
X331500Y113000D02*
D03*
Y120000D02*
D03*
Y127500D02*
D03*
Y134500D02*
D03*
Y141500D02*
D03*
X347500Y138000D02*
D03*
Y131000D02*
D03*
Y124000D02*
D03*
Y109000D02*
D03*
X112500Y48000D02*
D03*
X113000Y82000D02*
D03*
X113063Y89937D02*
D03*
X187000Y555000D02*
D03*
X114500D02*
D03*
X114250Y562750D02*
D03*
X191500Y397000D02*
D03*
X170000Y419500D02*
D03*
X164500Y424000D02*
D03*
X111563Y362937D02*
D03*
X112937Y404937D02*
D03*
X113000Y396500D02*
D03*
X334500Y221000D02*
D03*
X110063Y205937D02*
D03*
X328500Y541500D02*
D03*
X112500Y240000D02*
D03*
Y247000D02*
D03*
X429000Y136500D02*
D03*
Y111500D02*
D03*
X372260Y71260D02*
D03*
X499000Y158500D02*
D03*
X444000Y155000D02*
D03*
X469000Y98500D02*
D03*
X529000Y99000D02*
D03*
X539000D02*
D03*
X549000Y103000D02*
D03*
X170000Y520000D02*
D03*
X174500Y525500D02*
D03*
X160000Y419000D02*
D03*
X170000Y262500D02*
D03*
X164500Y267500D02*
D03*
X160000Y262500D02*
D03*
X170000Y203500D02*
D03*
X174500Y210500D02*
D03*
X329500Y226000D02*
D03*
X170000D02*
D03*
X328000Y383500D02*
D03*
Y362000D02*
D03*
X334000Y199000D02*
D03*
X174500Y221000D02*
D03*
X333500Y378500D02*
D03*
Y357000D02*
D03*
X179500Y216000D02*
D03*
X180000Y373000D02*
D03*
X175000Y378000D02*
D03*
X170500Y383000D02*
D03*
X328000Y68500D02*
D03*
Y49500D02*
D03*
X170500Y68500D02*
D03*
X332000Y63000D02*
D03*
Y44000D02*
D03*
X175000Y63500D02*
D03*
X180000Y58500D02*
D03*
X170000Y541500D02*
D03*
X174500Y536500D02*
D03*
X179500Y531500D02*
D03*
X333000Y518000D02*
D03*
X328500Y524000D02*
D03*
X333187Y536313D02*
D03*
X347500Y116500D02*
D03*
X429000Y58000D02*
D03*
X453000Y38500D02*
D03*
X439500Y111500D02*
D03*
X438500Y136500D02*
D03*
X489000Y154500D02*
D03*
X454000Y158500D02*
D03*
X311500Y229000D02*
D03*
X154000Y227500D02*
D03*
Y386500D02*
D03*
X311500Y543500D02*
D03*
X154500Y544000D02*
D03*
X175000Y366500D02*
D03*
X170500Y360500D02*
D03*
X209500Y240000D02*
D03*
X204500Y82500D02*
D03*
X173189Y127689D02*
D03*
X168000Y131500D02*
D03*
X163000Y128000D02*
D03*
X311500Y71500D02*
D03*
X154000D02*
D03*
X329500Y206000D02*
D03*
X270000Y219437D02*
D03*
Y247437D02*
D03*
Y226437D02*
D03*
Y233500D02*
D03*
Y240437D02*
D03*
X312000Y387000D02*
D03*
X270000Y404937D02*
D03*
X523000Y283000D02*
D03*
X476000D02*
D03*
X524000Y77500D02*
D03*
X387500Y126500D02*
D03*
X387000Y139500D02*
D03*
X268000Y69500D02*
D03*
Y555750D02*
D03*
X18500Y64000D02*
D03*
Y225000D02*
D03*
Y291500D02*
D03*
Y373000D02*
D03*
Y453000D02*
D03*
Y542000D02*
D03*
X223000Y540500D02*
D03*
X225000Y453000D02*
D03*
Y373000D02*
D03*
X225500Y291500D02*
D03*
X226000Y224500D02*
D03*
X18500Y136500D02*
D03*
X227500Y66000D02*
D03*
X378000Y175000D02*
D03*
Y199000D02*
D03*
Y291500D02*
D03*
Y373000D02*
D03*
Y453000D02*
D03*
X486000Y348000D02*
D03*
X453000Y282000D02*
D03*
X557500Y283000D02*
D03*
X555000Y132500D02*
D03*
X480000Y133500D02*
D03*
M02*
