M48
;Layer_Color=9474304
;FILE_FORMAT=2:5
INCH,TZ
;TYPE=PLATED
T1F00S00C0.02800
T2F00S00C0.03000
T3F00S00C0.03150
T4F00S00C0.03500
T5F00S00C0.03543
T6F00S00C0.12205
%
T01
X18500Y64000
Y136500
X113063Y89937
X113000Y82000
X112500Y48000
X154000Y71500
X170500Y68500
X175000Y63500
X180000Y58500
X204500Y82500
X227500Y66000
X268000Y62500
Y55500
Y48500
Y69500
Y76500
X268063Y82937
X267937Y89937
X173189Y127689
X168000Y131500
X163000Y128000
X331500Y127500
Y134500
Y141500
X347500Y138000
Y131000
Y124000
Y116500
Y109000
X331500Y113000
Y120000
X347313Y82187
X328000Y68500
X332000Y63000
X328000Y49500
X332000Y44000
X311500Y71500
X372260Y71260
X387500Y126500
X387000Y139500
X429000Y136500
X438500
X444000Y155000
X454000Y158500
X489000Y154500
X499000Y158500
X480000Y133500
X469000Y98500
X439500Y111500
X429000
Y58000
X453000Y38500
X524000Y77500
X529000Y99000
X539000
X549000Y103000
X555000Y132500
X557500Y283000
X523000
X476000
X453000Y282000
X378000Y291500
X347313Y239687
X334500Y221000
X329500Y226000
Y206000
X334000Y199000
X378000
Y175000
X311500Y229000
X270000Y226437
Y219437
Y212437
Y205437
Y233500
Y240437
Y247437
X226000Y224500
X209500Y240000
X170000Y226000
X174500Y221000
X179500Y216000
X174500Y210500
X170000Y203500
X154000Y227500
X160000Y262500
X164500Y267500
X170000Y262500
X112500Y247000
Y240000
X225500Y291500
X110063Y205937
X18500Y225000
Y291500
Y373000
Y453000
X111563Y362937
X113000Y396500
X112937Y404937
X154000Y386500
X170500Y383000
X175000Y378000
X180000Y373000
X175000Y366500
X170500Y360500
X191500Y397000
X170000Y419500
X164500Y424000
X160000Y419000
X225000Y453000
Y373000
X270000Y369937
Y362937
Y376937
Y383937
Y390937
Y397937
Y404937
X312000Y387000
X328000Y383500
X333500Y378500
Y357000
X328000Y362000
X347187Y397187
X378000Y373000
Y453000
X486000Y348000
X333000Y518000
X328500Y524000
X333187Y536313
X328500Y541500
X311500Y543500
X345500Y555000
X268000Y555750
Y548750
Y541750
Y534750
Y527750
Y520750
Y562750
X223000Y540500
X187000Y555000
X170000Y541500
X174500Y536500
X179500Y531500
X174500Y525500
X170000Y520000
X154500Y544000
X114500Y555000
X114250Y562750
X18500Y542000
T02
X19685Y19685
X59055Y31496
X98425Y19685
Y98425
X19685
X177165
Y19685
X137795Y31496
X216535
X255906Y19685
Y98425
X334646
Y19685
X295276Y31496
X374016
X413386Y19685
Y98425
X429000Y87000
X439000
X449000
X459000
X469000
X479000
X489000
X499000
X509000
X519000
X529000
X539000
X549000
X559000
X569000
X570866Y98425
X569000Y147000
X559000
X549000
X539000
X529000
X519000
X509000
X499000
X489000
X479000
X469000
X459000
X449000
X439000
X429000
X492126Y98425
Y19685
X452756Y31496
X531496
X551181
X570866Y19685
Y177165
X569000Y244500
X559000
X549000
X539000
X529000
X519000
X509000
X499000
X489000
X479000
X469000
X459000
X449000
X439000
X429000
Y304500
X439000
X449000
X459000
X469000
X479000
X489000
X499000
X509000
X519000
X529000
X539000
X549000
X559000
X569000
X570866Y255906
X492126
Y177165
X413386
X334646
Y255906
X413386
X255906
Y177165
X177165
Y255906
X98425
Y177165
X19685
Y255906
Y334646
X98425
Y413386
X19685
X177165
Y334646
X255906
Y413386
X334646
Y334646
X413386
Y413386
X492126
Y334646
X570866
Y413386
Y492126
X492126
Y570866
X570866
X413386
Y492126
X334646
Y570866
X255906
Y492126
X177165
Y570866
X98425
Y492126
X19685
Y570866
T03
X520500Y185000
Y205000
X570500
Y185000
T04
X406000Y363000
X416000
X426000
X436000
X446000
X456000
X466000
X476000
X509500Y362500
X519500
X529500
X539500
X549500
T05
X429000Y68000
X439000
X449000
X459000
X469000
X479000
X489000
X499000
X509000
X519000
X529000
X539000
X549000
X559000
X569000
Y165500
X559000
X549000
X539000
X529000
X519000
X509000
X499000
X489000
X479000
X469000
X459000
X449000
X439000
X429000
Y226000
X439000
X449000
X459000
X469000
X479000
X489000
X499000
X509000
X519000
X529000
X539000
X549000
X559000
X569000
Y324500
X559000
X549000
X539000
X529000
X519000
X509000
X499000
X489000
X479000
X469000
X459000
X449000
X439000
X429000
T06
X39370Y15748
X551181
X552500Y575500
X39370Y574803
M30
