G04 Layer_Color=16711935*
%FSLAX25Y25*%
%MOIN*%
G70*
G01*
G75*
%ADD32C,0.06800*%
%ADD33R,0.06800X0.06800*%
%ADD34R,0.06706X0.06706*%
%ADD35C,0.06706*%
%ADD36C,0.16548*%
%ADD37C,0.05918*%
D32*
X570866Y19685D02*
D03*
X492126D02*
D03*
X413386D02*
D03*
X334646D02*
D03*
X255906D02*
D03*
X177165D02*
D03*
X98425D02*
D03*
X19685D02*
D03*
X570866Y98425D02*
D03*
X492126D02*
D03*
X413386D02*
D03*
X334646D02*
D03*
X255906D02*
D03*
X177165D02*
D03*
X98425D02*
D03*
X19685D02*
D03*
X570866Y177165D02*
D03*
X492126D02*
D03*
X413386D02*
D03*
X334646D02*
D03*
X255906D02*
D03*
X177165D02*
D03*
X98425D02*
D03*
X19685D02*
D03*
X570866Y255906D02*
D03*
X492126D02*
D03*
X413386D02*
D03*
X334646D02*
D03*
X255906D02*
D03*
X177165D02*
D03*
X98425D02*
D03*
X19685D02*
D03*
X570866Y334646D02*
D03*
X492126D02*
D03*
X413386D02*
D03*
X334646D02*
D03*
X255906D02*
D03*
X177165D02*
D03*
X98425D02*
D03*
X19685D02*
D03*
X570866Y413386D02*
D03*
X492126D02*
D03*
X413386D02*
D03*
X334646D02*
D03*
X255906D02*
D03*
X177165D02*
D03*
X98425D02*
D03*
X19685D02*
D03*
X570866Y492126D02*
D03*
X492126D02*
D03*
X413386D02*
D03*
X334646D02*
D03*
X255906D02*
D03*
X177165D02*
D03*
X98425D02*
D03*
X19685D02*
D03*
X570866Y570866D02*
D03*
X492126D02*
D03*
X413386D02*
D03*
X334646D02*
D03*
X255906D02*
D03*
X177165D02*
D03*
X98425D02*
D03*
X19685D02*
D03*
X59055Y31496D02*
D03*
X137795D02*
D03*
X216535D02*
D03*
X295276D02*
D03*
X374016D02*
D03*
X452756D02*
D03*
X531496D02*
D03*
X551181D02*
D03*
X569000Y304500D02*
D03*
X559000D02*
D03*
X539000D02*
D03*
X529000D02*
D03*
X549000D02*
D03*
X519000D02*
D03*
X509000D02*
D03*
X499000D02*
D03*
X489000D02*
D03*
X479000D02*
D03*
X469000D02*
D03*
X459000D02*
D03*
X449000D02*
D03*
X439000D02*
D03*
X569000Y244500D02*
D03*
X559000D02*
D03*
X429000Y304500D02*
D03*
X439000Y244500D02*
D03*
X449000D02*
D03*
X459000D02*
D03*
X469000D02*
D03*
X479000D02*
D03*
X489000D02*
D03*
X499000D02*
D03*
X509000D02*
D03*
X519000D02*
D03*
X529000D02*
D03*
X539000D02*
D03*
X549000D02*
D03*
X476000Y363000D02*
D03*
X466000D02*
D03*
X456000D02*
D03*
X446000D02*
D03*
X436000D02*
D03*
X426000D02*
D03*
X416000D02*
D03*
X406000D02*
D03*
X529500Y362500D02*
D03*
X509500D02*
D03*
X519500D02*
D03*
X539500D02*
D03*
X549500D02*
D03*
X549000Y87000D02*
D03*
X539000D02*
D03*
X529000D02*
D03*
X519000D02*
D03*
X509000D02*
D03*
X499000D02*
D03*
X489000D02*
D03*
X479000D02*
D03*
X469000D02*
D03*
X459000D02*
D03*
X449000D02*
D03*
X439000D02*
D03*
X429000Y147000D02*
D03*
X559000Y87000D02*
D03*
X569000D02*
D03*
X439000Y147000D02*
D03*
X449000D02*
D03*
X459000D02*
D03*
X469000D02*
D03*
X479000D02*
D03*
X489000D02*
D03*
X499000D02*
D03*
X509000D02*
D03*
X519000D02*
D03*
X549000D02*
D03*
X529000D02*
D03*
X539000D02*
D03*
X559000D02*
D03*
X569000D02*
D03*
D33*
X429000Y244500D02*
D03*
Y87000D02*
D03*
D34*
Y68000D02*
D03*
Y165500D02*
D03*
Y226000D02*
D03*
Y324500D02*
D03*
D35*
X439000Y68000D02*
D03*
X449000D02*
D03*
X459000D02*
D03*
X469000D02*
D03*
X479000D02*
D03*
X489000D02*
D03*
X499000D02*
D03*
X509000D02*
D03*
X519000D02*
D03*
X529000D02*
D03*
X539000D02*
D03*
X549000D02*
D03*
X559000D02*
D03*
X569000D02*
D03*
X439000Y165500D02*
D03*
X449000D02*
D03*
X459000D02*
D03*
X469000D02*
D03*
X479000D02*
D03*
X489000D02*
D03*
X499000D02*
D03*
X509000D02*
D03*
X519000D02*
D03*
X529000D02*
D03*
X539000D02*
D03*
X549000D02*
D03*
X559000D02*
D03*
X569000D02*
D03*
X439000Y226000D02*
D03*
X449000D02*
D03*
X459000D02*
D03*
X469000D02*
D03*
X479000D02*
D03*
X489000D02*
D03*
X499000D02*
D03*
X509000D02*
D03*
X519000D02*
D03*
X529000D02*
D03*
X539000D02*
D03*
X549000D02*
D03*
X559000D02*
D03*
X569000D02*
D03*
X439000Y324500D02*
D03*
X449000D02*
D03*
X459000D02*
D03*
X469000D02*
D03*
X479000D02*
D03*
X489000D02*
D03*
X499000D02*
D03*
X509000D02*
D03*
X519000D02*
D03*
X529000D02*
D03*
X539000D02*
D03*
X549000D02*
D03*
X559000D02*
D03*
X569000D02*
D03*
D36*
X39370Y15748D02*
D03*
X551181D02*
D03*
X39370Y574803D02*
D03*
X552500Y575500D02*
D03*
D37*
X570500Y205000D02*
D03*
Y185000D02*
D03*
X520500Y205000D02*
D03*
Y185000D02*
D03*
M02*
